M48
;Layer_Color=9474304
;FILE_FORMAT=4:4
METRIC,LZ
;TYPE=PLATED
T01F00S00C0.3000
T02F00S00C1.0200
%
T01
X0000508Y0000508
Y0002363
Y0004218
Y0006073
Y0007928
X0002363Y0000508
X0004218
X0006073
X0007928
X0009783
X0011638
X0013493
X0015348
X0017203
X0019058
X0020913
X0022768
X0024623
X0026478
X0028333
X0030188
X0032043
X0033898
X00357531
X00376081
X00394631
X00413181
X00431731
X00450281
X00468831
X00487381
X00505931
X00524481
X00543031
X00561581
X0056517Y00018237
X00580131Y0002363
Y0004218
Y0006073
Y0007928
Y0000508
X004767Y00016527
X0036795Y00016947
X003603Y00084927
X00401455Y00089164
X00357278Y00112553
X00372278Y00127553
X00387278Y00142553
X00372278Y00157553
X00357278Y00172553
Y00142553
X0045555Y00152727
X00493557
X00453983Y00200032
X00446912Y00207103
X00439841Y00214541
X0043277Y00221245
X00423202Y00227579
X00428484Y00306102
Y00324652
Y00348142
Y00366692
Y00390182
Y00408732
Y00432222
Y00450772
Y00474262
Y00492812
X00469823
Y00474262
Y00450772
Y00432222
Y00408732
Y00390182
Y00366692
Y00348142
Y00324652
Y00306102
X00511163
Y00324652
Y00348142
Y00366692
Y00390182
Y00408732
Y00432222
Y00450772
Y00474262
Y00492812
X00552503
Y00474262
Y00450772
Y00432222
Y00408732
Y00390182
Y00366692
Y00348142
Y00324652
Y00306102
X00580131Y0030188
Y0028333
Y0026478
Y0024623
Y0022768
Y0020913
Y0019058
Y0017203
Y0015348
Y0013493
X0056613Y00135567
X00580131Y0011638
Y0009783
Y0032043
Y0033898
Y00357531
Y00376081
Y00394631
Y00413181
Y00431731
Y00450281
Y00468831
Y00487381
X00387144Y00492812
Y00474262
Y00450772
Y00432222
Y00408732
Y00390182
Y00366692
Y00348142
Y00324652
Y00306102
X00345804
Y00324652
Y00348142
Y00366692
Y00390182
Y00408732
Y00432222
Y00450772
Y00474262
Y00492812
X00304464
Y00474262
Y00450772
Y00432222
Y00408732
Y00390182
Y00366692
Y00348142
Y00324652
Y00306102
X00263124
Y00324652
Y00348142
Y00366692
Y00390182
Y00408732
Y00432222
Y00450772
Y00474262
Y00492812
X00221784
Y00474262
Y00450772
Y00432222
Y00408732
Y00390182
Y00366692
Y00348142
Y00324652
Y00306102
X00180444
Y00324652
Y00348142
Y00366692
Y00390182
Y00408732
Y00432222
Y00450772
Y00474262
Y00492812
X0000508Y00487381
Y00468831
Y00450281
Y00431731
Y00413181
Y00394631
Y00376081
Y00357531
Y0033898
Y0032043
Y0030188
Y0028333
Y0026478
Y0024623
Y0022768
Y0020913
Y0019058
Y0017203
Y0015348
Y0013493
Y0011638
Y0009783
X00305907Y00127048
X0030336Y00142167
X00327278Y00142553
X00342278Y00127553
Y00157553
X00285657Y00225295
X00278586Y0021838
X00292728Y00232366
X002995Y00239601
X00306871Y00246508
X00304464Y00516302
Y00534852
Y00558342
Y00576892
Y00600382
Y00618932
Y00642422
Y00660972
Y00684462
Y00703012
Y00726502
Y00745052
Y00768542
Y00787092
Y00810582
Y00829132
Y00852622
Y00871172
X00263124
Y00852622
Y00829132
Y00810582
Y00787092
Y00768542
Y00745052
Y00726502
Y00703012
Y00684462
Y00660972
Y00642422
Y00618932
Y00600382
Y00576892
Y00558342
Y00534852
Y00516302
X00221784
Y00534852
Y00558342
Y00576892
Y00600382
Y00618932
Y00642422
Y00660972
Y00684462
Y00703012
Y00726502
Y00745052
Y00768542
Y00787092
Y00810582
Y00829132
Y00852622
Y00871172
X00180444
Y00852622
Y00829132
Y00810582
Y00787092
X00180283Y00767756
X00180444Y00745052
Y00726502
Y00703012
Y00684462
Y00660972
Y00642422
Y00618932
Y00600382
Y00576892
Y00558342
Y00534852
Y00516302
X0000508Y00524481
Y00543031
Y00561581
Y00580131
Y00598681
Y00617231
Y00635781
Y00654331
Y00672881
Y00691431
Y00709981
Y00728531
Y00747081
Y00765631
Y00784181
Y00802731
Y00821281
Y00839831
Y00858381
Y00876931
Y00505931
X00345804Y00516302
Y00534852
Y00558342
Y00576892
Y00600382
Y00618932
Y00642422
Y00660972
Y00684462
Y00703012
Y00726502
X00346037Y0074527
X00345804Y00768542
Y00787092
Y00810582
Y00829132
Y00852622
Y00871172
X00387144
Y00852622
Y00829132
Y00810582
Y00787092
Y00768542
Y00745052
Y00726502
Y00703012
Y00684462
Y00660972
Y00642422
Y00618932
Y00600382
Y00576892
Y00558342
Y00534852
Y00516302
X00428484
Y00534852
Y00558342
Y00576892
Y00600382
Y00618932
Y00642422
Y00660972
Y00684462
Y00703012
Y00726502
Y00745052
Y00768542
Y00787092
Y00810582
Y00829132
Y00852622
Y00871172
X00469823
X00469823Y00854742
X00469823Y00829132
Y00810582
Y00787092
Y00768542
Y00745052
Y00726502
Y00703012
Y00684462
Y00660972
Y00642422
Y00618932
Y00600382
Y00576892
Y00558342
Y00534852
Y00516302
X00511163
Y00534852
Y00558342
Y00576892
Y00600382
Y00618932
Y00642422
Y00660972
Y00684462
Y00703012
Y00726502
Y00745052
Y00768542
Y00787092
Y00810582
Y00829132
Y00852622
Y00871172
X00552503
Y00852622
Y00829132
Y00810582
Y00787092
Y00768542
Y00745052
Y00726502
Y00703012
Y00684462
Y00660972
Y00642422
Y00618932
Y00600382
Y00576892
Y00558342
Y00534852
Y00516302
X00580131Y00524481
Y00505931
Y00543031
Y00561581
Y00580131
Y00598681
Y00617231
Y00635781
Y00654331
Y00672881
Y00691431
Y00709981
Y00728531
Y00747081
Y00765631
Y00784181
Y00802731
Y00821281
Y00839831
Y00858381
Y00876931
Y00895481
Y00914031
Y00932581
X00561581
X00543031
X00524481
X00505931
X00487381
X00468831
X00450281
X00431731
X00413181
X00394631
X00376081
X00357531
X00345804Y00913212
Y00894662
X00387144
Y00913212
X00428779Y00913437
X00428484Y00894662
X00469823
Y00913212
X00511163
Y00894662
X00552503
Y00913212
X0033898Y00932581
X0032043
X0030188
X0028333
X0026478
X0024623
X0022768
X0020913
X0019058
X0017203
X0015348
X0013493
X0011638
X0009783
X0007928
X0006073
X0004218
X0002363
X0000508
Y00914031
Y00895481
X00180444Y00894662
Y00913212
X00221784
Y00894662
X00263124
Y00913212
X00304464
Y00894662
T02
X00520062Y00023377
Y00048777
Y00074177
Y00099577
Y00124977
Y00150377
Y00175777
Y00201177
M30
