G04*
G04 #@! TF.GenerationSoftware,Altium Limited,Altium Designer,23.8.1 (32)*
G04*
G04 Layer_Color=255*
%FSLAX44Y44*%
%MOMM*%
G71*
G04*
G04 #@! TF.SameCoordinates,2FF213BD-71F3-435E-98A3-311B6935AF75*
G04*
G04*
G04 #@! TF.FilePolarity,Positive*
G04*
G01*
G75*
G04:AMPARAMS|DCode=15|XSize=0.27mm|YSize=0.86mm|CornerRadius=0.0338mm|HoleSize=0mm|Usage=FLASHONLY|Rotation=135.000|XOffset=0mm|YOffset=0mm|HoleType=Round|Shape=RoundedRectangle|*
%AMROUNDEDRECTD15*
21,1,0.2700,0.7925,0,0,135.0*
21,1,0.2025,0.8600,0,0,135.0*
1,1,0.0675,0.2086,0.3518*
1,1,0.0675,0.3518,0.2086*
1,1,0.0675,-0.2086,-0.3518*
1,1,0.0675,-0.3518,-0.2086*
%
%ADD15ROUNDEDRECTD15*%
G04:AMPARAMS|DCode=16|XSize=0.86mm|YSize=0.27mm|CornerRadius=0.0338mm|HoleSize=0mm|Usage=FLASHONLY|Rotation=135.000|XOffset=0mm|YOffset=0mm|HoleType=Round|Shape=RoundedRectangle|*
%AMROUNDEDRECTD16*
21,1,0.8600,0.2025,0,0,135.0*
21,1,0.7925,0.2700,0,0,135.0*
1,1,0.0675,-0.2086,0.3518*
1,1,0.0675,0.3518,-0.2086*
1,1,0.0675,0.2086,-0.3518*
1,1,0.0675,-0.3518,0.2086*
%
%ADD16ROUNDEDRECTD16*%
G04:AMPARAMS|DCode=17|XSize=1.6mm|YSize=0.7mm|CornerRadius=0.175mm|HoleSize=0mm|Usage=FLASHONLY|Rotation=90.000|XOffset=0mm|YOffset=0mm|HoleType=Round|Shape=RoundedRectangle|*
%AMROUNDEDRECTD17*
21,1,1.6000,0.3500,0,0,90.0*
21,1,1.2500,0.7000,0,0,90.0*
1,1,0.3500,0.1750,0.6250*
1,1,0.3500,0.1750,-0.6250*
1,1,0.3500,-0.1750,-0.6250*
1,1,0.3500,-0.1750,0.6250*
%
%ADD17ROUNDEDRECTD17*%
G04:AMPARAMS|DCode=18|XSize=0.5mm|YSize=0.5mm|CornerRadius=0.125mm|HoleSize=0mm|Usage=FLASHONLY|Rotation=270.000|XOffset=0mm|YOffset=0mm|HoleType=Round|Shape=RoundedRectangle|*
%AMROUNDEDRECTD18*
21,1,0.5000,0.2500,0,0,270.0*
21,1,0.2500,0.5000,0,0,270.0*
1,1,0.2500,-0.1250,-0.1250*
1,1,0.2500,-0.1250,0.1250*
1,1,0.2500,0.1250,0.1250*
1,1,0.2500,0.1250,-0.1250*
%
%ADD18ROUNDEDRECTD18*%
G04:AMPARAMS|DCode=19|XSize=0.5mm|YSize=0.5mm|CornerRadius=0.125mm|HoleSize=0mm|Usage=FLASHONLY|Rotation=45.000|XOffset=0mm|YOffset=0mm|HoleType=Round|Shape=RoundedRectangle|*
%AMROUNDEDRECTD19*
21,1,0.5000,0.2500,0,0,45.0*
21,1,0.2500,0.5000,0,0,45.0*
1,1,0.2500,0.1768,0.0000*
1,1,0.2500,0.0000,-0.1768*
1,1,0.2500,-0.1768,0.0000*
1,1,0.2500,0.0000,0.1768*
%
%ADD19ROUNDEDRECTD19*%
G04:AMPARAMS|DCode=20|XSize=0.5mm|YSize=0.5mm|CornerRadius=0.125mm|HoleSize=0mm|Usage=FLASHONLY|Rotation=135.000|XOffset=0mm|YOffset=0mm|HoleType=Round|Shape=RoundedRectangle|*
%AMROUNDEDRECTD20*
21,1,0.5000,0.2500,0,0,135.0*
21,1,0.2500,0.5000,0,0,135.0*
1,1,0.2500,0.0000,0.1768*
1,1,0.2500,0.1768,0.0000*
1,1,0.2500,0.0000,-0.1768*
1,1,0.2500,-0.1768,0.0000*
%
%ADD20ROUNDEDRECTD20*%
G04:AMPARAMS|DCode=21|XSize=0.5mm|YSize=0.5mm|CornerRadius=0.125mm|HoleSize=0mm|Usage=FLASHONLY|Rotation=180.000|XOffset=0mm|YOffset=0mm|HoleType=Round|Shape=RoundedRectangle|*
%AMROUNDEDRECTD21*
21,1,0.5000,0.2500,0,0,180.0*
21,1,0.2500,0.5000,0,0,180.0*
1,1,0.2500,-0.1250,0.1250*
1,1,0.2500,0.1250,0.1250*
1,1,0.2500,0.1250,-0.1250*
1,1,0.2500,-0.1250,-0.1250*
%
%ADD21ROUNDEDRECTD21*%
%ADD22R,0.6858X1.5748*%
G04:AMPARAMS|DCode=36|XSize=5.6mm|YSize=5.5mm|CornerRadius=0mm|HoleSize=0mm|Usage=FLASHONLY|Rotation=135.000|XOffset=0mm|YOffset=0mm|HoleType=Round|Shape=Rectangle|*
%AMROTATEDRECTD36*
4,1,4,3.9244,-0.0354,0.0354,-3.9244,-3.9244,0.0354,-0.0354,3.9244,3.9244,-0.0354,0.0*
%
%ADD36ROTATEDRECTD36*%

%AMCUSTOMSHAPE37*
4,1,4,-1.8900,0.0000,0.0000,-1.8900,1.8900,0.0000,0.0000,0.0000,-1.8900,0.0000,0.0*%
%ADD37CUSTOMSHAPE37*%

%AMCUSTOMSHAPE38*
4,1,4,-1.8900,0.0000,0.0000,0.0000,1.8900,0.0000,0.0000,1.8900,-1.8900,0.0000,0.0*%
%ADD38CUSTOMSHAPE38*%

%AMCUSTOMSHAPE39*
4,1,4,-1.8900,0.0000,0.0000,-1.8900,1.8900,0.0000,0.0000,1.8900,-1.8900,0.0000,0.0*%
%ADD39CUSTOMSHAPE39*%

%AMCUSTOMSHAPE40*
4,1,4,0.0000,1.8550,-1.8550,0.0000,0.0000,-1.8550,0.0000,0.0000,0.0000,1.8550,0.0*%
%ADD40CUSTOMSHAPE40*%

%AMCUSTOMSHAPE41*
4,1,4,0.0000,1.8550,-1.8550,0.0000,0.0000,-1.8550,1.8550,0.0000,0.0000,1.8550,0.0*%
%ADD41CUSTOMSHAPE41*%

%AMCUSTOMSHAPE42*
4,1,4,0.0000,-1.8550,1.8550,0.0000,0.0000,1.8550,0.0000,0.0000,0.0000,-1.8550,0.0*%
%ADD42CUSTOMSHAPE42*%

%AMCUSTOMSHAPE43*
4,1,4,0.0000,-1.8550,1.8550,0.0000,0.0000,1.8550,-1.8550,0.0000,0.0000,-1.8550,0.0*%
%ADD43CUSTOMSHAPE43*%

%ADD44R,1.3700X1.3700*%
%ADD45C,1.3700*%
D15*
X402005Y146505D02*
D03*
X398469Y150041D02*
D03*
X394934Y153576D02*
D03*
X391398Y157112D02*
D03*
X387863Y160648D02*
D03*
X384327Y164183D02*
D03*
X380792Y167719D02*
D03*
X377256Y171254D02*
D03*
X373721Y174790D02*
D03*
X370185Y178325D02*
D03*
X366649Y181861D02*
D03*
X363114Y185396D02*
D03*
X314536Y136818D02*
D03*
X318071Y133282D02*
D03*
X321607Y129747D02*
D03*
X325142Y126211D02*
D03*
X328678Y122676D02*
D03*
X332213Y119140D02*
D03*
X335749Y115605D02*
D03*
X339284Y112069D02*
D03*
X342820Y108534D02*
D03*
X346356Y104998D02*
D03*
X349891Y101463D02*
D03*
X353427Y97927D02*
D03*
D16*
X363114D02*
D03*
X366649Y101463D02*
D03*
X370185Y104998D02*
D03*
X373721Y108534D02*
D03*
X377256Y112069D02*
D03*
X380792Y115605D02*
D03*
X384327Y119140D02*
D03*
X387863Y122676D02*
D03*
X391398Y126211D02*
D03*
X394934Y129747D02*
D03*
X398469Y133282D02*
D03*
X402005Y136818D02*
D03*
X353427Y185396D02*
D03*
X349891Y181861D02*
D03*
X346356Y178325D02*
D03*
X342820Y174790D02*
D03*
X339284Y171254D02*
D03*
X335749Y167719D02*
D03*
X332213Y164183D02*
D03*
X328678Y160648D02*
D03*
X325142Y157112D02*
D03*
X321607Y153576D02*
D03*
X318071Y150041D02*
D03*
X314536Y146505D02*
D03*
D17*
X384830Y26831D02*
D03*
X431058D02*
D03*
D18*
X490080Y93987D02*
D03*
Y83987D02*
D03*
X541161D02*
D03*
Y93987D02*
D03*
D19*
X430297Y176681D02*
D03*
X437368Y183752D02*
D03*
X423226Y183752D02*
D03*
X430297Y190823D02*
D03*
X416155Y191190D02*
D03*
X423226Y198261D02*
D03*
X409084Y197894D02*
D03*
X416155Y204965D02*
D03*
X402013Y204965D02*
D03*
X409084Y212036D02*
D03*
X398533Y99907D02*
D03*
X405604Y106978D02*
D03*
X390959Y107307D02*
D03*
X398030Y114378D02*
D03*
D20*
X330222Y222643D02*
D03*
X323151Y229714D02*
D03*
X323151Y215572D02*
D03*
X316080Y222643D02*
D03*
X316080Y208501D02*
D03*
X309009Y215572D02*
D03*
Y201430D02*
D03*
X301937Y208501D02*
D03*
Y194359D02*
D03*
X294866Y201430D02*
D03*
X407435Y120173D02*
D03*
X414506Y113101D02*
D03*
X415200Y127671D02*
D03*
X422271Y120600D02*
D03*
X422948Y135129D02*
D03*
X430020Y128058D02*
D03*
X299636Y131165D02*
D03*
X292564Y138236D02*
D03*
D21*
X402944Y50119D02*
D03*
X412944D02*
D03*
D22*
X368239Y66983D02*
D03*
X470370Y195478D02*
D03*
D36*
X358270Y141662D02*
D03*
D37*
X552503Y924957D02*
D03*
X180444D02*
D03*
X511163D02*
D03*
X387144D02*
D03*
X428484D02*
D03*
X469823D02*
D03*
X221784D02*
D03*
X263124D02*
D03*
X304464D02*
D03*
X345804D02*
D03*
D38*
X552503Y294357D02*
D03*
X511163D02*
D03*
X469823D02*
D03*
X345804D02*
D03*
X304464D02*
D03*
X180444D02*
D03*
X387144D02*
D03*
X428484D02*
D03*
X263124D02*
D03*
X221784D02*
D03*
D39*
X552503Y714757D02*
D03*
Y672717D02*
D03*
Y756797D02*
D03*
Y798837D02*
D03*
Y840877D02*
D03*
Y336397D02*
D03*
Y378437D02*
D03*
Y420477D02*
D03*
Y462517D02*
D03*
Y882917D02*
D03*
Y504557D02*
D03*
Y546597D02*
D03*
Y588637D02*
D03*
Y630677D02*
D03*
X180444D02*
D03*
Y714757D02*
D03*
Y672717D02*
D03*
Y840877D02*
D03*
Y798837D02*
D03*
Y756797D02*
D03*
Y504557D02*
D03*
Y546597D02*
D03*
Y882917D02*
D03*
Y588637D02*
D03*
Y378437D02*
D03*
Y336397D02*
D03*
Y420477D02*
D03*
Y462517D02*
D03*
X511163Y672717D02*
D03*
Y714757D02*
D03*
X345804Y672717D02*
D03*
X304464D02*
D03*
Y630677D02*
D03*
X345804D02*
D03*
X387144Y672717D02*
D03*
Y630677D02*
D03*
X263124D02*
D03*
Y672717D02*
D03*
X304464Y714757D02*
D03*
X345804D02*
D03*
X387144D02*
D03*
X263124D02*
D03*
X511163Y630677D02*
D03*
X428484D02*
D03*
X469823D02*
D03*
Y714757D02*
D03*
X428484D02*
D03*
Y672717D02*
D03*
X469823D02*
D03*
X387144Y882917D02*
D03*
X428484D02*
D03*
X469823D02*
D03*
X428484Y840877D02*
D03*
X511163Y882917D02*
D03*
X428484Y798837D02*
D03*
X221784Y672717D02*
D03*
X387144Y798837D02*
D03*
Y840877D02*
D03*
X345804Y798837D02*
D03*
Y840877D02*
D03*
X221784Y882917D02*
D03*
X304464D02*
D03*
X345804D02*
D03*
X263124D02*
D03*
Y756797D02*
D03*
X221784D02*
D03*
X469823D02*
D03*
X511163D02*
D03*
X428484D02*
D03*
X387144D02*
D03*
X345804D02*
D03*
X304464D02*
D03*
X221784Y714757D02*
D03*
Y630677D02*
D03*
X469823Y798837D02*
D03*
Y840877D02*
D03*
X511163Y798837D02*
D03*
Y840877D02*
D03*
X221784D02*
D03*
Y798837D02*
D03*
X304464D02*
D03*
Y840877D02*
D03*
X263124Y798837D02*
D03*
Y840877D02*
D03*
X304464Y462517D02*
D03*
Y420477D02*
D03*
X221784Y462517D02*
D03*
X263124Y420477D02*
D03*
X221784D02*
D03*
X263124Y462517D02*
D03*
X428484Y420477D02*
D03*
X387144Y462517D02*
D03*
X428484D02*
D03*
X387144Y420477D02*
D03*
X345804D02*
D03*
Y462517D02*
D03*
X511163Y336397D02*
D03*
X469823D02*
D03*
X304464Y378437D02*
D03*
X428484D02*
D03*
X345804D02*
D03*
X387144D02*
D03*
X428484Y336397D02*
D03*
X345804D02*
D03*
X387144D02*
D03*
X221784Y378437D02*
D03*
X263124D02*
D03*
X304464Y336397D02*
D03*
X263124D02*
D03*
X221784D02*
D03*
X511163Y378437D02*
D03*
X469823D02*
D03*
X511163Y462517D02*
D03*
X469823D02*
D03*
X511163Y420477D02*
D03*
X469823D02*
D03*
X511163Y546597D02*
D03*
Y588637D02*
D03*
X469823D02*
D03*
X345804D02*
D03*
X387144D02*
D03*
X428484D02*
D03*
X304464D02*
D03*
Y504557D02*
D03*
Y546597D02*
D03*
X511163Y504557D02*
D03*
X345804D02*
D03*
X387144D02*
D03*
X345804Y546597D02*
D03*
X387144D02*
D03*
X428484D02*
D03*
Y504557D02*
D03*
X469823Y546597D02*
D03*
Y504557D02*
D03*
X221784Y546597D02*
D03*
X263124Y588637D02*
D03*
X221784D02*
D03*
X263124Y546597D02*
D03*
Y504557D02*
D03*
X221784D02*
D03*
D40*
X573173Y693737D02*
D03*
Y651697D02*
D03*
Y735777D02*
D03*
Y609657D02*
D03*
Y903937D02*
D03*
Y861897D02*
D03*
Y819857D02*
D03*
Y777817D02*
D03*
Y315377D02*
D03*
Y357417D02*
D03*
Y399457D02*
D03*
Y441497D02*
D03*
Y567617D02*
D03*
Y483537D02*
D03*
Y525577D02*
D03*
D41*
X531833Y735777D02*
D03*
Y651697D02*
D03*
Y693737D02*
D03*
X490493Y651697D02*
D03*
X325134Y609657D02*
D03*
X366474D02*
D03*
X242454D02*
D03*
X283794D02*
D03*
Y651697D02*
D03*
X325134D02*
D03*
X366474D02*
D03*
X242454D02*
D03*
Y693737D02*
D03*
X325134D02*
D03*
X283794D02*
D03*
X366474Y735777D02*
D03*
X242454D02*
D03*
X325134D02*
D03*
X283794D02*
D03*
X366474Y693737D02*
D03*
X449154Y609657D02*
D03*
X531833D02*
D03*
X490493D02*
D03*
X407814D02*
D03*
Y735777D02*
D03*
X449154D02*
D03*
X490493D02*
D03*
X449154Y693737D02*
D03*
X490493D02*
D03*
X407814D02*
D03*
Y651697D02*
D03*
X449154D02*
D03*
X407814Y903937D02*
D03*
X449154D02*
D03*
X531833D02*
D03*
X490493D02*
D03*
X407814Y861897D02*
D03*
X366474D02*
D03*
Y819857D02*
D03*
X407814D02*
D03*
X325134Y777817D02*
D03*
Y819857D02*
D03*
X242454Y903937D02*
D03*
X325134D02*
D03*
X366474D02*
D03*
X283794D02*
D03*
X407814Y777817D02*
D03*
X283794D02*
D03*
X242454D02*
D03*
X366474D02*
D03*
X283794Y819857D02*
D03*
X531833Y861897D02*
D03*
Y777817D02*
D03*
Y819857D02*
D03*
X490493Y777817D02*
D03*
X449154D02*
D03*
Y819857D02*
D03*
Y861897D02*
D03*
X490493D02*
D03*
Y819857D02*
D03*
X283794Y861897D02*
D03*
X242454D02*
D03*
X325134D02*
D03*
X242454Y819857D02*
D03*
X283794Y441497D02*
D03*
X242454D02*
D03*
X325134D02*
D03*
X242454Y399457D02*
D03*
X283794D02*
D03*
X325134D02*
D03*
X407814Y441497D02*
D03*
Y399457D02*
D03*
X366474Y441497D02*
D03*
Y399457D02*
D03*
X490493Y315377D02*
D03*
X531833D02*
D03*
X366474D02*
D03*
X407814D02*
D03*
X449154D02*
D03*
X242454Y357417D02*
D03*
X283794D02*
D03*
Y315377D02*
D03*
X325134D02*
D03*
X242454D02*
D03*
X490493Y357417D02*
D03*
X449154D02*
D03*
X531833D02*
D03*
X325134D02*
D03*
X407814D02*
D03*
X366474D02*
D03*
X490493Y399457D02*
D03*
X449154D02*
D03*
X531833D02*
D03*
X449154Y441497D02*
D03*
X490493D02*
D03*
X531833D02*
D03*
X283794Y483537D02*
D03*
X325134D02*
D03*
X366474D02*
D03*
X449154D02*
D03*
X407814D02*
D03*
X242454D02*
D03*
X531833Y525577D02*
D03*
Y567617D02*
D03*
X407814D02*
D03*
X366474D02*
D03*
X449154D02*
D03*
X490493D02*
D03*
X325134Y525577D02*
D03*
Y567617D02*
D03*
X490493Y525577D02*
D03*
X531833Y483537D02*
D03*
X490493D02*
D03*
X366474Y525577D02*
D03*
X407814D02*
D03*
X449154D02*
D03*
X283794Y567617D02*
D03*
X242454D02*
D03*
Y525577D02*
D03*
X283794D02*
D03*
D42*
X159774Y441497D02*
D03*
Y483537D02*
D03*
Y525577D02*
D03*
Y567617D02*
D03*
Y903937D02*
D03*
Y861897D02*
D03*
Y819857D02*
D03*
Y777817D02*
D03*
Y651697D02*
D03*
Y735777D02*
D03*
Y693737D02*
D03*
Y609657D02*
D03*
Y357417D02*
D03*
Y315377D02*
D03*
Y399457D02*
D03*
D43*
X201114Y903937D02*
D03*
Y399457D02*
D03*
Y441497D02*
D03*
Y777817D02*
D03*
Y819857D02*
D03*
Y609657D02*
D03*
Y735777D02*
D03*
Y651697D02*
D03*
Y357417D02*
D03*
Y315377D02*
D03*
Y693737D02*
D03*
Y525577D02*
D03*
Y483537D02*
D03*
Y567617D02*
D03*
Y861897D02*
D03*
D44*
X520062Y201177D02*
D03*
D45*
Y175777D02*
D03*
Y150377D02*
D03*
Y124977D02*
D03*
Y99577D02*
D03*
Y74177D02*
D03*
Y48777D02*
D03*
Y23377D02*
D03*
M02*
