G04*
G04 #@! TF.GenerationSoftware,Altium Limited,Altium Designer,23.8.1 (32)*
G04*
G04 Layer_Color=2752767*
%FSLAX44Y44*%
%MOMM*%
G71*
G04*
G04 #@! TF.SameCoordinates,2FF213BD-71F3-435E-98A3-311B6935AF75*
G04*
G04*
G04 #@! TF.FilePolarity,Positive*
G04*
G01*
G75*
%ADD47C,0.0508*%
D47*
X518030Y199145D02*
Y203209D01*
X522094D01*
Y199145D01*
X518030D01*
Y173745D02*
Y177809D01*
X522094D01*
Y173745D01*
X518030D01*
Y148345D02*
Y152409D01*
X522094D01*
Y148345D01*
X518030D01*
Y122945D02*
Y127009D01*
X522094D01*
Y122945D01*
X518030D01*
Y97545D02*
Y101609D01*
X522094D01*
Y97545D01*
X518030D01*
Y72145D02*
Y76209D01*
X522094D01*
Y72145D01*
X518030D01*
Y46745D02*
Y50809D01*
X522094D01*
Y46745D01*
X518030D01*
Y21345D02*
Y25409D01*
X522094D01*
Y21345D01*
X518030D01*
X357278Y110521D02*
X355246Y114585D01*
X359310D01*
X357278Y110521D01*
X305907Y125016D02*
X303875Y129080D01*
X307939D01*
X305907Y125016D01*
X401455Y87132D02*
X399423Y91196D01*
X403487D01*
X401455Y87132D01*
X423202Y225547D02*
X421170Y229611D01*
X425234D01*
X423202Y225547D01*
X453983Y198000D02*
X451951Y202064D01*
X456015D01*
X453983Y198000D01*
X446912Y205071D02*
X444880Y209135D01*
X448944D01*
X446912Y205071D01*
X439841Y212509D02*
X437809Y216573D01*
X441873D01*
X439841Y212509D01*
X432770Y219214D02*
X430738Y223277D01*
X434802D01*
X432770Y219214D01*
X285657Y223263D02*
X283625Y227327D01*
X287689D01*
X285657Y223263D01*
X278586Y216348D02*
X276554Y220412D01*
X280618D01*
X278586Y216348D01*
X292728Y230334D02*
X290696Y234398D01*
X294760D01*
X292728Y230334D01*
X306871Y244476D02*
X304839Y248540D01*
X308903D01*
X306871Y244476D01*
X299500Y237568D02*
X297468Y241632D01*
X301532D01*
X299500Y237568D01*
X357278Y170521D02*
X355246Y174585D01*
X359310D01*
X357278Y170521D01*
X387278Y140521D02*
X385246Y144585D01*
X389310D01*
X387278Y140521D01*
X327278D02*
X325246Y144585D01*
X329310D01*
X327278Y140521D01*
X342278Y125521D02*
X340246Y129585D01*
X344310D01*
X342278Y125521D01*
Y155521D02*
X340246Y159585D01*
X344310D01*
X342278Y155521D01*
X372278D02*
X370246Y159585D01*
X374310D01*
X372278Y155521D01*
Y125521D02*
X370246Y129585D01*
X374310D01*
X372278Y125521D01*
X357278Y140521D02*
X355246Y144585D01*
X359310D01*
X357278Y140521D01*
X468831Y930549D02*
X466799Y934613D01*
X470863D01*
X468831Y930549D01*
X487381D02*
X485349Y934613D01*
X489413D01*
X487381Y930549D01*
X524481D02*
X522449Y934613D01*
X526513D01*
X524481Y930549D01*
X505931D02*
X503899Y934613D01*
X507963D01*
X505931Y930549D01*
X543031D02*
X540999Y934613D01*
X545063D01*
X543031Y930549D01*
X561581D02*
X559549Y934613D01*
X563613D01*
X561581Y930549D01*
X394631D02*
X392599Y934613D01*
X396663D01*
X394631Y930549D01*
X413181D02*
X411149Y934613D01*
X415213D01*
X413181Y930549D01*
X450281D02*
X448249Y934613D01*
X452313D01*
X450281Y930549D01*
X431731D02*
X429699Y934613D01*
X433763D01*
X431731Y930549D01*
X357531D02*
X355499Y934613D01*
X359562D01*
X357531Y930549D01*
X376081D02*
X374049Y934613D01*
X378112D01*
X376081Y930549D01*
X338980D02*
X336949Y934613D01*
X341012D01*
X338980Y930549D01*
X320430D02*
X318398Y934613D01*
X322462D01*
X320430Y930549D01*
X60730D02*
X58698Y934613D01*
X62762D01*
X60730Y930549D01*
X79280D02*
X77248Y934613D01*
X81312D01*
X79280Y930549D01*
X42180D02*
X40148Y934613D01*
X44212D01*
X42180Y930549D01*
X5080D02*
X3048Y934613D01*
X7112D01*
X5080Y930549D01*
X172030D02*
X169998Y934613D01*
X174062D01*
X172030Y930549D01*
X190580D02*
X188548Y934613D01*
X192612D01*
X190580Y930549D01*
X227680D02*
X225648Y934613D01*
X229712D01*
X227680Y930549D01*
X209130D02*
X207098Y934613D01*
X211162D01*
X209130Y930549D01*
X283330D02*
X281298Y934613D01*
X285362D01*
X283330Y930549D01*
X301880D02*
X299848Y934613D01*
X303912D01*
X301880Y930549D01*
X264780D02*
X262748Y934613D01*
X266812D01*
X264780Y930549D01*
X246230D02*
X244198Y934613D01*
X248262D01*
X246230Y930549D01*
X97830D02*
X95798Y934613D01*
X99862D01*
X97830Y930549D01*
X116380D02*
X114348Y934613D01*
X118412D01*
X116380Y930549D01*
X153480D02*
X151448Y934613D01*
X155512D01*
X153480Y930549D01*
X134930D02*
X132898Y934613D01*
X136962D01*
X134930Y930549D01*
X23630D02*
X21598Y934613D01*
X25662D01*
X23630Y930549D01*
X5080Y596649D02*
X3048Y600713D01*
X7112D01*
X5080Y596649D01*
Y559549D02*
X3048Y563613D01*
X7112D01*
X5080Y559549D01*
Y540999D02*
X3048Y545063D01*
X7112D01*
X5080Y540999D01*
Y3048D02*
X3048Y7112D01*
X7112D01*
X5080Y3048D01*
Y188548D02*
X3048Y192612D01*
X7112D01*
X5080Y188548D01*
Y225648D02*
X3048Y229712D01*
X7112D01*
X5080Y225648D01*
Y207098D02*
X3048Y211162D01*
X7112D01*
X5080Y207098D01*
Y95798D02*
X3048Y99862D01*
X7112D01*
X5080Y95798D01*
Y114348D02*
X3048Y118412D01*
X7112D01*
X5080Y114348D01*
Y151448D02*
X3048Y155512D01*
X7112D01*
X5080Y151448D01*
Y132898D02*
X3048Y136962D01*
X7112D01*
X5080Y132898D01*
Y58698D02*
X3048Y62762D01*
X7112D01*
X5080Y58698D01*
Y77248D02*
X3048Y81312D01*
X7112D01*
X5080Y77248D01*
Y40148D02*
X3048Y44212D01*
X7112D01*
X5080Y40148D01*
Y21598D02*
X3048Y25662D01*
X7112D01*
X5080Y21598D01*
Y169998D02*
X3048Y174062D01*
X7112D01*
X5080Y169998D01*
Y299848D02*
X3048Y303912D01*
X7112D01*
X5080Y299848D01*
Y262748D02*
X3048Y266812D01*
X7112D01*
X5080Y262748D01*
Y244198D02*
X3048Y248262D01*
X7112D01*
X5080Y244198D01*
Y281298D02*
X3048Y285362D01*
X7112D01*
X5080Y281298D01*
Y485349D02*
X3048Y489413D01*
X7112D01*
X5080Y485349D01*
Y522449D02*
X3048Y526513D01*
X7112D01*
X5080Y522449D01*
Y503899D02*
X3048Y507963D01*
X7112D01*
X5080Y503899D01*
Y392599D02*
X3048Y396663D01*
X7112D01*
X5080Y392599D01*
Y411149D02*
X3048Y415213D01*
X7112D01*
X5080Y411149D01*
Y448249D02*
X3048Y452313D01*
X7112D01*
X5080Y448249D01*
Y429699D02*
X3048Y433763D01*
X7112D01*
X5080Y429699D01*
Y355499D02*
X3048Y359562D01*
X7112D01*
X5080Y355499D01*
Y374049D02*
X3048Y378112D01*
X7112D01*
X5080Y374049D01*
Y336949D02*
X3048Y341012D01*
X7112D01*
X5080Y336949D01*
Y318398D02*
X3048Y322462D01*
X7112D01*
X5080Y318398D01*
Y782149D02*
X3048Y786213D01*
X7112D01*
X5080Y782149D01*
Y819249D02*
X3048Y823313D01*
X7112D01*
X5080Y819249D01*
Y800699D02*
X3048Y804763D01*
X7112D01*
X5080Y800699D01*
Y689399D02*
X3048Y693463D01*
X7112D01*
X5080Y689399D01*
Y707949D02*
X3048Y712013D01*
X7112D01*
X5080Y707949D01*
Y745049D02*
X3048Y749113D01*
X7112D01*
X5080Y745049D01*
Y726499D02*
X3048Y730563D01*
X7112D01*
X5080Y726499D01*
Y652299D02*
X3048Y656363D01*
X7112D01*
X5080Y652299D01*
Y670849D02*
X3048Y674913D01*
X7112D01*
X5080Y670849D01*
Y633749D02*
X3048Y637813D01*
X7112D01*
X5080Y633749D01*
Y615199D02*
X3048Y619263D01*
X7112D01*
X5080Y615199D01*
Y893449D02*
X3048Y897513D01*
X7112D01*
X5080Y893449D01*
Y856349D02*
X3048Y860413D01*
X7112D01*
X5080Y856349D01*
Y837799D02*
X3048Y841863D01*
X7112D01*
X5080Y837799D01*
Y466799D02*
X3048Y470863D01*
X7112D01*
X5080Y466799D01*
Y578099D02*
X3048Y582163D01*
X7112D01*
X5080Y578099D01*
Y763599D02*
X3048Y767663D01*
X7112D01*
X5080Y763599D01*
Y874899D02*
X3048Y878963D01*
X7112D01*
X5080Y874899D01*
Y911999D02*
X3048Y916063D01*
X7112D01*
X5080Y911999D01*
X580131Y151448D02*
X578099Y155512D01*
X582163D01*
X580131Y151448D01*
Y169998D02*
X578099Y174062D01*
X582163D01*
X580131Y169998D01*
Y188548D02*
X578099Y192612D01*
X582163D01*
X580131Y188548D01*
Y207098D02*
X578099Y211162D01*
X582163D01*
X580131Y207098D01*
Y225648D02*
X578099Y229712D01*
X582163D01*
X580131Y225648D01*
Y244198D02*
X578099Y248262D01*
X582163D01*
X580131Y244198D01*
Y262748D02*
X578099Y266812D01*
X582163D01*
X580131Y262748D01*
Y281298D02*
X578099Y285362D01*
X582163D01*
X580131Y281298D01*
Y299848D02*
X578099Y303912D01*
X582163D01*
X580131Y299848D01*
Y318398D02*
X578099Y322462D01*
X582163D01*
X580131Y318398D01*
Y336949D02*
X578099Y341012D01*
X582163D01*
X580131Y336949D01*
Y355499D02*
X578099Y359562D01*
X582163D01*
X580131Y355499D01*
Y374049D02*
X578099Y378112D01*
X582163D01*
X580131Y374049D01*
Y392599D02*
X578099Y396663D01*
X582163D01*
X580131Y392599D01*
Y411149D02*
X578099Y415213D01*
X582163D01*
X580131Y411149D01*
Y429699D02*
X578099Y433763D01*
X582163D01*
X580131Y429699D01*
Y448249D02*
X578099Y452313D01*
X582163D01*
X580131Y448249D01*
Y466799D02*
X578099Y470863D01*
X582163D01*
X580131Y466799D01*
Y485349D02*
X578099Y489413D01*
X582163D01*
X580131Y485349D01*
Y503899D02*
X578099Y507963D01*
X582163D01*
X580131Y503899D01*
Y522449D02*
X578099Y526513D01*
X582163D01*
X580131Y522449D01*
Y540999D02*
X578099Y545063D01*
X582163D01*
X580131Y540999D01*
Y559549D02*
X578099Y563613D01*
X582163D01*
X580131Y559549D01*
Y578099D02*
X578099Y582163D01*
X582163D01*
X580131Y578099D01*
Y596649D02*
X578099Y600713D01*
X582163D01*
X580131Y596649D01*
Y615199D02*
X578099Y619263D01*
X582163D01*
X580131Y615199D01*
Y633749D02*
X578099Y637813D01*
X582163D01*
X580131Y633749D01*
Y652299D02*
X578099Y656363D01*
X582163D01*
X580131Y652299D01*
Y670849D02*
X578099Y674913D01*
X582163D01*
X580131Y670849D01*
Y689399D02*
X578099Y693463D01*
X582163D01*
X580131Y689399D01*
Y707949D02*
X578099Y712013D01*
X582163D01*
X580131Y707949D01*
Y726499D02*
X578099Y730563D01*
X582163D01*
X580131Y726499D01*
Y745049D02*
X578099Y749113D01*
X582163D01*
X580131Y745049D01*
Y763599D02*
X578099Y767663D01*
X582163D01*
X580131Y763599D01*
Y782149D02*
X578099Y786213D01*
X582163D01*
X580131Y782149D01*
Y800699D02*
X578099Y804763D01*
X582163D01*
X580131Y800699D01*
Y819249D02*
X578099Y823313D01*
X582163D01*
X580131Y819249D01*
Y837799D02*
X578099Y841863D01*
X582163D01*
X580131Y837799D01*
Y856349D02*
X578099Y860413D01*
X582163D01*
X580131Y856349D01*
Y874899D02*
X578099Y878963D01*
X582163D01*
X580131Y874899D01*
Y893449D02*
X578099Y897513D01*
X582163D01*
X580131Y893449D01*
Y911999D02*
X578099Y916063D01*
X582163D01*
X580131Y911999D01*
Y930549D02*
X578099Y934613D01*
X582163D01*
X580131Y930549D01*
X487381Y3048D02*
X485349Y7112D01*
X489413D01*
X487381Y3048D01*
X468831D02*
X466799Y7112D01*
X470863D01*
X468831Y3048D01*
X524481D02*
X522449Y7112D01*
X526513D01*
X524481Y3048D01*
X505931D02*
X503899Y7112D01*
X507963D01*
X505931Y3048D01*
X543031D02*
X540999Y7112D01*
X545063D01*
X543031Y3048D01*
X561581D02*
X559549Y7112D01*
X563613D01*
X561581Y3048D01*
X413181D02*
X411149Y7112D01*
X415213D01*
X413181Y3048D01*
X394631D02*
X392599Y7112D01*
X396663D01*
X394631Y3048D01*
X357531D02*
X355499Y7112D01*
X359562D01*
X357531Y3048D01*
X376081D02*
X374049Y7112D01*
X378112D01*
X376081Y3048D01*
X431731D02*
X429699Y7112D01*
X433763D01*
X431731Y3048D01*
X450281D02*
X448249Y7112D01*
X452313D01*
X450281Y3048D01*
X227680D02*
X225648Y7112D01*
X229712D01*
X227680Y3048D01*
X60730D02*
X58698Y7112D01*
X62762D01*
X60730Y3048D01*
X116380D02*
X114348Y7112D01*
X118412D01*
X116380Y3048D01*
X97830D02*
X95798Y7112D01*
X99862D01*
X97830Y3048D01*
X79280D02*
X77248Y7112D01*
X81312D01*
X79280Y3048D01*
X153480D02*
X151448Y7112D01*
X155512D01*
X153480Y3048D01*
X23630D02*
X21598Y7112D01*
X25662D01*
X23630Y3048D01*
X42180D02*
X40148Y7112D01*
X44212D01*
X42180Y3048D01*
X190580D02*
X188548Y7112D01*
X192612D01*
X190580Y3048D01*
X172030D02*
X169998Y7112D01*
X174062D01*
X172030Y3048D01*
X134930D02*
X132898Y7112D01*
X136962D01*
X134930Y3048D01*
X338980D02*
X336949Y7112D01*
X341012D01*
X338980Y3048D01*
X320430D02*
X318398Y7112D01*
X322462D01*
X320430Y3048D01*
X301880D02*
X299848Y7112D01*
X303912D01*
X301880Y3048D01*
X209130D02*
X207098Y7112D01*
X211162D01*
X209130Y3048D01*
X246230D02*
X244198Y7112D01*
X248262D01*
X246230Y3048D01*
X264780D02*
X262748Y7112D01*
X266812D01*
X264780Y3048D01*
X283330D02*
X281298Y7112D01*
X285362D01*
X283330Y3048D01*
X580131Y21598D02*
X578099Y25662D01*
X582163D01*
X580131Y21598D01*
Y40148D02*
X578099Y44212D01*
X582163D01*
X580131Y40148D01*
Y58698D02*
X578099Y62762D01*
X582163D01*
X580131Y58698D01*
Y77248D02*
X578099Y81312D01*
X582163D01*
X580131Y77248D01*
Y95798D02*
X578099Y99862D01*
X582163D01*
X580131Y95798D01*
Y114348D02*
X578099Y118412D01*
X582163D01*
X580131Y114348D01*
Y3048D02*
X578099Y7112D01*
X582163D01*
X580131Y3048D01*
Y132898D02*
X578099Y136962D01*
X582163D01*
X580131Y132898D01*
X476700Y14495D02*
X474668Y18559D01*
X478732D01*
X476700Y14495D01*
X493557Y150695D02*
X491525Y154759D01*
X495589D01*
X493557Y150695D01*
X360300Y82895D02*
X358268Y86959D01*
X362332D01*
X360300Y82895D01*
X455550Y150695D02*
X453518Y154759D01*
X457582D01*
X455550Y150695D01*
X566130Y133535D02*
X564098Y137599D01*
X568162D01*
X566130Y133535D01*
X367950Y14915D02*
X365918Y18979D01*
X369982D01*
X367950Y14915D01*
X303360Y140135D02*
X301328Y144199D01*
X305392D01*
X303360Y140135D01*
X565170Y16205D02*
X563138Y20269D01*
X567202D01*
X565170Y16205D01*
X221784Y304070D02*
X219752Y308134D01*
X223816D01*
X221784Y304070D01*
X263124D02*
X261092Y308134D01*
X265156D01*
X263124Y304070D01*
X552503Y430190D02*
X550471Y434254D01*
X554535D01*
X552503Y430190D01*
X428484Y448740D02*
X426452Y452804D01*
X430516D01*
X428484Y448740D01*
X221784Y472230D02*
X219752Y476294D01*
X223816D01*
X221784Y472230D01*
X552503Y304070D02*
X550471Y308134D01*
X554535D01*
X552503Y304070D01*
X511163D02*
X509131Y308134D01*
X513195D01*
X511163Y304070D01*
X469823D02*
X467791Y308134D01*
X471856D01*
X469823Y304070D01*
X345804D02*
X343772Y308134D01*
X347836D01*
X345804Y304070D01*
X304464D02*
X302432Y308134D01*
X306496D01*
X304464Y304070D01*
X552503Y808550D02*
X550471Y812614D01*
X554535D01*
X552503Y808550D01*
Y743020D02*
X550471Y747084D01*
X554535D01*
X552503Y743020D01*
Y785060D02*
X550471Y789124D01*
X554535D01*
X552503Y785060D01*
Y766510D02*
X550471Y770574D01*
X554535D01*
X552503Y766510D01*
Y574860D02*
X550471Y578924D01*
X554535D01*
X552503Y574860D01*
Y658940D02*
X550471Y663004D01*
X554535D01*
X552503Y658940D01*
Y682430D02*
X550471Y686494D01*
X554535D01*
X552503Y682430D01*
Y700980D02*
X550471Y705044D01*
X554535D01*
X552503Y700980D01*
Y616900D02*
X550471Y620964D01*
X554535D01*
X552503Y616900D01*
Y640390D02*
X550471Y644454D01*
X554535D01*
X552503Y640390D01*
Y598350D02*
X550471Y602414D01*
X554535D01*
X552503Y598350D01*
Y892630D02*
X550471Y896694D01*
X554535D01*
X552503Y892630D01*
Y869140D02*
X550471Y873204D01*
X554535D01*
X552503Y869140D01*
Y911180D02*
X550471Y915244D01*
X554535D01*
X552503Y911180D01*
Y827100D02*
X550471Y831164D01*
X554535D01*
X552503Y827100D01*
Y850590D02*
X550471Y854654D01*
X554535D01*
X552503Y850590D01*
Y448740D02*
X550471Y452804D01*
X554535D01*
X552503Y448740D01*
Y514270D02*
X550471Y518334D01*
X554535D01*
X552503Y514270D01*
Y388150D02*
X550471Y392214D01*
X554535D01*
X552503Y388150D01*
Y490780D02*
X550471Y494844D01*
X554535D01*
X552503Y490780D01*
Y472230D02*
X550471Y476294D01*
X554535D01*
X552503Y472230D01*
Y346110D02*
X550471Y350174D01*
X554535D01*
X552503Y346110D01*
Y364660D02*
X550471Y368724D01*
X554535D01*
X552503Y364660D01*
Y406700D02*
X550471Y410764D01*
X554535D01*
X552503Y406700D01*
Y556310D02*
X550471Y560374D01*
X554535D01*
X552503Y556310D01*
Y322620D02*
X550471Y326684D01*
X554535D01*
X552503Y322620D01*
Y724470D02*
X550471Y728534D01*
X554535D01*
X552503Y724470D01*
Y532820D02*
X550471Y536884D01*
X554535D01*
X552503Y532820D01*
X180283Y765724D02*
X178251Y769788D01*
X182315D01*
X180283Y765724D01*
X180444Y911180D02*
X178412Y915244D01*
X182476D01*
X180444Y911180D01*
Y304070D02*
X178412Y308134D01*
X182476D01*
X180444Y304070D01*
Y406700D02*
X178412Y410764D01*
X182476D01*
X180444Y406700D01*
Y388150D02*
X178412Y392214D01*
X182476D01*
X180444Y388150D01*
Y346110D02*
X178412Y350174D01*
X182476D01*
X180444Y346110D01*
Y364660D02*
X178412Y368724D01*
X182476D01*
X180444Y364660D01*
Y322620D02*
X178412Y326684D01*
X182476D01*
X180444Y322620D01*
Y658940D02*
X178412Y663004D01*
X182476D01*
X180444Y658940D01*
Y743020D02*
X178412Y747084D01*
X182476D01*
X180444Y743020D01*
Y682430D02*
X178412Y686494D01*
X182476D01*
X180444Y682430D01*
Y700980D02*
X178412Y705044D01*
X182476D01*
X180444Y700980D01*
Y616900D02*
X178412Y620964D01*
X182476D01*
X180444Y616900D01*
Y640390D02*
X178412Y644454D01*
X182476D01*
X180444Y640390D01*
Y598350D02*
X178412Y602414D01*
X182476D01*
X180444Y598350D01*
Y724470D02*
X178412Y728534D01*
X182476D01*
X180444Y724470D01*
Y532820D02*
X178412Y536884D01*
X182476D01*
X180444Y532820D01*
Y556310D02*
X178412Y560374D01*
X182476D01*
X180444Y556310D01*
Y574860D02*
X178412Y578924D01*
X182476D01*
X180444Y574860D01*
Y514270D02*
X178412Y518334D01*
X182476D01*
X180444Y514270D01*
Y490780D02*
X178412Y494844D01*
X182476D01*
X180444Y490780D01*
Y448740D02*
X178412Y452804D01*
X182476D01*
X180444Y448740D01*
Y472230D02*
X178412Y476294D01*
X182476D01*
X180444Y472230D01*
Y430190D02*
X178412Y434254D01*
X182476D01*
X180444Y430190D01*
Y808550D02*
X178412Y812614D01*
X182476D01*
X180444Y808550D01*
Y785060D02*
X178412Y789124D01*
X182476D01*
X180444Y785060D01*
Y827100D02*
X178412Y831164D01*
X182476D01*
X180444Y827100D01*
Y892630D02*
X178412Y896694D01*
X182476D01*
X180444Y892630D01*
Y850590D02*
X178412Y854654D01*
X182476D01*
X180444Y850590D01*
Y869140D02*
X178412Y873204D01*
X182476D01*
X180444Y869140D01*
X263124Y322620D02*
X261092Y326684D01*
X265156D01*
X263124Y322620D01*
Y346110D02*
X261092Y350174D01*
X265156D01*
X263124Y346110D01*
Y364660D02*
X261092Y368724D01*
X265156D01*
X263124Y364660D01*
X345804Y322620D02*
X343772Y326684D01*
X347836D01*
X345804Y322620D01*
Y346110D02*
X343772Y350174D01*
X347836D01*
X345804Y346110D01*
Y364660D02*
X343772Y368724D01*
X347836D01*
X345804Y364660D01*
Y388150D02*
X343772Y392214D01*
X347836D01*
X345804Y388150D01*
Y406700D02*
X343772Y410764D01*
X347836D01*
X345804Y406700D01*
Y430190D02*
X343772Y434254D01*
X347836D01*
X345804Y430190D01*
Y448740D02*
X343772Y452804D01*
X347836D01*
X345804Y448740D01*
Y472230D02*
X343772Y476294D01*
X347836D01*
X345804Y472230D01*
Y490780D02*
X343772Y494844D01*
X347836D01*
X345804Y490780D01*
Y514270D02*
X343772Y518334D01*
X347836D01*
X345804Y514270D01*
Y532820D02*
X343772Y536884D01*
X347836D01*
X345804Y532820D01*
X428484D02*
X426452Y536884D01*
X430516D01*
X428484Y532820D01*
Y514270D02*
X426452Y518334D01*
X430516D01*
X428484Y514270D01*
Y430190D02*
X426452Y434254D01*
X430516D01*
X428484Y430190D01*
Y472230D02*
X426452Y476294D01*
X430516D01*
X428484Y472230D01*
Y490780D02*
X426452Y494844D01*
X430516D01*
X428484Y490780D01*
X263124Y472230D02*
X261092Y476294D01*
X265156D01*
X263124Y472230D01*
Y490780D02*
X261092Y494844D01*
X265156D01*
X263124Y490780D01*
Y514270D02*
X261092Y518334D01*
X265156D01*
X263124Y514270D01*
Y532820D02*
X261092Y536884D01*
X265156D01*
X263124Y532820D01*
X304464D02*
X302432Y536884D01*
X306496D01*
X304464Y532820D01*
Y514270D02*
X302432Y518334D01*
X306496D01*
X304464Y514270D01*
Y490780D02*
X302432Y494844D01*
X306496D01*
X304464Y490780D01*
Y472230D02*
X302432Y476294D01*
X306496D01*
X304464Y472230D01*
Y448740D02*
X302432Y452804D01*
X306496D01*
X304464Y448740D01*
Y430190D02*
X302432Y434254D01*
X306496D01*
X304464Y430190D01*
Y406700D02*
X302432Y410764D01*
X306496D01*
X304464Y406700D01*
Y388150D02*
X302432Y392214D01*
X306496D01*
X304464Y388150D01*
Y364660D02*
X302432Y368724D01*
X306496D01*
X304464Y364660D01*
Y346110D02*
X302432Y350174D01*
X306496D01*
X304464Y346110D01*
Y322620D02*
X302432Y326684D01*
X306496D01*
X304464Y322620D01*
X263124Y388150D02*
X261092Y392214D01*
X265156D01*
X263124Y388150D01*
Y406700D02*
X261092Y410764D01*
X265156D01*
X263124Y406700D01*
Y430190D02*
X261092Y434254D01*
X265156D01*
X263124Y430190D01*
Y448740D02*
X261092Y452804D01*
X265156D01*
X263124Y448740D01*
X511163Y532820D02*
X509131Y536884D01*
X513195D01*
X511163Y532820D01*
Y514270D02*
X509131Y518334D01*
X513195D01*
X511163Y514270D01*
Y430190D02*
X509131Y434254D01*
X513195D01*
X511163Y430190D01*
Y448740D02*
X509131Y452804D01*
X513195D01*
X511163Y448740D01*
Y472230D02*
X509131Y476294D01*
X513195D01*
X511163Y472230D01*
Y490780D02*
X509131Y494844D01*
X513195D01*
X511163Y490780D01*
X469823Y322620D02*
X467791Y326684D01*
X471856D01*
X469823Y322620D01*
Y532820D02*
X467791Y536884D01*
X471856D01*
X469823Y532820D01*
Y514270D02*
X467791Y518334D01*
X471856D01*
X469823Y514270D01*
Y490780D02*
X467791Y494844D01*
X471856D01*
X469823Y490780D01*
Y472230D02*
X467791Y476294D01*
X471856D01*
X469823Y472230D01*
Y448740D02*
X467791Y452804D01*
X471856D01*
X469823Y448740D01*
Y430190D02*
X467791Y434254D01*
X471856D01*
X469823Y430190D01*
Y406700D02*
X467791Y410764D01*
X471856D01*
X469823Y406700D01*
Y388150D02*
X467791Y392214D01*
X471856D01*
X469823Y388150D01*
Y364660D02*
X467791Y368724D01*
X471856D01*
X469823Y364660D01*
Y346110D02*
X467791Y350174D01*
X471856D01*
X469823Y346110D01*
X387144Y406700D02*
X385112Y410764D01*
X389176D01*
X387144Y406700D01*
Y388150D02*
X385112Y392214D01*
X389176D01*
X387144Y388150D01*
Y364660D02*
X385112Y368724D01*
X389176D01*
X387144Y364660D01*
Y346110D02*
X385112Y350174D01*
X389176D01*
X387144Y346110D01*
Y322620D02*
X385112Y326684D01*
X389176D01*
X387144Y322620D01*
Y304070D02*
X385112Y308134D01*
X389176D01*
X387144Y304070D01*
X428484D02*
X426452Y308134D01*
X430516D01*
X428484Y304070D01*
Y322620D02*
X426452Y326684D01*
X430516D01*
X428484Y322620D01*
Y346110D02*
X426452Y350174D01*
X430516D01*
X428484Y346110D01*
Y364660D02*
X426452Y368724D01*
X430516D01*
X428484Y364660D01*
Y388150D02*
X426452Y392214D01*
X430516D01*
X428484Y388150D01*
Y406700D02*
X426452Y410764D01*
X430516D01*
X428484Y406700D01*
X511163Y322620D02*
X509131Y326684D01*
X513195D01*
X511163Y322620D01*
Y346110D02*
X509131Y350174D01*
X513195D01*
X511163Y346110D01*
Y364660D02*
X509131Y368724D01*
X513195D01*
X511163Y364660D01*
Y388150D02*
X509131Y392214D01*
X513195D01*
X511163Y388150D01*
Y406700D02*
X509131Y410764D01*
X513195D01*
X511163Y406700D01*
Y911180D02*
X509131Y915244D01*
X513195D01*
X511163Y911180D01*
X469823D02*
X467791Y915244D01*
X471856D01*
X469823Y911180D01*
X387144D02*
X385112Y915244D01*
X389176D01*
X387144Y911180D01*
X428779Y911405D02*
X426747Y915469D01*
X430811D01*
X428779Y911405D01*
X469823Y892630D02*
X467791Y896694D01*
X471856D01*
X469823Y892630D01*
X345804Y869140D02*
X343772Y873204D01*
X347836D01*
X345804Y869140D01*
Y892630D02*
X343772Y896694D01*
X347836D01*
X345804Y892630D01*
Y911180D02*
X343772Y915244D01*
X347836D01*
X345804Y911180D01*
X387144Y869140D02*
X385112Y873204D01*
X389176D01*
X387144Y869140D01*
Y850590D02*
X385112Y854654D01*
X389176D01*
X387144Y850590D01*
Y827100D02*
X385112Y831164D01*
X389176D01*
X387144Y827100D01*
X221784Y322620D02*
X219752Y326684D01*
X223816D01*
X221784Y322620D01*
X263124Y556310D02*
X261092Y560374D01*
X265156D01*
X263124Y556310D01*
Y574860D02*
X261092Y578924D01*
X265156D01*
X263124Y574860D01*
Y598350D02*
X261092Y602414D01*
X265156D01*
X263124Y598350D01*
Y616900D02*
X261092Y620964D01*
X265156D01*
X263124Y616900D01*
Y640390D02*
X261092Y644454D01*
X265156D01*
X263124Y640390D01*
Y658940D02*
X261092Y663004D01*
X265156D01*
X263124Y658940D01*
Y682430D02*
X261092Y686494D01*
X265156D01*
X263124Y682430D01*
Y700980D02*
X261092Y705044D01*
X265156D01*
X263124Y700980D01*
Y724470D02*
X261092Y728534D01*
X265156D01*
X263124Y724470D01*
Y827100D02*
X261092Y831164D01*
X265156D01*
X263124Y827100D01*
Y850590D02*
X261092Y854654D01*
X265156D01*
X263124Y850590D01*
Y869140D02*
X261092Y873204D01*
X265156D01*
X263124Y869140D01*
Y743020D02*
X261092Y747084D01*
X265156D01*
X263124Y743020D01*
Y766510D02*
X261092Y770574D01*
X265156D01*
X263124Y766510D01*
Y785060D02*
X261092Y789124D01*
X265156D01*
X263124Y785060D01*
X221784Y346110D02*
X219752Y350174D01*
X223816D01*
X221784Y346110D01*
Y364660D02*
X219752Y368724D01*
X223816D01*
X221784Y364660D01*
Y388150D02*
X219752Y392214D01*
X223816D01*
X221784Y388150D01*
Y406700D02*
X219752Y410764D01*
X223816D01*
X221784Y406700D01*
X345804Y616900D02*
X343772Y620964D01*
X347836D01*
X345804Y616900D01*
Y640390D02*
X343772Y644454D01*
X347836D01*
X345804Y640390D01*
Y658940D02*
X343772Y663004D01*
X347836D01*
X345804Y658940D01*
Y682430D02*
X343772Y686494D01*
X347836D01*
X345804Y682430D01*
Y700980D02*
X343772Y705044D01*
X347836D01*
X345804Y700980D01*
Y724470D02*
X343772Y728534D01*
X347836D01*
X345804Y724470D01*
X346037Y743238D02*
X344005Y747302D01*
X348069D01*
X346037Y743238D01*
X345804Y766510D02*
X343772Y770574D01*
X347836D01*
X345804Y766510D01*
Y808550D02*
X343772Y812614D01*
X347836D01*
X345804Y808550D01*
Y827100D02*
X343772Y831164D01*
X347836D01*
X345804Y827100D01*
Y850590D02*
X343772Y854654D01*
X347836D01*
X345804Y850590D01*
X221784Y430190D02*
X219752Y434254D01*
X223816D01*
X221784Y430190D01*
Y448740D02*
X219752Y452804D01*
X223816D01*
X221784Y448740D01*
Y490780D02*
X219752Y494844D01*
X223816D01*
X221784Y490780D01*
X387144Y743020D02*
X385112Y747084D01*
X389176D01*
X387144Y743020D01*
Y808550D02*
X385112Y812614D01*
X389176D01*
X387144Y808550D01*
Y785060D02*
X385112Y789124D01*
X389176D01*
X387144Y785060D01*
Y766510D02*
X385112Y770574D01*
X389176D01*
X387144Y766510D01*
Y658940D02*
X385112Y663004D01*
X389176D01*
X387144Y658940D01*
Y724470D02*
X385112Y728534D01*
X389176D01*
X387144Y724470D01*
Y700980D02*
X385112Y705044D01*
X389176D01*
X387144Y700980D01*
Y682430D02*
X385112Y686494D01*
X389176D01*
X387144Y682430D01*
Y574860D02*
X385112Y578924D01*
X389176D01*
X387144Y574860D01*
Y640390D02*
X385112Y644454D01*
X389176D01*
X387144Y640390D01*
Y616900D02*
X385112Y620964D01*
X389176D01*
X387144Y616900D01*
Y598350D02*
X385112Y602414D01*
X389176D01*
X387144Y598350D01*
Y556310D02*
X385112Y560374D01*
X389176D01*
X387144Y556310D01*
Y532820D02*
X385112Y536884D01*
X389176D01*
X387144Y532820D01*
Y514270D02*
X385112Y518334D01*
X389176D01*
X387144Y514270D01*
Y490780D02*
X385112Y494844D01*
X389176D01*
X387144Y490780D01*
Y472230D02*
X385112Y476294D01*
X389176D01*
X387144Y472230D01*
Y448740D02*
X385112Y452804D01*
X389176D01*
X387144Y448740D01*
Y430190D02*
X385112Y434254D01*
X389176D01*
X387144Y430190D01*
X221784Y514270D02*
X219752Y518334D01*
X223816D01*
X221784Y514270D01*
Y532820D02*
X219752Y536884D01*
X223816D01*
X221784Y532820D01*
Y556310D02*
X219752Y560374D01*
X223816D01*
X221784Y556310D01*
Y574860D02*
X219752Y578924D01*
X223816D01*
X221784Y574860D01*
X428484Y640390D02*
X426452Y644454D01*
X430516D01*
X428484Y640390D01*
Y658940D02*
X426452Y663004D01*
X430516D01*
X428484Y658940D01*
Y682430D02*
X426452Y686494D01*
X430516D01*
X428484Y682430D01*
Y700980D02*
X426452Y705044D01*
X430516D01*
X428484Y700980D01*
Y724470D02*
X426452Y728534D01*
X430516D01*
X428484Y724470D01*
Y743020D02*
X426452Y747084D01*
X430516D01*
X428484Y743020D01*
Y766510D02*
X426452Y770574D01*
X430516D01*
X428484Y766510D01*
Y785060D02*
X426452Y789124D01*
X430516D01*
X428484Y785060D01*
Y827100D02*
X426452Y831164D01*
X430516D01*
X428484Y827100D01*
Y850590D02*
X426452Y854654D01*
X430516D01*
X428484Y850590D01*
Y869140D02*
X426452Y873204D01*
X430516D01*
X428484Y869140D01*
X304464Y556310D02*
X302432Y560374D01*
X306496D01*
X304464Y556310D01*
X345804D02*
X343772Y560374D01*
X347836D01*
X345804Y556310D01*
Y574860D02*
X343772Y578924D01*
X347836D01*
X345804Y574860D01*
Y598350D02*
X343772Y602414D01*
X347836D01*
X345804Y598350D01*
X221784D02*
X219752Y602414D01*
X223816D01*
X221784Y598350D01*
Y616900D02*
X219752Y620964D01*
X223816D01*
X221784Y616900D01*
Y640390D02*
X219752Y644454D01*
X223816D01*
X221784Y640390D01*
Y658940D02*
X219752Y663004D01*
X223816D01*
X221784Y658940D01*
X304464Y574860D02*
X302432Y578924D01*
X306496D01*
X304464Y574860D01*
Y640390D02*
X302432Y644454D01*
X306496D01*
X304464Y640390D01*
Y616900D02*
X302432Y620964D01*
X306496D01*
X304464Y616900D01*
Y598350D02*
X302432Y602414D01*
X306496D01*
X304464Y598350D01*
X428484Y556310D02*
X426452Y560374D01*
X430516D01*
X428484Y556310D01*
Y574860D02*
X426452Y578924D01*
X430516D01*
X428484Y574860D01*
Y598350D02*
X426452Y602414D01*
X430516D01*
X428484Y598350D01*
Y616900D02*
X426452Y620964D01*
X430516D01*
X428484Y616900D01*
X221784Y700980D02*
X219752Y705044D01*
X223816D01*
X221784Y700980D01*
Y724470D02*
X219752Y728534D01*
X223816D01*
X221784Y724470D01*
Y743020D02*
X219752Y747084D01*
X223816D01*
X221784Y743020D01*
X263124Y911180D02*
X261092Y915244D01*
X265156D01*
X263124Y911180D01*
X304464D02*
X302432Y915244D01*
X306496D01*
X304464Y911180D01*
Y892630D02*
X302432Y896694D01*
X306496D01*
X304464Y892630D01*
Y850590D02*
X302432Y854654D01*
X306496D01*
X304464Y850590D01*
Y869140D02*
X302432Y873204D01*
X306496D01*
X304464Y869140D01*
Y827100D02*
X302432Y831164D01*
X306496D01*
X304464Y827100D01*
Y808550D02*
X302432Y812614D01*
X306496D01*
X304464Y808550D01*
Y785060D02*
X302432Y789124D01*
X306496D01*
X304464Y785060D01*
Y766510D02*
X302432Y770574D01*
X306496D01*
X304464Y766510D01*
Y743020D02*
X302432Y747084D01*
X306496D01*
X304464Y743020D01*
X221784Y850590D02*
X219752Y854654D01*
X223816D01*
X221784Y850590D01*
Y682430D02*
X219752Y686494D01*
X223816D01*
X221784Y682430D01*
Y766510D02*
X219752Y770574D01*
X223816D01*
X221784Y766510D01*
Y808550D02*
X219752Y812614D01*
X223816D01*
X221784Y808550D01*
Y827100D02*
X219752Y831164D01*
X223816D01*
X221784Y827100D01*
Y869140D02*
X219752Y873204D01*
X223816D01*
X221784Y869140D01*
Y892630D02*
X219752Y896694D01*
X223816D01*
X221784Y892630D01*
Y911180D02*
X219752Y915244D01*
X223816D01*
X221784Y911180D01*
X304464Y658940D02*
X302432Y663004D01*
X306496D01*
X304464Y658940D01*
Y724470D02*
X302432Y728534D01*
X306496D01*
X304464Y724470D01*
Y700980D02*
X302432Y705044D01*
X306496D01*
X304464Y700980D01*
Y682430D02*
X302432Y686494D01*
X306496D01*
X304464Y682430D01*
X428484Y892630D02*
X426452Y896694D01*
X430516D01*
X428484Y892630D01*
Y808550D02*
X426452Y812614D01*
X430516D01*
X428484Y808550D01*
X469823Y658940D02*
X467791Y663004D01*
X471856D01*
X469823Y658940D01*
Y640390D02*
X467791Y644454D01*
X471856D01*
X469823Y640390D01*
Y869140D02*
X467791Y873204D01*
X471856D01*
X469823Y869140D01*
X469823Y852710D02*
X467791Y856774D01*
X471855D01*
X469823Y852710D01*
X469823Y827100D02*
X467791Y831164D01*
X471856D01*
X469823Y827100D01*
Y808550D02*
X467791Y812614D01*
X471856D01*
X469823Y808550D01*
Y743020D02*
X467791Y747084D01*
X471856D01*
X469823Y743020D01*
Y724470D02*
X467791Y728534D01*
X471856D01*
X469823Y724470D01*
Y700980D02*
X467791Y705044D01*
X471856D01*
X469823Y700980D01*
X263124Y892630D02*
X261092Y896694D01*
X265156D01*
X263124Y892630D01*
X511163Y785060D02*
X509131Y789124D01*
X513195D01*
X511163Y785060D01*
Y808550D02*
X509131Y812614D01*
X513195D01*
X511163Y808550D01*
Y827100D02*
X509131Y831164D01*
X513195D01*
X511163Y827100D01*
Y850590D02*
X509131Y854654D01*
X513195D01*
X511163Y850590D01*
Y869140D02*
X509131Y873204D01*
X513195D01*
X511163Y869140D01*
Y892630D02*
X509131Y896694D01*
X513195D01*
X511163Y892630D01*
Y556310D02*
X509131Y560374D01*
X513195D01*
X511163Y556310D01*
X469823Y598350D02*
X467791Y602414D01*
X471856D01*
X469823Y598350D01*
Y574860D02*
X467791Y578924D01*
X471856D01*
X469823Y574860D01*
X511163D02*
X509131Y578924D01*
X513195D01*
X511163Y574860D01*
Y598350D02*
X509131Y602414D01*
X513195D01*
X511163Y598350D01*
Y616900D02*
X509131Y620964D01*
X513195D01*
X511163Y616900D01*
Y640390D02*
X509131Y644454D01*
X513195D01*
X511163Y640390D01*
Y658940D02*
X509131Y663004D01*
X513195D01*
X511163Y658940D01*
Y682430D02*
X509131Y686494D01*
X513195D01*
X511163Y682430D01*
Y700980D02*
X509131Y705044D01*
X513195D01*
X511163Y700980D01*
Y724470D02*
X509131Y728534D01*
X513195D01*
X511163Y724470D01*
Y743020D02*
X509131Y747084D01*
X513195D01*
X511163Y743020D01*
Y766510D02*
X509131Y770574D01*
X513195D01*
X511163Y766510D01*
X387144Y892630D02*
X385112Y896694D01*
X389176D01*
X387144Y892630D01*
X469823Y556310D02*
X467791Y560374D01*
X471856D01*
X469823Y556310D01*
Y616900D02*
X467791Y620964D01*
X471856D01*
X469823Y616900D01*
Y785060D02*
X467791Y789124D01*
X471856D01*
X469823Y785060D01*
X221784D02*
X219752Y789124D01*
X223816D01*
X221784Y785060D01*
X263124Y808550D02*
X261092Y812614D01*
X265156D01*
X263124Y808550D01*
X345804Y785060D02*
X343772Y789124D01*
X347836D01*
X345804Y785060D01*
X469823Y766510D02*
X467791Y770574D01*
X471856D01*
X469823Y766510D01*
Y682430D02*
X467791Y686494D01*
X471856D01*
X469823Y682430D01*
M02*
