G04*
G04 #@! TF.GenerationSoftware,Altium Limited,Altium Designer,23.8.1 (32)*
G04*
G04 Layer_Physical_Order=2*
G04 Layer_Color=16711680*
%FSLAX44Y44*%
%MOMM*%
G71*
G04*
G04 #@! TF.SameCoordinates,2FF213BD-71F3-435E-98A3-311B6935AF75*
G04*
G04*
G04 #@! TF.FilePolarity,Positive*
G04*
G01*
G75*
%ADD32C,0.5000*%
%ADD33C,0.1500*%
%ADD44R,1.3700X1.3700*%
%ADD45C,1.3700*%
%ADD46C,0.5000*%
G36*
X430692Y911827D02*
X430443Y911509D01*
X430220Y911176D01*
X430023Y910830D01*
X429853Y910469D01*
X429709Y910095D01*
X429591Y909706D01*
X429499Y909303D01*
X429434Y908886D01*
X429394Y908456D01*
X429381Y908011D01*
X427881Y908104D01*
X427870Y908569D01*
X427782Y909444D01*
X427705Y909855D01*
X427607Y910246D01*
X427486Y910620D01*
X427343Y910976D01*
X427178Y911313D01*
X426991Y911632D01*
X426783Y911932D01*
X430692Y911827D01*
D02*
G37*
G36*
X554229Y911343D02*
X554025Y911017D01*
X553844Y910674D01*
X553687Y910316D01*
X553554Y909941D01*
X553446Y909550D01*
X553362Y909144D01*
X553302Y908721D01*
X553265Y908282D01*
X553253Y907827D01*
X551753D01*
X551741Y908282D01*
X551705Y908721D01*
X551645Y909144D01*
X551561Y909550D01*
X551452Y909941D01*
X551320Y910316D01*
X551163Y910674D01*
X550982Y911017D01*
X550777Y911343D01*
X550548Y911654D01*
X554458D01*
X554229Y911343D01*
D02*
G37*
G36*
X512889D02*
X512685Y911017D01*
X512504Y910674D01*
X512347Y910316D01*
X512215Y909941D01*
X512106Y909550D01*
X512022Y909144D01*
X511962Y908721D01*
X511925Y908282D01*
X511913Y907827D01*
X510413D01*
X510401Y908282D01*
X510365Y908721D01*
X510305Y909144D01*
X510221Y909550D01*
X510112Y909941D01*
X509980Y910316D01*
X509823Y910674D01*
X509642Y911017D01*
X509437Y911343D01*
X509208Y911654D01*
X513118D01*
X512889Y911343D01*
D02*
G37*
G36*
X471549D02*
X471345Y911017D01*
X471164Y910674D01*
X471007Y910316D01*
X470875Y909941D01*
X470766Y909550D01*
X470682Y909144D01*
X470622Y908721D01*
X470586Y908282D01*
X470574Y907827D01*
X469073D01*
X469061Y908282D01*
X469025Y908721D01*
X468965Y909144D01*
X468881Y909550D01*
X468772Y909941D01*
X468640Y910316D01*
X468483Y910674D01*
X468302Y911017D01*
X468097Y911343D01*
X467868Y911654D01*
X471778D01*
X471549Y911343D01*
D02*
G37*
G36*
X388870D02*
X388665Y911017D01*
X388484Y910674D01*
X388327Y910316D01*
X388195Y909941D01*
X388087Y909550D01*
X388002Y909144D01*
X387942Y908721D01*
X387906Y908282D01*
X387894Y907827D01*
X386394D01*
X386382Y908282D01*
X386345Y908721D01*
X386285Y909144D01*
X386201Y909550D01*
X386092Y909941D01*
X385960Y910316D01*
X385803Y910674D01*
X385622Y911017D01*
X385418Y911343D01*
X385189Y911654D01*
X389099D01*
X388870Y911343D01*
D02*
G37*
G36*
X347530D02*
X347325Y911017D01*
X347144Y910674D01*
X346988Y910316D01*
X346855Y909941D01*
X346747Y909550D01*
X346662Y909144D01*
X346602Y908721D01*
X346566Y908282D01*
X346554Y907827D01*
X345054D01*
X345042Y908282D01*
X345006Y908721D01*
X344945Y909144D01*
X344861Y909550D01*
X344753Y909941D01*
X344620Y910316D01*
X344463Y910674D01*
X344283Y911017D01*
X344078Y911343D01*
X343849Y911654D01*
X347759D01*
X347530Y911343D01*
D02*
G37*
G36*
X306190D02*
X305985Y911017D01*
X305804Y910674D01*
X305648Y910316D01*
X305515Y909941D01*
X305407Y909550D01*
X305322Y909144D01*
X305262Y908721D01*
X305226Y908282D01*
X305214Y907827D01*
X303714D01*
X303702Y908282D01*
X303666Y908721D01*
X303605Y909144D01*
X303521Y909550D01*
X303413Y909941D01*
X303280Y910316D01*
X303123Y910674D01*
X302943Y911017D01*
X302738Y911343D01*
X302509Y911654D01*
X306419D01*
X306190Y911343D01*
D02*
G37*
G36*
X264850D02*
X264645Y911017D01*
X264464Y910674D01*
X264308Y910316D01*
X264175Y909941D01*
X264067Y909550D01*
X263982Y909144D01*
X263922Y908721D01*
X263886Y908282D01*
X263874Y907827D01*
X262374D01*
X262362Y908282D01*
X262326Y908721D01*
X262265Y909144D01*
X262181Y909550D01*
X262073Y909941D01*
X261940Y910316D01*
X261784Y910674D01*
X261603Y911017D01*
X261398Y911343D01*
X261169Y911654D01*
X265079D01*
X264850Y911343D01*
D02*
G37*
G36*
X223510D02*
X223305Y911017D01*
X223125Y910674D01*
X222968Y910316D01*
X222835Y909941D01*
X222727Y909550D01*
X222642Y909144D01*
X222582Y908721D01*
X222546Y908282D01*
X222534Y907827D01*
X221034D01*
X221022Y908282D01*
X220986Y908721D01*
X220926Y909144D01*
X220841Y909550D01*
X220733Y909941D01*
X220600Y910316D01*
X220444Y910674D01*
X220263Y911017D01*
X220058Y911343D01*
X219829Y911654D01*
X223739D01*
X223510Y911343D01*
D02*
G37*
G36*
X182170D02*
X181965Y911017D01*
X181785Y910674D01*
X181628Y910316D01*
X181495Y909941D01*
X181387Y909550D01*
X181303Y909144D01*
X181242Y908721D01*
X181206Y908282D01*
X181194Y907827D01*
X179694D01*
X179682Y908282D01*
X179646Y908721D01*
X179586Y909144D01*
X179501Y909550D01*
X179393Y909941D01*
X179260Y910316D01*
X179104Y910674D01*
X178923Y911017D01*
X178718Y911343D01*
X178489Y911654D01*
X182399D01*
X182170Y911343D01*
D02*
G37*
G36*
X553265Y899592D02*
X553302Y899153D01*
X553362Y898730D01*
X553446Y898323D01*
X553554Y897933D01*
X553687Y897558D01*
X553844Y897199D01*
X554025Y896857D01*
X554229Y896531D01*
X554458Y896220D01*
X550548D01*
X550777Y896531D01*
X550982Y896857D01*
X551163Y897199D01*
X551320Y897558D01*
X551452Y897933D01*
X551561Y898323D01*
X551645Y898730D01*
X551705Y899153D01*
X551741Y899592D01*
X551753Y900047D01*
X553253D01*
X553265Y899592D01*
D02*
G37*
G36*
X511925D02*
X511962Y899153D01*
X512022Y898730D01*
X512106Y898323D01*
X512215Y897933D01*
X512347Y897558D01*
X512504Y897199D01*
X512685Y896857D01*
X512889Y896531D01*
X513118Y896220D01*
X509208D01*
X509437Y896531D01*
X509642Y896857D01*
X509823Y897199D01*
X509980Y897558D01*
X510112Y897933D01*
X510221Y898323D01*
X510305Y898730D01*
X510365Y899153D01*
X510401Y899592D01*
X510413Y900047D01*
X511913D01*
X511925Y899592D01*
D02*
G37*
G36*
X470586D02*
X470622Y899153D01*
X470682Y898730D01*
X470766Y898323D01*
X470875Y897933D01*
X471007Y897558D01*
X471164Y897199D01*
X471345Y896857D01*
X471549Y896531D01*
X471778Y896220D01*
X467868D01*
X468097Y896531D01*
X468302Y896857D01*
X468483Y897199D01*
X468640Y897558D01*
X468772Y897933D01*
X468881Y898323D01*
X468965Y898730D01*
X469025Y899153D01*
X469061Y899592D01*
X469073Y900047D01*
X470574D01*
X470586Y899592D01*
D02*
G37*
G36*
X387906D02*
X387942Y899153D01*
X388002Y898730D01*
X388087Y898323D01*
X388195Y897933D01*
X388327Y897558D01*
X388484Y897199D01*
X388665Y896857D01*
X388870Y896531D01*
X389099Y896220D01*
X385189D01*
X385418Y896531D01*
X385622Y896857D01*
X385803Y897199D01*
X385960Y897558D01*
X386092Y897933D01*
X386201Y898323D01*
X386285Y898730D01*
X386345Y899153D01*
X386382Y899592D01*
X386394Y900047D01*
X387894D01*
X387906Y899592D01*
D02*
G37*
G36*
X346566D02*
X346602Y899153D01*
X346662Y898730D01*
X346747Y898323D01*
X346855Y897933D01*
X346988Y897558D01*
X347144Y897199D01*
X347325Y896857D01*
X347530Y896531D01*
X347759Y896220D01*
X343849D01*
X344078Y896531D01*
X344283Y896857D01*
X344463Y897199D01*
X344620Y897558D01*
X344753Y897933D01*
X344861Y898323D01*
X344945Y898730D01*
X345006Y899153D01*
X345042Y899592D01*
X345054Y900047D01*
X346554D01*
X346566Y899592D01*
D02*
G37*
G36*
X305226D02*
X305262Y899153D01*
X305322Y898730D01*
X305407Y898323D01*
X305515Y897933D01*
X305648Y897558D01*
X305804Y897199D01*
X305985Y896857D01*
X306190Y896531D01*
X306419Y896220D01*
X302509D01*
X302738Y896531D01*
X302943Y896857D01*
X303123Y897199D01*
X303280Y897558D01*
X303413Y897933D01*
X303521Y898323D01*
X303605Y898730D01*
X303666Y899153D01*
X303702Y899592D01*
X303714Y900047D01*
X305214D01*
X305226Y899592D01*
D02*
G37*
G36*
X263886D02*
X263922Y899153D01*
X263982Y898730D01*
X264067Y898323D01*
X264175Y897933D01*
X264308Y897558D01*
X264464Y897199D01*
X264645Y896857D01*
X264850Y896531D01*
X265079Y896220D01*
X261169D01*
X261398Y896531D01*
X261603Y896857D01*
X261784Y897199D01*
X261940Y897558D01*
X262073Y897933D01*
X262181Y898323D01*
X262265Y898730D01*
X262326Y899153D01*
X262362Y899592D01*
X262374Y900047D01*
X263874D01*
X263886Y899592D01*
D02*
G37*
G36*
X222546D02*
X222582Y899153D01*
X222642Y898730D01*
X222727Y898323D01*
X222835Y897933D01*
X222968Y897558D01*
X223125Y897199D01*
X223305Y896857D01*
X223510Y896531D01*
X223739Y896220D01*
X219829D01*
X220058Y896531D01*
X220263Y896857D01*
X220444Y897199D01*
X220600Y897558D01*
X220733Y897933D01*
X220841Y898323D01*
X220926Y898730D01*
X220986Y899153D01*
X221022Y899592D01*
X221034Y900047D01*
X222534D01*
X222546Y899592D01*
D02*
G37*
G36*
X181206D02*
X181242Y899153D01*
X181303Y898730D01*
X181387Y898323D01*
X181495Y897933D01*
X181628Y897558D01*
X181785Y897199D01*
X181965Y896857D01*
X182170Y896531D01*
X182399Y896220D01*
X178489D01*
X178718Y896531D01*
X178923Y896857D01*
X179104Y897199D01*
X179260Y897558D01*
X179393Y897933D01*
X179501Y898323D01*
X179586Y898730D01*
X179646Y899153D01*
X179682Y899592D01*
X179694Y900047D01*
X181194D01*
X181206Y899592D01*
D02*
G37*
G36*
X429381Y899995D02*
X429392Y899530D01*
X429480Y898655D01*
X429557Y898245D01*
X429656Y897853D01*
X429777Y897479D01*
X429920Y897123D01*
X430084Y896786D01*
X430271Y896467D01*
X430480Y896167D01*
X426571Y896272D01*
X426820Y896590D01*
X427043Y896923D01*
X427239Y897269D01*
X427410Y897630D01*
X427554Y898004D01*
X427672Y898393D01*
X427763Y898796D01*
X427829Y899212D01*
X427868Y899643D01*
X427881Y900088D01*
X429381Y899995D01*
D02*
G37*
G36*
X554229Y869303D02*
X554025Y868977D01*
X553844Y868634D01*
X553687Y868276D01*
X553554Y867901D01*
X553446Y867511D01*
X553362Y867104D01*
X553302Y866681D01*
X553265Y866242D01*
X553253Y865787D01*
X551753D01*
X551741Y866242D01*
X551705Y866681D01*
X551645Y867104D01*
X551561Y867511D01*
X551452Y867901D01*
X551320Y868276D01*
X551163Y868634D01*
X550982Y868977D01*
X550777Y869303D01*
X550548Y869614D01*
X554458D01*
X554229Y869303D01*
D02*
G37*
G36*
X512889D02*
X512685Y868977D01*
X512504Y868634D01*
X512347Y868276D01*
X512215Y867901D01*
X512106Y867511D01*
X512022Y867104D01*
X511962Y866681D01*
X511925Y866242D01*
X511913Y865787D01*
X510413D01*
X510401Y866242D01*
X510365Y866681D01*
X510305Y867104D01*
X510221Y867511D01*
X510112Y867901D01*
X509980Y868276D01*
X509823Y868634D01*
X509642Y868977D01*
X509437Y869303D01*
X509208Y869614D01*
X513118D01*
X512889Y869303D01*
D02*
G37*
G36*
X430210D02*
X430005Y868977D01*
X429824Y868634D01*
X429667Y868276D01*
X429535Y867901D01*
X429426Y867511D01*
X429342Y867104D01*
X429282Y866681D01*
X429246Y866242D01*
X429234Y865787D01*
X427734D01*
X427721Y866242D01*
X427685Y866681D01*
X427625Y867104D01*
X427541Y867511D01*
X427432Y867901D01*
X427300Y868276D01*
X427143Y868634D01*
X426962Y868977D01*
X426758Y869303D01*
X426529Y869614D01*
X430439D01*
X430210Y869303D01*
D02*
G37*
G36*
X388870D02*
X388665Y868977D01*
X388484Y868634D01*
X388327Y868276D01*
X388195Y867901D01*
X388087Y867511D01*
X388002Y867104D01*
X387942Y866681D01*
X387906Y866242D01*
X387894Y865787D01*
X386394D01*
X386382Y866242D01*
X386345Y866681D01*
X386285Y867104D01*
X386201Y867511D01*
X386092Y867901D01*
X385960Y868276D01*
X385803Y868634D01*
X385622Y868977D01*
X385418Y869303D01*
X385189Y869614D01*
X389099D01*
X388870Y869303D01*
D02*
G37*
G36*
X347530D02*
X347325Y868977D01*
X347144Y868634D01*
X346988Y868276D01*
X346855Y867901D01*
X346747Y867511D01*
X346662Y867104D01*
X346602Y866681D01*
X346566Y866242D01*
X346554Y865787D01*
X345054D01*
X345042Y866242D01*
X345006Y866681D01*
X344945Y867104D01*
X344861Y867511D01*
X344753Y867901D01*
X344620Y868276D01*
X344463Y868634D01*
X344283Y868977D01*
X344078Y869303D01*
X343849Y869614D01*
X347759D01*
X347530Y869303D01*
D02*
G37*
G36*
X306190D02*
X305985Y868977D01*
X305804Y868634D01*
X305648Y868276D01*
X305515Y867901D01*
X305407Y867511D01*
X305322Y867104D01*
X305262Y866681D01*
X305226Y866242D01*
X305214Y865787D01*
X303714D01*
X303702Y866242D01*
X303666Y866681D01*
X303605Y867104D01*
X303521Y867511D01*
X303413Y867901D01*
X303280Y868276D01*
X303123Y868634D01*
X302943Y868977D01*
X302738Y869303D01*
X302509Y869614D01*
X306419D01*
X306190Y869303D01*
D02*
G37*
G36*
X264850D02*
X264645Y868977D01*
X264464Y868634D01*
X264308Y868276D01*
X264175Y867901D01*
X264067Y867511D01*
X263982Y867104D01*
X263922Y866681D01*
X263886Y866242D01*
X263874Y865787D01*
X262374D01*
X262362Y866242D01*
X262326Y866681D01*
X262265Y867104D01*
X262181Y867511D01*
X262073Y867901D01*
X261940Y868276D01*
X261784Y868634D01*
X261603Y868977D01*
X261398Y869303D01*
X261169Y869614D01*
X265079D01*
X264850Y869303D01*
D02*
G37*
G36*
X223510D02*
X223305Y868977D01*
X223125Y868634D01*
X222968Y868276D01*
X222835Y867901D01*
X222727Y867511D01*
X222642Y867104D01*
X222582Y866681D01*
X222546Y866242D01*
X222534Y865787D01*
X221034D01*
X221022Y866242D01*
X220986Y866681D01*
X220926Y867104D01*
X220841Y867511D01*
X220733Y867901D01*
X220600Y868276D01*
X220444Y868634D01*
X220263Y868977D01*
X220058Y869303D01*
X219829Y869614D01*
X223739D01*
X223510Y869303D01*
D02*
G37*
G36*
X182170D02*
X181965Y868977D01*
X181785Y868634D01*
X181628Y868276D01*
X181495Y867901D01*
X181387Y867511D01*
X181303Y867104D01*
X181242Y866681D01*
X181206Y866242D01*
X181194Y865787D01*
X179694D01*
X179682Y866242D01*
X179646Y866681D01*
X179586Y867104D01*
X179501Y867511D01*
X179393Y867901D01*
X179260Y868276D01*
X179104Y868634D01*
X178923Y868977D01*
X178718Y869303D01*
X178489Y869614D01*
X182399D01*
X182170Y869303D01*
D02*
G37*
G36*
X471778Y869614D02*
X471549Y869303D01*
X471345Y868977D01*
X471164Y868634D01*
X471007Y868276D01*
X470875Y867901D01*
X470766Y867510D01*
X470682Y867104D01*
X470622Y866681D01*
X470586Y866242D01*
X470574Y865787D01*
X469073Y865787D01*
X469061Y866242D01*
X469025Y866681D01*
X468965Y867104D01*
X468881Y867511D01*
X468772Y867901D01*
X468640Y868276D01*
X468483Y868634D01*
X468302Y868977D01*
X468097Y869303D01*
X467868Y869614D01*
X471778Y869614D01*
D02*
G37*
G36*
X470574Y860127D02*
X470586Y859672D01*
X470622Y859233D01*
X470682Y858810D01*
X470766Y858403D01*
X470875Y858013D01*
X471007Y857638D01*
X471164Y857280D01*
X471345Y856937D01*
X471549Y856610D01*
X471778Y856300D01*
X467868Y856300D01*
X468097Y856610D01*
X468302Y856937D01*
X468483Y857280D01*
X468640Y857638D01*
X468772Y858013D01*
X468881Y858403D01*
X468965Y858810D01*
X469025Y859233D01*
X469061Y859672D01*
X469073Y860127D01*
X470574Y860127D01*
D02*
G37*
G36*
X553265Y857552D02*
X553302Y857113D01*
X553362Y856690D01*
X553446Y856283D01*
X553554Y855893D01*
X553687Y855518D01*
X553844Y855160D01*
X554025Y854817D01*
X554229Y854491D01*
X554458Y854180D01*
X550548D01*
X550777Y854491D01*
X550982Y854817D01*
X551163Y855160D01*
X551320Y855518D01*
X551452Y855893D01*
X551561Y856283D01*
X551645Y856690D01*
X551705Y857113D01*
X551741Y857552D01*
X551753Y858007D01*
X553253D01*
X553265Y857552D01*
D02*
G37*
G36*
X511925D02*
X511962Y857113D01*
X512022Y856690D01*
X512106Y856283D01*
X512215Y855893D01*
X512347Y855518D01*
X512504Y855160D01*
X512685Y854817D01*
X512889Y854491D01*
X513118Y854180D01*
X509208D01*
X509437Y854491D01*
X509642Y854817D01*
X509823Y855160D01*
X509980Y855518D01*
X510112Y855893D01*
X510221Y856283D01*
X510305Y856690D01*
X510365Y857113D01*
X510401Y857552D01*
X510413Y858007D01*
X511913D01*
X511925Y857552D01*
D02*
G37*
G36*
X429246D02*
X429282Y857113D01*
X429342Y856690D01*
X429426Y856283D01*
X429535Y855893D01*
X429667Y855518D01*
X429824Y855160D01*
X430005Y854817D01*
X430210Y854491D01*
X430439Y854180D01*
X426529D01*
X426758Y854491D01*
X426962Y854817D01*
X427143Y855160D01*
X427300Y855518D01*
X427432Y855893D01*
X427541Y856283D01*
X427625Y856690D01*
X427685Y857113D01*
X427721Y857552D01*
X427734Y858007D01*
X429234D01*
X429246Y857552D01*
D02*
G37*
G36*
X387906D02*
X387942Y857113D01*
X388002Y856690D01*
X388087Y856283D01*
X388195Y855893D01*
X388327Y855518D01*
X388484Y855160D01*
X388665Y854817D01*
X388870Y854491D01*
X389099Y854180D01*
X385189D01*
X385418Y854491D01*
X385622Y854817D01*
X385803Y855160D01*
X385960Y855518D01*
X386092Y855893D01*
X386201Y856283D01*
X386285Y856690D01*
X386345Y857113D01*
X386382Y857552D01*
X386394Y858007D01*
X387894D01*
X387906Y857552D01*
D02*
G37*
G36*
X346566D02*
X346602Y857113D01*
X346662Y856690D01*
X346747Y856283D01*
X346855Y855893D01*
X346988Y855518D01*
X347144Y855160D01*
X347325Y854817D01*
X347530Y854491D01*
X347759Y854180D01*
X343849D01*
X344078Y854491D01*
X344283Y854817D01*
X344463Y855160D01*
X344620Y855518D01*
X344753Y855893D01*
X344861Y856283D01*
X344945Y856690D01*
X345006Y857113D01*
X345042Y857552D01*
X345054Y858007D01*
X346554D01*
X346566Y857552D01*
D02*
G37*
G36*
X305226D02*
X305262Y857113D01*
X305322Y856690D01*
X305407Y856283D01*
X305515Y855893D01*
X305648Y855518D01*
X305804Y855160D01*
X305985Y854817D01*
X306190Y854491D01*
X306419Y854180D01*
X302509D01*
X302738Y854491D01*
X302943Y854817D01*
X303123Y855160D01*
X303280Y855518D01*
X303413Y855893D01*
X303521Y856283D01*
X303605Y856690D01*
X303666Y857113D01*
X303702Y857552D01*
X303714Y858007D01*
X305214D01*
X305226Y857552D01*
D02*
G37*
G36*
X263886D02*
X263922Y857113D01*
X263982Y856690D01*
X264067Y856283D01*
X264175Y855893D01*
X264308Y855518D01*
X264464Y855160D01*
X264645Y854817D01*
X264850Y854491D01*
X265079Y854180D01*
X261169D01*
X261398Y854491D01*
X261603Y854817D01*
X261784Y855160D01*
X261940Y855518D01*
X262073Y855893D01*
X262181Y856283D01*
X262265Y856690D01*
X262326Y857113D01*
X262362Y857552D01*
X262374Y858007D01*
X263874D01*
X263886Y857552D01*
D02*
G37*
G36*
X222546D02*
X222582Y857113D01*
X222642Y856690D01*
X222727Y856283D01*
X222835Y855893D01*
X222968Y855518D01*
X223125Y855160D01*
X223305Y854817D01*
X223510Y854491D01*
X223739Y854180D01*
X219829D01*
X220058Y854491D01*
X220263Y854817D01*
X220444Y855160D01*
X220600Y855518D01*
X220733Y855893D01*
X220841Y856283D01*
X220926Y856690D01*
X220986Y857113D01*
X221022Y857552D01*
X221034Y858007D01*
X222534D01*
X222546Y857552D01*
D02*
G37*
G36*
X181206D02*
X181242Y857113D01*
X181303Y856690D01*
X181387Y856283D01*
X181495Y855893D01*
X181628Y855518D01*
X181785Y855160D01*
X181965Y854817D01*
X182170Y854491D01*
X182399Y854180D01*
X178489D01*
X178718Y854491D01*
X178923Y854817D01*
X179104Y855160D01*
X179260Y855518D01*
X179393Y855893D01*
X179501Y856283D01*
X179586Y856690D01*
X179646Y857113D01*
X179682Y857552D01*
X179694Y858007D01*
X181194D01*
X181206Y857552D01*
D02*
G37*
G36*
X554229Y827263D02*
X554025Y826937D01*
X553844Y826594D01*
X553687Y826236D01*
X553554Y825861D01*
X553446Y825471D01*
X553362Y825064D01*
X553302Y824641D01*
X553265Y824202D01*
X553253Y823747D01*
X551753D01*
X551741Y824202D01*
X551705Y824641D01*
X551645Y825064D01*
X551561Y825471D01*
X551452Y825861D01*
X551320Y826236D01*
X551163Y826594D01*
X550982Y826937D01*
X550777Y827263D01*
X550548Y827574D01*
X554458D01*
X554229Y827263D01*
D02*
G37*
G36*
X512889D02*
X512685Y826937D01*
X512504Y826594D01*
X512347Y826236D01*
X512215Y825861D01*
X512106Y825471D01*
X512022Y825064D01*
X511962Y824641D01*
X511925Y824202D01*
X511913Y823747D01*
X510413D01*
X510401Y824202D01*
X510365Y824641D01*
X510305Y825064D01*
X510221Y825471D01*
X510112Y825861D01*
X509980Y826236D01*
X509823Y826594D01*
X509642Y826937D01*
X509437Y827263D01*
X509208Y827574D01*
X513118D01*
X512889Y827263D01*
D02*
G37*
G36*
X471549D02*
X471345Y826937D01*
X471164Y826594D01*
X471007Y826236D01*
X470875Y825861D01*
X470766Y825471D01*
X470682Y825064D01*
X470622Y824641D01*
X470586Y824202D01*
X470574Y823747D01*
X469073D01*
X469061Y824202D01*
X469025Y824641D01*
X468965Y825064D01*
X468881Y825471D01*
X468772Y825861D01*
X468640Y826236D01*
X468483Y826594D01*
X468302Y826937D01*
X468097Y827263D01*
X467868Y827574D01*
X471778D01*
X471549Y827263D01*
D02*
G37*
G36*
X430210D02*
X430005Y826937D01*
X429824Y826594D01*
X429667Y826236D01*
X429535Y825861D01*
X429426Y825471D01*
X429342Y825064D01*
X429282Y824641D01*
X429246Y824202D01*
X429234Y823747D01*
X427734D01*
X427721Y824202D01*
X427685Y824641D01*
X427625Y825064D01*
X427541Y825471D01*
X427432Y825861D01*
X427300Y826236D01*
X427143Y826594D01*
X426962Y826937D01*
X426758Y827263D01*
X426529Y827574D01*
X430439D01*
X430210Y827263D01*
D02*
G37*
G36*
X388870D02*
X388665Y826937D01*
X388484Y826594D01*
X388327Y826236D01*
X388195Y825861D01*
X388087Y825471D01*
X388002Y825064D01*
X387942Y824641D01*
X387906Y824202D01*
X387894Y823747D01*
X386394D01*
X386382Y824202D01*
X386345Y824641D01*
X386285Y825064D01*
X386201Y825471D01*
X386092Y825861D01*
X385960Y826236D01*
X385803Y826594D01*
X385622Y826937D01*
X385418Y827263D01*
X385189Y827574D01*
X389099D01*
X388870Y827263D01*
D02*
G37*
G36*
X347530D02*
X347325Y826937D01*
X347144Y826594D01*
X346988Y826236D01*
X346855Y825861D01*
X346747Y825471D01*
X346662Y825064D01*
X346602Y824641D01*
X346566Y824202D01*
X346554Y823747D01*
X345054D01*
X345042Y824202D01*
X345006Y824641D01*
X344945Y825064D01*
X344861Y825471D01*
X344753Y825861D01*
X344620Y826236D01*
X344463Y826594D01*
X344283Y826937D01*
X344078Y827263D01*
X343849Y827574D01*
X347759D01*
X347530Y827263D01*
D02*
G37*
G36*
X306190D02*
X305985Y826937D01*
X305804Y826594D01*
X305648Y826236D01*
X305515Y825861D01*
X305407Y825471D01*
X305322Y825064D01*
X305262Y824641D01*
X305226Y824202D01*
X305214Y823747D01*
X303714D01*
X303702Y824202D01*
X303666Y824641D01*
X303605Y825064D01*
X303521Y825471D01*
X303413Y825861D01*
X303280Y826236D01*
X303123Y826594D01*
X302943Y826937D01*
X302738Y827263D01*
X302509Y827574D01*
X306419D01*
X306190Y827263D01*
D02*
G37*
G36*
X264850D02*
X264645Y826937D01*
X264464Y826594D01*
X264308Y826236D01*
X264175Y825861D01*
X264067Y825471D01*
X263982Y825064D01*
X263922Y824641D01*
X263886Y824202D01*
X263874Y823747D01*
X262374D01*
X262362Y824202D01*
X262326Y824641D01*
X262265Y825064D01*
X262181Y825471D01*
X262073Y825861D01*
X261940Y826236D01*
X261784Y826594D01*
X261603Y826937D01*
X261398Y827263D01*
X261169Y827574D01*
X265079D01*
X264850Y827263D01*
D02*
G37*
G36*
X223510D02*
X223305Y826937D01*
X223125Y826594D01*
X222968Y826236D01*
X222835Y825861D01*
X222727Y825471D01*
X222642Y825064D01*
X222582Y824641D01*
X222546Y824202D01*
X222534Y823747D01*
X221034D01*
X221022Y824202D01*
X220986Y824641D01*
X220926Y825064D01*
X220841Y825471D01*
X220733Y825861D01*
X220600Y826236D01*
X220444Y826594D01*
X220263Y826937D01*
X220058Y827263D01*
X219829Y827574D01*
X223739D01*
X223510Y827263D01*
D02*
G37*
G36*
X182170D02*
X181965Y826937D01*
X181785Y826594D01*
X181628Y826236D01*
X181495Y825861D01*
X181387Y825471D01*
X181303Y825064D01*
X181242Y824641D01*
X181206Y824202D01*
X181194Y823747D01*
X179694D01*
X179682Y824202D01*
X179646Y824641D01*
X179586Y825064D01*
X179501Y825471D01*
X179393Y825861D01*
X179260Y826236D01*
X179104Y826594D01*
X178923Y826937D01*
X178718Y827263D01*
X178489Y827574D01*
X182399D01*
X182170Y827263D01*
D02*
G37*
G36*
X553265Y815512D02*
X553302Y815073D01*
X553362Y814650D01*
X553446Y814243D01*
X553554Y813853D01*
X553687Y813478D01*
X553844Y813120D01*
X554025Y812777D01*
X554229Y812450D01*
X554458Y812140D01*
X550548D01*
X550777Y812450D01*
X550982Y812777D01*
X551163Y813120D01*
X551320Y813478D01*
X551452Y813853D01*
X551561Y814243D01*
X551645Y814650D01*
X551705Y815073D01*
X551741Y815512D01*
X551753Y815967D01*
X553253D01*
X553265Y815512D01*
D02*
G37*
G36*
X511925D02*
X511962Y815073D01*
X512022Y814650D01*
X512106Y814243D01*
X512215Y813853D01*
X512347Y813478D01*
X512504Y813120D01*
X512685Y812777D01*
X512889Y812450D01*
X513118Y812140D01*
X509208D01*
X509437Y812450D01*
X509642Y812777D01*
X509823Y813120D01*
X509980Y813478D01*
X510112Y813853D01*
X510221Y814243D01*
X510305Y814650D01*
X510365Y815073D01*
X510401Y815512D01*
X510413Y815967D01*
X511913D01*
X511925Y815512D01*
D02*
G37*
G36*
X470586D02*
X470622Y815073D01*
X470682Y814650D01*
X470766Y814243D01*
X470875Y813853D01*
X471007Y813478D01*
X471164Y813120D01*
X471345Y812777D01*
X471549Y812450D01*
X471778Y812140D01*
X467868D01*
X468097Y812450D01*
X468302Y812777D01*
X468483Y813120D01*
X468640Y813478D01*
X468772Y813853D01*
X468881Y814243D01*
X468965Y814650D01*
X469025Y815073D01*
X469061Y815512D01*
X469073Y815967D01*
X470574D01*
X470586Y815512D01*
D02*
G37*
G36*
X429246D02*
X429282Y815073D01*
X429342Y814650D01*
X429426Y814243D01*
X429535Y813853D01*
X429667Y813478D01*
X429824Y813120D01*
X430005Y812777D01*
X430210Y812450D01*
X430439Y812140D01*
X426529D01*
X426758Y812450D01*
X426962Y812777D01*
X427143Y813120D01*
X427300Y813478D01*
X427432Y813853D01*
X427541Y814243D01*
X427625Y814650D01*
X427685Y815073D01*
X427721Y815512D01*
X427734Y815967D01*
X429234D01*
X429246Y815512D01*
D02*
G37*
G36*
X387906D02*
X387942Y815073D01*
X388002Y814650D01*
X388087Y814243D01*
X388195Y813853D01*
X388327Y813478D01*
X388484Y813120D01*
X388665Y812777D01*
X388870Y812450D01*
X389099Y812140D01*
X385189D01*
X385418Y812450D01*
X385622Y812777D01*
X385803Y813120D01*
X385960Y813478D01*
X386092Y813853D01*
X386201Y814243D01*
X386285Y814650D01*
X386345Y815073D01*
X386382Y815512D01*
X386394Y815967D01*
X387894D01*
X387906Y815512D01*
D02*
G37*
G36*
X346566D02*
X346602Y815073D01*
X346662Y814650D01*
X346747Y814243D01*
X346855Y813853D01*
X346988Y813478D01*
X347144Y813120D01*
X347325Y812777D01*
X347530Y812450D01*
X347759Y812140D01*
X343849D01*
X344078Y812450D01*
X344283Y812777D01*
X344463Y813120D01*
X344620Y813478D01*
X344753Y813853D01*
X344861Y814243D01*
X344945Y814650D01*
X345006Y815073D01*
X345042Y815512D01*
X345054Y815967D01*
X346554D01*
X346566Y815512D01*
D02*
G37*
G36*
X305226D02*
X305262Y815073D01*
X305322Y814650D01*
X305407Y814243D01*
X305515Y813853D01*
X305648Y813478D01*
X305804Y813120D01*
X305985Y812777D01*
X306190Y812450D01*
X306419Y812140D01*
X302509D01*
X302738Y812450D01*
X302943Y812777D01*
X303123Y813120D01*
X303280Y813478D01*
X303413Y813853D01*
X303521Y814243D01*
X303605Y814650D01*
X303666Y815073D01*
X303702Y815512D01*
X303714Y815967D01*
X305214D01*
X305226Y815512D01*
D02*
G37*
G36*
X263886D02*
X263922Y815073D01*
X263982Y814650D01*
X264067Y814243D01*
X264175Y813853D01*
X264308Y813478D01*
X264464Y813120D01*
X264645Y812777D01*
X264850Y812450D01*
X265079Y812140D01*
X261169D01*
X261398Y812450D01*
X261603Y812777D01*
X261784Y813120D01*
X261940Y813478D01*
X262073Y813853D01*
X262181Y814243D01*
X262265Y814650D01*
X262326Y815073D01*
X262362Y815512D01*
X262374Y815967D01*
X263874D01*
X263886Y815512D01*
D02*
G37*
G36*
X222546D02*
X222582Y815073D01*
X222642Y814650D01*
X222727Y814243D01*
X222835Y813853D01*
X222968Y813478D01*
X223125Y813120D01*
X223305Y812777D01*
X223510Y812450D01*
X223739Y812140D01*
X219829D01*
X220058Y812450D01*
X220263Y812777D01*
X220444Y813120D01*
X220600Y813478D01*
X220733Y813853D01*
X220841Y814243D01*
X220926Y814650D01*
X220986Y815073D01*
X221022Y815512D01*
X221034Y815967D01*
X222534D01*
X222546Y815512D01*
D02*
G37*
G36*
X181206D02*
X181242Y815073D01*
X181303Y814650D01*
X181387Y814243D01*
X181495Y813853D01*
X181628Y813478D01*
X181785Y813120D01*
X181965Y812777D01*
X182170Y812450D01*
X182399Y812140D01*
X178489D01*
X178718Y812450D01*
X178923Y812777D01*
X179104Y813120D01*
X179260Y813478D01*
X179393Y813853D01*
X179501Y814243D01*
X179586Y814650D01*
X179646Y815073D01*
X179682Y815512D01*
X179694Y815967D01*
X181194D01*
X181206Y815512D01*
D02*
G37*
G36*
X554229Y785223D02*
X554025Y784897D01*
X553844Y784554D01*
X553687Y784196D01*
X553554Y783821D01*
X553446Y783430D01*
X553362Y783024D01*
X553302Y782601D01*
X553265Y782162D01*
X553253Y781707D01*
X551753D01*
X551741Y782162D01*
X551705Y782601D01*
X551645Y783024D01*
X551561Y783430D01*
X551452Y783821D01*
X551320Y784196D01*
X551163Y784554D01*
X550982Y784897D01*
X550777Y785223D01*
X550548Y785534D01*
X554458D01*
X554229Y785223D01*
D02*
G37*
G36*
X512889D02*
X512685Y784897D01*
X512504Y784554D01*
X512347Y784196D01*
X512215Y783821D01*
X512106Y783430D01*
X512022Y783024D01*
X511962Y782601D01*
X511925Y782162D01*
X511913Y781707D01*
X510413D01*
X510401Y782162D01*
X510365Y782601D01*
X510305Y783024D01*
X510221Y783430D01*
X510112Y783821D01*
X509980Y784196D01*
X509823Y784554D01*
X509642Y784897D01*
X509437Y785223D01*
X509208Y785534D01*
X513118D01*
X512889Y785223D01*
D02*
G37*
G36*
X471549D02*
X471345Y784897D01*
X471164Y784554D01*
X471007Y784196D01*
X470875Y783821D01*
X470766Y783430D01*
X470682Y783024D01*
X470622Y782601D01*
X470586Y782162D01*
X470574Y781707D01*
X469073D01*
X469061Y782162D01*
X469025Y782601D01*
X468965Y783024D01*
X468881Y783430D01*
X468772Y783821D01*
X468640Y784196D01*
X468483Y784554D01*
X468302Y784897D01*
X468097Y785223D01*
X467868Y785534D01*
X471778D01*
X471549Y785223D01*
D02*
G37*
G36*
X430210D02*
X430005Y784897D01*
X429824Y784554D01*
X429667Y784196D01*
X429535Y783821D01*
X429426Y783430D01*
X429342Y783024D01*
X429282Y782601D01*
X429246Y782162D01*
X429234Y781707D01*
X427734D01*
X427721Y782162D01*
X427685Y782601D01*
X427625Y783024D01*
X427541Y783430D01*
X427432Y783821D01*
X427300Y784196D01*
X427143Y784554D01*
X426962Y784897D01*
X426758Y785223D01*
X426529Y785534D01*
X430439D01*
X430210Y785223D01*
D02*
G37*
G36*
X388870D02*
X388665Y784897D01*
X388484Y784554D01*
X388327Y784196D01*
X388195Y783821D01*
X388087Y783430D01*
X388002Y783024D01*
X387942Y782601D01*
X387906Y782162D01*
X387894Y781707D01*
X386394D01*
X386382Y782162D01*
X386345Y782601D01*
X386285Y783024D01*
X386201Y783430D01*
X386092Y783821D01*
X385960Y784196D01*
X385803Y784554D01*
X385622Y784897D01*
X385418Y785223D01*
X385189Y785534D01*
X389099D01*
X388870Y785223D01*
D02*
G37*
G36*
X347530D02*
X347325Y784897D01*
X347144Y784554D01*
X346988Y784196D01*
X346855Y783821D01*
X346747Y783430D01*
X346662Y783024D01*
X346602Y782601D01*
X346566Y782162D01*
X346554Y781707D01*
X345054D01*
X345042Y782162D01*
X345006Y782601D01*
X344945Y783024D01*
X344861Y783430D01*
X344753Y783821D01*
X344620Y784196D01*
X344463Y784554D01*
X344283Y784897D01*
X344078Y785223D01*
X343849Y785534D01*
X347759D01*
X347530Y785223D01*
D02*
G37*
G36*
X306190D02*
X305985Y784897D01*
X305804Y784554D01*
X305648Y784196D01*
X305515Y783821D01*
X305407Y783430D01*
X305322Y783024D01*
X305262Y782601D01*
X305226Y782162D01*
X305214Y781707D01*
X303714D01*
X303702Y782162D01*
X303666Y782601D01*
X303605Y783024D01*
X303521Y783430D01*
X303413Y783821D01*
X303280Y784196D01*
X303123Y784554D01*
X302943Y784897D01*
X302738Y785223D01*
X302509Y785534D01*
X306419D01*
X306190Y785223D01*
D02*
G37*
G36*
X264850D02*
X264645Y784897D01*
X264464Y784554D01*
X264308Y784196D01*
X264175Y783821D01*
X264067Y783430D01*
X263982Y783024D01*
X263922Y782601D01*
X263886Y782162D01*
X263874Y781707D01*
X262374D01*
X262362Y782162D01*
X262326Y782601D01*
X262265Y783024D01*
X262181Y783430D01*
X262073Y783821D01*
X261940Y784196D01*
X261784Y784554D01*
X261603Y784897D01*
X261398Y785223D01*
X261169Y785534D01*
X265079D01*
X264850Y785223D01*
D02*
G37*
G36*
X223510D02*
X223305Y784897D01*
X223125Y784554D01*
X222968Y784196D01*
X222835Y783821D01*
X222727Y783430D01*
X222642Y783024D01*
X222582Y782601D01*
X222546Y782162D01*
X222534Y781707D01*
X221034D01*
X221022Y782162D01*
X220986Y782601D01*
X220926Y783024D01*
X220841Y783430D01*
X220733Y783821D01*
X220600Y784196D01*
X220444Y784554D01*
X220263Y784897D01*
X220058Y785223D01*
X219829Y785534D01*
X223739D01*
X223510Y785223D01*
D02*
G37*
G36*
X182376Y785505D02*
X182136Y785191D01*
X181922Y784861D01*
X181732Y784516D01*
X181568Y784156D01*
X181429Y783781D01*
X181316Y783391D01*
X181227Y782987D01*
X181164Y782567D01*
X181126Y782133D01*
X181114Y781683D01*
X179614Y781734D01*
X179602Y782194D01*
X179568Y782637D01*
X179510Y783064D01*
X179430Y783472D01*
X179327Y783864D01*
X179201Y784238D01*
X179052Y784595D01*
X178880Y784935D01*
X178685Y785257D01*
X178467Y785563D01*
X182376Y785505D01*
D02*
G37*
G36*
X553265Y773472D02*
X553302Y773033D01*
X553362Y772610D01*
X553446Y772203D01*
X553554Y771813D01*
X553687Y771438D01*
X553844Y771079D01*
X554025Y770737D01*
X554229Y770411D01*
X554458Y770100D01*
X550548D01*
X550777Y770411D01*
X550982Y770737D01*
X551163Y771079D01*
X551320Y771438D01*
X551452Y771813D01*
X551561Y772203D01*
X551645Y772610D01*
X551705Y773033D01*
X551741Y773472D01*
X551753Y773927D01*
X553253D01*
X553265Y773472D01*
D02*
G37*
G36*
X511925D02*
X511962Y773033D01*
X512022Y772610D01*
X512106Y772203D01*
X512215Y771813D01*
X512347Y771438D01*
X512504Y771079D01*
X512685Y770737D01*
X512889Y770411D01*
X513118Y770100D01*
X509208D01*
X509437Y770411D01*
X509642Y770737D01*
X509823Y771079D01*
X509980Y771438D01*
X510112Y771813D01*
X510221Y772203D01*
X510305Y772610D01*
X510365Y773033D01*
X510401Y773472D01*
X510413Y773927D01*
X511913D01*
X511925Y773472D01*
D02*
G37*
G36*
X470586D02*
X470622Y773033D01*
X470682Y772610D01*
X470766Y772203D01*
X470875Y771813D01*
X471007Y771438D01*
X471164Y771079D01*
X471345Y770737D01*
X471549Y770411D01*
X471778Y770100D01*
X467868D01*
X468097Y770411D01*
X468302Y770737D01*
X468483Y771079D01*
X468640Y771438D01*
X468772Y771813D01*
X468881Y772203D01*
X468965Y772610D01*
X469025Y773033D01*
X469061Y773472D01*
X469073Y773927D01*
X470574D01*
X470586Y773472D01*
D02*
G37*
G36*
X429246D02*
X429282Y773033D01*
X429342Y772610D01*
X429426Y772203D01*
X429535Y771813D01*
X429667Y771438D01*
X429824Y771079D01*
X430005Y770737D01*
X430210Y770411D01*
X430439Y770100D01*
X426529D01*
X426758Y770411D01*
X426962Y770737D01*
X427143Y771079D01*
X427300Y771438D01*
X427432Y771813D01*
X427541Y772203D01*
X427625Y772610D01*
X427685Y773033D01*
X427721Y773472D01*
X427734Y773927D01*
X429234D01*
X429246Y773472D01*
D02*
G37*
G36*
X387906D02*
X387942Y773033D01*
X388002Y772610D01*
X388087Y772203D01*
X388195Y771813D01*
X388327Y771438D01*
X388484Y771079D01*
X388665Y770737D01*
X388870Y770411D01*
X389099Y770100D01*
X385189D01*
X385418Y770411D01*
X385622Y770737D01*
X385803Y771079D01*
X385960Y771438D01*
X386092Y771813D01*
X386201Y772203D01*
X386285Y772610D01*
X386345Y773033D01*
X386382Y773472D01*
X386394Y773927D01*
X387894D01*
X387906Y773472D01*
D02*
G37*
G36*
X346566D02*
X346602Y773033D01*
X346662Y772610D01*
X346747Y772203D01*
X346855Y771813D01*
X346988Y771438D01*
X347144Y771079D01*
X347325Y770737D01*
X347530Y770411D01*
X347759Y770100D01*
X343849D01*
X344078Y770411D01*
X344283Y770737D01*
X344463Y771079D01*
X344620Y771438D01*
X344753Y771813D01*
X344861Y772203D01*
X344945Y772610D01*
X345006Y773033D01*
X345042Y773472D01*
X345054Y773927D01*
X346554D01*
X346566Y773472D01*
D02*
G37*
G36*
X305226D02*
X305262Y773033D01*
X305322Y772610D01*
X305407Y772203D01*
X305515Y771813D01*
X305648Y771438D01*
X305804Y771079D01*
X305985Y770737D01*
X306190Y770411D01*
X306419Y770100D01*
X302509D01*
X302738Y770411D01*
X302943Y770737D01*
X303123Y771079D01*
X303280Y771438D01*
X303413Y771813D01*
X303521Y772203D01*
X303605Y772610D01*
X303666Y773033D01*
X303702Y773472D01*
X303714Y773927D01*
X305214D01*
X305226Y773472D01*
D02*
G37*
G36*
X263886D02*
X263922Y773033D01*
X263982Y772610D01*
X264067Y772203D01*
X264175Y771813D01*
X264308Y771438D01*
X264464Y771079D01*
X264645Y770737D01*
X264850Y770411D01*
X265079Y770100D01*
X261169D01*
X261398Y770411D01*
X261603Y770737D01*
X261784Y771079D01*
X261940Y771438D01*
X262073Y771813D01*
X262181Y772203D01*
X262265Y772610D01*
X262326Y773033D01*
X262362Y773472D01*
X262374Y773927D01*
X263874D01*
X263886Y773472D01*
D02*
G37*
G36*
X222546D02*
X222582Y773033D01*
X222642Y772610D01*
X222727Y772203D01*
X222835Y771813D01*
X222968Y771438D01*
X223125Y771079D01*
X223305Y770737D01*
X223510Y770411D01*
X223739Y770100D01*
X219829D01*
X220058Y770411D01*
X220263Y770737D01*
X220444Y771079D01*
X220600Y771438D01*
X220733Y771813D01*
X220841Y772203D01*
X220926Y772610D01*
X220986Y773033D01*
X221022Y773472D01*
X221034Y773927D01*
X222534D01*
X222546Y773472D01*
D02*
G37*
G36*
X181114Y773114D02*
X181125Y772653D01*
X181160Y772210D01*
X181217Y771784D01*
X181297Y771376D01*
X181401Y770984D01*
X181527Y770610D01*
X181676Y770253D01*
X181848Y769913D01*
X182043Y769590D01*
X182261Y769285D01*
X178351Y769342D01*
X178591Y769657D01*
X178806Y769987D01*
X178995Y770332D01*
X179159Y770692D01*
X179298Y771067D01*
X179412Y771456D01*
X179500Y771861D01*
X179563Y772280D01*
X179601Y772715D01*
X179614Y773164D01*
X181114Y773114D01*
D02*
G37*
G36*
X347958Y743671D02*
X347714Y743354D01*
X347495Y743023D01*
X347301Y742677D01*
X347134Y742317D01*
X346992Y741942D01*
X346876Y741553D01*
X346786Y741150D01*
X346722Y740732D01*
X346683Y740299D01*
X346670Y739852D01*
X345170Y739925D01*
X345159Y740388D01*
X345069Y741261D01*
X344991Y741670D01*
X344890Y742062D01*
X344767Y742436D01*
X344621Y742792D01*
X344453Y743130D01*
X344262Y743451D01*
X344049Y743754D01*
X347958Y743671D01*
D02*
G37*
G36*
X554229Y743183D02*
X554025Y742857D01*
X553844Y742514D01*
X553687Y742156D01*
X553554Y741781D01*
X553446Y741391D01*
X553362Y740984D01*
X553302Y740561D01*
X553265Y740122D01*
X553253Y739667D01*
X551753D01*
X551741Y740122D01*
X551705Y740561D01*
X551645Y740984D01*
X551561Y741391D01*
X551452Y741781D01*
X551320Y742156D01*
X551163Y742514D01*
X550982Y742857D01*
X550777Y743183D01*
X550548Y743494D01*
X554458D01*
X554229Y743183D01*
D02*
G37*
G36*
X512889D02*
X512685Y742857D01*
X512504Y742514D01*
X512347Y742156D01*
X512215Y741781D01*
X512106Y741391D01*
X512022Y740984D01*
X511962Y740561D01*
X511925Y740122D01*
X511913Y739667D01*
X510413D01*
X510401Y740122D01*
X510365Y740561D01*
X510305Y740984D01*
X510221Y741391D01*
X510112Y741781D01*
X509980Y742156D01*
X509823Y742514D01*
X509642Y742857D01*
X509437Y743183D01*
X509208Y743494D01*
X513118D01*
X512889Y743183D01*
D02*
G37*
G36*
X471549D02*
X471345Y742857D01*
X471164Y742514D01*
X471007Y742156D01*
X470875Y741781D01*
X470766Y741391D01*
X470682Y740984D01*
X470622Y740561D01*
X470586Y740122D01*
X470574Y739667D01*
X469073D01*
X469061Y740122D01*
X469025Y740561D01*
X468965Y740984D01*
X468881Y741391D01*
X468772Y741781D01*
X468640Y742156D01*
X468483Y742514D01*
X468302Y742857D01*
X468097Y743183D01*
X467868Y743494D01*
X471778D01*
X471549Y743183D01*
D02*
G37*
G36*
X430210D02*
X430005Y742857D01*
X429824Y742514D01*
X429667Y742156D01*
X429535Y741781D01*
X429426Y741391D01*
X429342Y740984D01*
X429282Y740561D01*
X429246Y740122D01*
X429234Y739667D01*
X427734D01*
X427721Y740122D01*
X427685Y740561D01*
X427625Y740984D01*
X427541Y741391D01*
X427432Y741781D01*
X427300Y742156D01*
X427143Y742514D01*
X426962Y742857D01*
X426758Y743183D01*
X426529Y743494D01*
X430439D01*
X430210Y743183D01*
D02*
G37*
G36*
X388870D02*
X388665Y742857D01*
X388484Y742514D01*
X388327Y742156D01*
X388195Y741781D01*
X388087Y741391D01*
X388002Y740984D01*
X387942Y740561D01*
X387906Y740122D01*
X387894Y739667D01*
X386394D01*
X386382Y740122D01*
X386345Y740561D01*
X386285Y740984D01*
X386201Y741391D01*
X386092Y741781D01*
X385960Y742156D01*
X385803Y742514D01*
X385622Y742857D01*
X385418Y743183D01*
X385189Y743494D01*
X389099D01*
X388870Y743183D01*
D02*
G37*
G36*
X306190D02*
X305985Y742857D01*
X305804Y742514D01*
X305648Y742156D01*
X305515Y741781D01*
X305407Y741391D01*
X305322Y740984D01*
X305262Y740561D01*
X305226Y740122D01*
X305214Y739667D01*
X303714D01*
X303702Y740122D01*
X303666Y740561D01*
X303605Y740984D01*
X303521Y741391D01*
X303413Y741781D01*
X303280Y742156D01*
X303123Y742514D01*
X302943Y742857D01*
X302738Y743183D01*
X302509Y743494D01*
X306419D01*
X306190Y743183D01*
D02*
G37*
G36*
X264850D02*
X264645Y742857D01*
X264464Y742514D01*
X264308Y742156D01*
X264175Y741781D01*
X264067Y741391D01*
X263982Y740984D01*
X263922Y740561D01*
X263886Y740122D01*
X263874Y739667D01*
X262374D01*
X262362Y740122D01*
X262326Y740561D01*
X262265Y740984D01*
X262181Y741391D01*
X262073Y741781D01*
X261940Y742156D01*
X261784Y742514D01*
X261603Y742857D01*
X261398Y743183D01*
X261169Y743494D01*
X265079D01*
X264850Y743183D01*
D02*
G37*
G36*
X223510D02*
X223305Y742857D01*
X223125Y742514D01*
X222968Y742156D01*
X222835Y741781D01*
X222727Y741391D01*
X222642Y740984D01*
X222582Y740561D01*
X222546Y740122D01*
X222534Y739667D01*
X221034D01*
X221022Y740122D01*
X220986Y740561D01*
X220926Y740984D01*
X220841Y741391D01*
X220733Y741781D01*
X220600Y742156D01*
X220444Y742514D01*
X220263Y742857D01*
X220058Y743183D01*
X219829Y743494D01*
X223739D01*
X223510Y743183D01*
D02*
G37*
G36*
X182170D02*
X181965Y742857D01*
X181785Y742514D01*
X181628Y742156D01*
X181495Y741781D01*
X181387Y741391D01*
X181303Y740984D01*
X181242Y740561D01*
X181206Y740122D01*
X181194Y739667D01*
X179694D01*
X179682Y740122D01*
X179646Y740561D01*
X179586Y740984D01*
X179501Y741391D01*
X179393Y741781D01*
X179260Y742156D01*
X179104Y742514D01*
X178923Y742857D01*
X178718Y743183D01*
X178489Y743494D01*
X182399D01*
X182170Y743183D01*
D02*
G37*
G36*
X553265Y731432D02*
X553302Y730993D01*
X553362Y730570D01*
X553446Y730163D01*
X553554Y729773D01*
X553687Y729398D01*
X553844Y729040D01*
X554025Y728697D01*
X554229Y728371D01*
X554458Y728060D01*
X550548D01*
X550777Y728371D01*
X550982Y728697D01*
X551163Y729040D01*
X551320Y729398D01*
X551452Y729773D01*
X551561Y730163D01*
X551645Y730570D01*
X551705Y730993D01*
X551741Y731432D01*
X551753Y731887D01*
X553253D01*
X553265Y731432D01*
D02*
G37*
G36*
X511925D02*
X511962Y730993D01*
X512022Y730570D01*
X512106Y730163D01*
X512215Y729773D01*
X512347Y729398D01*
X512504Y729040D01*
X512685Y728697D01*
X512889Y728371D01*
X513118Y728060D01*
X509208D01*
X509437Y728371D01*
X509642Y728697D01*
X509823Y729040D01*
X509980Y729398D01*
X510112Y729773D01*
X510221Y730163D01*
X510305Y730570D01*
X510365Y730993D01*
X510401Y731432D01*
X510413Y731887D01*
X511913D01*
X511925Y731432D01*
D02*
G37*
G36*
X470586D02*
X470622Y730993D01*
X470682Y730570D01*
X470766Y730163D01*
X470875Y729773D01*
X471007Y729398D01*
X471164Y729040D01*
X471345Y728697D01*
X471549Y728371D01*
X471778Y728060D01*
X467868D01*
X468097Y728371D01*
X468302Y728697D01*
X468483Y729040D01*
X468640Y729398D01*
X468772Y729773D01*
X468881Y730163D01*
X468965Y730570D01*
X469025Y730993D01*
X469061Y731432D01*
X469073Y731887D01*
X470574D01*
X470586Y731432D01*
D02*
G37*
G36*
X429246D02*
X429282Y730993D01*
X429342Y730570D01*
X429426Y730163D01*
X429535Y729773D01*
X429667Y729398D01*
X429824Y729040D01*
X430005Y728697D01*
X430210Y728371D01*
X430439Y728060D01*
X426529D01*
X426758Y728371D01*
X426962Y728697D01*
X427143Y729040D01*
X427300Y729398D01*
X427432Y729773D01*
X427541Y730163D01*
X427625Y730570D01*
X427685Y730993D01*
X427721Y731432D01*
X427734Y731887D01*
X429234D01*
X429246Y731432D01*
D02*
G37*
G36*
X387906D02*
X387942Y730993D01*
X388002Y730570D01*
X388087Y730163D01*
X388195Y729773D01*
X388327Y729398D01*
X388484Y729040D01*
X388665Y728697D01*
X388870Y728371D01*
X389099Y728060D01*
X385189D01*
X385418Y728371D01*
X385622Y728697D01*
X385803Y729040D01*
X385960Y729398D01*
X386092Y729773D01*
X386201Y730163D01*
X386285Y730570D01*
X386345Y730993D01*
X386382Y731432D01*
X386394Y731887D01*
X387894D01*
X387906Y731432D01*
D02*
G37*
G36*
X305226D02*
X305262Y730993D01*
X305322Y730570D01*
X305407Y730163D01*
X305515Y729773D01*
X305648Y729398D01*
X305804Y729040D01*
X305985Y728697D01*
X306190Y728371D01*
X306419Y728060D01*
X302509D01*
X302738Y728371D01*
X302943Y728697D01*
X303123Y729040D01*
X303280Y729398D01*
X303413Y729773D01*
X303521Y730163D01*
X303605Y730570D01*
X303666Y730993D01*
X303702Y731432D01*
X303714Y731887D01*
X305214D01*
X305226Y731432D01*
D02*
G37*
G36*
X263886D02*
X263922Y730993D01*
X263982Y730570D01*
X264067Y730163D01*
X264175Y729773D01*
X264308Y729398D01*
X264464Y729040D01*
X264645Y728697D01*
X264850Y728371D01*
X265079Y728060D01*
X261169D01*
X261398Y728371D01*
X261603Y728697D01*
X261784Y729040D01*
X261940Y729398D01*
X262073Y729773D01*
X262181Y730163D01*
X262265Y730570D01*
X262326Y730993D01*
X262362Y731432D01*
X262374Y731887D01*
X263874D01*
X263886Y731432D01*
D02*
G37*
G36*
X222546D02*
X222582Y730993D01*
X222642Y730570D01*
X222727Y730163D01*
X222835Y729773D01*
X222968Y729398D01*
X223125Y729040D01*
X223305Y728697D01*
X223510Y728371D01*
X223739Y728060D01*
X219829D01*
X220058Y728371D01*
X220263Y728697D01*
X220444Y729040D01*
X220600Y729398D01*
X220733Y729773D01*
X220841Y730163D01*
X220926Y730570D01*
X220986Y730993D01*
X221022Y731432D01*
X221034Y731887D01*
X222534D01*
X222546Y731432D01*
D02*
G37*
G36*
X181206D02*
X181242Y730993D01*
X181303Y730570D01*
X181387Y730163D01*
X181495Y729773D01*
X181628Y729398D01*
X181785Y729040D01*
X181965Y728697D01*
X182170Y728371D01*
X182399Y728060D01*
X178489D01*
X178718Y728371D01*
X178923Y728697D01*
X179104Y729040D01*
X179260Y729398D01*
X179393Y729773D01*
X179501Y730163D01*
X179586Y730570D01*
X179646Y730993D01*
X179682Y731432D01*
X179694Y731887D01*
X181194D01*
X181206Y731432D01*
D02*
G37*
G36*
X346670Y731847D02*
X346681Y731384D01*
X346771Y730512D01*
X346850Y730102D01*
X346950Y729710D01*
X347074Y729336D01*
X347220Y728980D01*
X347388Y728642D01*
X347578Y728321D01*
X347791Y728018D01*
X343882Y728101D01*
X344127Y728418D01*
X344346Y728749D01*
X344539Y729095D01*
X344706Y729455D01*
X344848Y729830D01*
X344964Y730219D01*
X345054Y730623D01*
X345119Y731041D01*
X345157Y731473D01*
X345170Y731920D01*
X346670Y731847D01*
D02*
G37*
G36*
X554229Y701143D02*
X554025Y700817D01*
X553844Y700474D01*
X553687Y700116D01*
X553554Y699741D01*
X553446Y699351D01*
X553362Y698944D01*
X553302Y698521D01*
X553265Y698082D01*
X553253Y697627D01*
X551753D01*
X551741Y698082D01*
X551705Y698521D01*
X551645Y698944D01*
X551561Y699351D01*
X551452Y699741D01*
X551320Y700116D01*
X551163Y700474D01*
X550982Y700817D01*
X550777Y701143D01*
X550548Y701454D01*
X554458D01*
X554229Y701143D01*
D02*
G37*
G36*
X512889D02*
X512685Y700817D01*
X512504Y700474D01*
X512347Y700116D01*
X512215Y699741D01*
X512106Y699351D01*
X512022Y698944D01*
X511962Y698521D01*
X511925Y698082D01*
X511913Y697627D01*
X510413D01*
X510401Y698082D01*
X510365Y698521D01*
X510305Y698944D01*
X510221Y699351D01*
X510112Y699741D01*
X509980Y700116D01*
X509823Y700474D01*
X509642Y700817D01*
X509437Y701143D01*
X509208Y701454D01*
X513118D01*
X512889Y701143D01*
D02*
G37*
G36*
X471549D02*
X471345Y700817D01*
X471164Y700474D01*
X471007Y700116D01*
X470875Y699741D01*
X470766Y699351D01*
X470682Y698944D01*
X470622Y698521D01*
X470586Y698082D01*
X470574Y697627D01*
X469073D01*
X469061Y698082D01*
X469025Y698521D01*
X468965Y698944D01*
X468881Y699351D01*
X468772Y699741D01*
X468640Y700116D01*
X468483Y700474D01*
X468302Y700817D01*
X468097Y701143D01*
X467868Y701454D01*
X471778D01*
X471549Y701143D01*
D02*
G37*
G36*
X430210D02*
X430005Y700817D01*
X429824Y700474D01*
X429667Y700116D01*
X429535Y699741D01*
X429426Y699351D01*
X429342Y698944D01*
X429282Y698521D01*
X429246Y698082D01*
X429234Y697627D01*
X427734D01*
X427721Y698082D01*
X427685Y698521D01*
X427625Y698944D01*
X427541Y699351D01*
X427432Y699741D01*
X427300Y700116D01*
X427143Y700474D01*
X426962Y700817D01*
X426758Y701143D01*
X426529Y701454D01*
X430439D01*
X430210Y701143D01*
D02*
G37*
G36*
X388870D02*
X388665Y700817D01*
X388484Y700474D01*
X388327Y700116D01*
X388195Y699741D01*
X388087Y699351D01*
X388002Y698944D01*
X387942Y698521D01*
X387906Y698082D01*
X387894Y697627D01*
X386394D01*
X386382Y698082D01*
X386345Y698521D01*
X386285Y698944D01*
X386201Y699351D01*
X386092Y699741D01*
X385960Y700116D01*
X385803Y700474D01*
X385622Y700817D01*
X385418Y701143D01*
X385189Y701454D01*
X389099D01*
X388870Y701143D01*
D02*
G37*
G36*
X347530D02*
X347325Y700817D01*
X347144Y700474D01*
X346988Y700116D01*
X346855Y699741D01*
X346747Y699351D01*
X346662Y698944D01*
X346602Y698521D01*
X346566Y698082D01*
X346554Y697627D01*
X345054D01*
X345042Y698082D01*
X345006Y698521D01*
X344945Y698944D01*
X344861Y699351D01*
X344753Y699741D01*
X344620Y700116D01*
X344463Y700474D01*
X344283Y700817D01*
X344078Y701143D01*
X343849Y701454D01*
X347759D01*
X347530Y701143D01*
D02*
G37*
G36*
X306190D02*
X305985Y700817D01*
X305804Y700474D01*
X305648Y700116D01*
X305515Y699741D01*
X305407Y699351D01*
X305322Y698944D01*
X305262Y698521D01*
X305226Y698082D01*
X305214Y697627D01*
X303714D01*
X303702Y698082D01*
X303666Y698521D01*
X303605Y698944D01*
X303521Y699351D01*
X303413Y699741D01*
X303280Y700116D01*
X303123Y700474D01*
X302943Y700817D01*
X302738Y701143D01*
X302509Y701454D01*
X306419D01*
X306190Y701143D01*
D02*
G37*
G36*
X264850D02*
X264645Y700817D01*
X264464Y700474D01*
X264308Y700116D01*
X264175Y699741D01*
X264067Y699351D01*
X263982Y698944D01*
X263922Y698521D01*
X263886Y698082D01*
X263874Y697627D01*
X262374D01*
X262362Y698082D01*
X262326Y698521D01*
X262265Y698944D01*
X262181Y699351D01*
X262073Y699741D01*
X261940Y700116D01*
X261784Y700474D01*
X261603Y700817D01*
X261398Y701143D01*
X261169Y701454D01*
X265079D01*
X264850Y701143D01*
D02*
G37*
G36*
X223510D02*
X223305Y700817D01*
X223125Y700474D01*
X222968Y700116D01*
X222835Y699741D01*
X222727Y699351D01*
X222642Y698944D01*
X222582Y698521D01*
X222546Y698082D01*
X222534Y697627D01*
X221034D01*
X221022Y698082D01*
X220986Y698521D01*
X220926Y698944D01*
X220841Y699351D01*
X220733Y699741D01*
X220600Y700116D01*
X220444Y700474D01*
X220263Y700817D01*
X220058Y701143D01*
X219829Y701454D01*
X223739D01*
X223510Y701143D01*
D02*
G37*
G36*
X182170D02*
X181965Y700817D01*
X181785Y700474D01*
X181628Y700116D01*
X181495Y699741D01*
X181387Y699351D01*
X181303Y698944D01*
X181242Y698521D01*
X181206Y698082D01*
X181194Y697627D01*
X179694D01*
X179682Y698082D01*
X179646Y698521D01*
X179586Y698944D01*
X179501Y699351D01*
X179393Y699741D01*
X179260Y700116D01*
X179104Y700474D01*
X178923Y700817D01*
X178718Y701143D01*
X178489Y701454D01*
X182399D01*
X182170Y701143D01*
D02*
G37*
G36*
X553265Y689392D02*
X553302Y688953D01*
X553362Y688530D01*
X553446Y688123D01*
X553554Y687733D01*
X553687Y687358D01*
X553844Y687000D01*
X554025Y686657D01*
X554229Y686330D01*
X554458Y686020D01*
X550548D01*
X550777Y686330D01*
X550982Y686657D01*
X551163Y687000D01*
X551320Y687358D01*
X551452Y687733D01*
X551561Y688123D01*
X551645Y688530D01*
X551705Y688953D01*
X551741Y689392D01*
X551753Y689847D01*
X553253D01*
X553265Y689392D01*
D02*
G37*
G36*
X511925D02*
X511962Y688953D01*
X512022Y688530D01*
X512106Y688123D01*
X512215Y687733D01*
X512347Y687358D01*
X512504Y687000D01*
X512685Y686657D01*
X512889Y686330D01*
X513118Y686020D01*
X509208D01*
X509437Y686330D01*
X509642Y686657D01*
X509823Y687000D01*
X509980Y687358D01*
X510112Y687733D01*
X510221Y688123D01*
X510305Y688530D01*
X510365Y688953D01*
X510401Y689392D01*
X510413Y689847D01*
X511913D01*
X511925Y689392D01*
D02*
G37*
G36*
X470586D02*
X470622Y688953D01*
X470682Y688530D01*
X470766Y688123D01*
X470875Y687733D01*
X471007Y687358D01*
X471164Y687000D01*
X471345Y686657D01*
X471549Y686330D01*
X471778Y686020D01*
X467868D01*
X468097Y686330D01*
X468302Y686657D01*
X468483Y687000D01*
X468640Y687358D01*
X468772Y687733D01*
X468881Y688123D01*
X468965Y688530D01*
X469025Y688953D01*
X469061Y689392D01*
X469073Y689847D01*
X470574D01*
X470586Y689392D01*
D02*
G37*
G36*
X429246D02*
X429282Y688953D01*
X429342Y688530D01*
X429426Y688123D01*
X429535Y687733D01*
X429667Y687358D01*
X429824Y687000D01*
X430005Y686657D01*
X430210Y686330D01*
X430439Y686020D01*
X426529D01*
X426758Y686330D01*
X426962Y686657D01*
X427143Y687000D01*
X427300Y687358D01*
X427432Y687733D01*
X427541Y688123D01*
X427625Y688530D01*
X427685Y688953D01*
X427721Y689392D01*
X427734Y689847D01*
X429234D01*
X429246Y689392D01*
D02*
G37*
G36*
X387906D02*
X387942Y688953D01*
X388002Y688530D01*
X388087Y688123D01*
X388195Y687733D01*
X388327Y687358D01*
X388484Y687000D01*
X388665Y686657D01*
X388870Y686330D01*
X389099Y686020D01*
X385189D01*
X385418Y686330D01*
X385622Y686657D01*
X385803Y687000D01*
X385960Y687358D01*
X386092Y687733D01*
X386201Y688123D01*
X386285Y688530D01*
X386345Y688953D01*
X386382Y689392D01*
X386394Y689847D01*
X387894D01*
X387906Y689392D01*
D02*
G37*
G36*
X346566D02*
X346602Y688953D01*
X346662Y688530D01*
X346747Y688123D01*
X346855Y687733D01*
X346988Y687358D01*
X347144Y687000D01*
X347325Y686657D01*
X347530Y686330D01*
X347759Y686020D01*
X343849D01*
X344078Y686330D01*
X344283Y686657D01*
X344463Y687000D01*
X344620Y687358D01*
X344753Y687733D01*
X344861Y688123D01*
X344945Y688530D01*
X345006Y688953D01*
X345042Y689392D01*
X345054Y689847D01*
X346554D01*
X346566Y689392D01*
D02*
G37*
G36*
X305226D02*
X305262Y688953D01*
X305322Y688530D01*
X305407Y688123D01*
X305515Y687733D01*
X305648Y687358D01*
X305804Y687000D01*
X305985Y686657D01*
X306190Y686330D01*
X306419Y686020D01*
X302509D01*
X302738Y686330D01*
X302943Y686657D01*
X303123Y687000D01*
X303280Y687358D01*
X303413Y687733D01*
X303521Y688123D01*
X303605Y688530D01*
X303666Y688953D01*
X303702Y689392D01*
X303714Y689847D01*
X305214D01*
X305226Y689392D01*
D02*
G37*
G36*
X263886D02*
X263922Y688953D01*
X263982Y688530D01*
X264067Y688123D01*
X264175Y687733D01*
X264308Y687358D01*
X264464Y687000D01*
X264645Y686657D01*
X264850Y686330D01*
X265079Y686020D01*
X261169D01*
X261398Y686330D01*
X261603Y686657D01*
X261784Y687000D01*
X261940Y687358D01*
X262073Y687733D01*
X262181Y688123D01*
X262265Y688530D01*
X262326Y688953D01*
X262362Y689392D01*
X262374Y689847D01*
X263874D01*
X263886Y689392D01*
D02*
G37*
G36*
X222546D02*
X222582Y688953D01*
X222642Y688530D01*
X222727Y688123D01*
X222835Y687733D01*
X222968Y687358D01*
X223125Y687000D01*
X223305Y686657D01*
X223510Y686330D01*
X223739Y686020D01*
X219829D01*
X220058Y686330D01*
X220263Y686657D01*
X220444Y687000D01*
X220600Y687358D01*
X220733Y687733D01*
X220841Y688123D01*
X220926Y688530D01*
X220986Y688953D01*
X221022Y689392D01*
X221034Y689847D01*
X222534D01*
X222546Y689392D01*
D02*
G37*
G36*
X181206D02*
X181242Y688953D01*
X181303Y688530D01*
X181387Y688123D01*
X181495Y687733D01*
X181628Y687358D01*
X181785Y687000D01*
X181965Y686657D01*
X182170Y686330D01*
X182399Y686020D01*
X178489D01*
X178718Y686330D01*
X178923Y686657D01*
X179104Y687000D01*
X179260Y687358D01*
X179393Y687733D01*
X179501Y688123D01*
X179586Y688530D01*
X179646Y688953D01*
X179682Y689392D01*
X179694Y689847D01*
X181194D01*
X181206Y689392D01*
D02*
G37*
G36*
X554229Y659103D02*
X554025Y658777D01*
X553844Y658434D01*
X553687Y658076D01*
X553554Y657701D01*
X553446Y657310D01*
X553362Y656904D01*
X553302Y656481D01*
X553265Y656042D01*
X553253Y655587D01*
X551753D01*
X551741Y656042D01*
X551705Y656481D01*
X551645Y656904D01*
X551561Y657310D01*
X551452Y657701D01*
X551320Y658076D01*
X551163Y658434D01*
X550982Y658777D01*
X550777Y659103D01*
X550548Y659414D01*
X554458D01*
X554229Y659103D01*
D02*
G37*
G36*
X512889D02*
X512685Y658777D01*
X512504Y658434D01*
X512347Y658076D01*
X512215Y657701D01*
X512106Y657310D01*
X512022Y656904D01*
X511962Y656481D01*
X511925Y656042D01*
X511913Y655587D01*
X510413D01*
X510401Y656042D01*
X510365Y656481D01*
X510305Y656904D01*
X510221Y657310D01*
X510112Y657701D01*
X509980Y658076D01*
X509823Y658434D01*
X509642Y658777D01*
X509437Y659103D01*
X509208Y659414D01*
X513118D01*
X512889Y659103D01*
D02*
G37*
G36*
X471549D02*
X471345Y658777D01*
X471164Y658434D01*
X471007Y658076D01*
X470875Y657701D01*
X470766Y657310D01*
X470682Y656904D01*
X470622Y656481D01*
X470586Y656042D01*
X470574Y655587D01*
X469073D01*
X469061Y656042D01*
X469025Y656481D01*
X468965Y656904D01*
X468881Y657310D01*
X468772Y657701D01*
X468640Y658076D01*
X468483Y658434D01*
X468302Y658777D01*
X468097Y659103D01*
X467868Y659414D01*
X471778D01*
X471549Y659103D01*
D02*
G37*
G36*
X430210D02*
X430005Y658777D01*
X429824Y658434D01*
X429667Y658076D01*
X429535Y657701D01*
X429426Y657310D01*
X429342Y656904D01*
X429282Y656481D01*
X429246Y656042D01*
X429234Y655587D01*
X427734D01*
X427721Y656042D01*
X427685Y656481D01*
X427625Y656904D01*
X427541Y657310D01*
X427432Y657701D01*
X427300Y658076D01*
X427143Y658434D01*
X426962Y658777D01*
X426758Y659103D01*
X426529Y659414D01*
X430439D01*
X430210Y659103D01*
D02*
G37*
G36*
X388870D02*
X388665Y658777D01*
X388484Y658434D01*
X388327Y658076D01*
X388195Y657701D01*
X388087Y657310D01*
X388002Y656904D01*
X387942Y656481D01*
X387906Y656042D01*
X387894Y655587D01*
X386394D01*
X386382Y656042D01*
X386345Y656481D01*
X386285Y656904D01*
X386201Y657310D01*
X386092Y657701D01*
X385960Y658076D01*
X385803Y658434D01*
X385622Y658777D01*
X385418Y659103D01*
X385189Y659414D01*
X389099D01*
X388870Y659103D01*
D02*
G37*
G36*
X347530D02*
X347325Y658777D01*
X347144Y658434D01*
X346988Y658076D01*
X346855Y657701D01*
X346747Y657310D01*
X346662Y656904D01*
X346602Y656481D01*
X346566Y656042D01*
X346554Y655587D01*
X345054D01*
X345042Y656042D01*
X345006Y656481D01*
X344945Y656904D01*
X344861Y657310D01*
X344753Y657701D01*
X344620Y658076D01*
X344463Y658434D01*
X344283Y658777D01*
X344078Y659103D01*
X343849Y659414D01*
X347759D01*
X347530Y659103D01*
D02*
G37*
G36*
X306190D02*
X305985Y658777D01*
X305804Y658434D01*
X305648Y658076D01*
X305515Y657701D01*
X305407Y657310D01*
X305322Y656904D01*
X305262Y656481D01*
X305226Y656042D01*
X305214Y655587D01*
X303714D01*
X303702Y656042D01*
X303666Y656481D01*
X303605Y656904D01*
X303521Y657310D01*
X303413Y657701D01*
X303280Y658076D01*
X303123Y658434D01*
X302943Y658777D01*
X302738Y659103D01*
X302509Y659414D01*
X306419D01*
X306190Y659103D01*
D02*
G37*
G36*
X264850D02*
X264645Y658777D01*
X264464Y658434D01*
X264308Y658076D01*
X264175Y657701D01*
X264067Y657310D01*
X263982Y656904D01*
X263922Y656481D01*
X263886Y656042D01*
X263874Y655587D01*
X262374D01*
X262362Y656042D01*
X262326Y656481D01*
X262265Y656904D01*
X262181Y657310D01*
X262073Y657701D01*
X261940Y658076D01*
X261784Y658434D01*
X261603Y658777D01*
X261398Y659103D01*
X261169Y659414D01*
X265079D01*
X264850Y659103D01*
D02*
G37*
G36*
X223510D02*
X223305Y658777D01*
X223125Y658434D01*
X222968Y658076D01*
X222835Y657701D01*
X222727Y657310D01*
X222642Y656904D01*
X222582Y656481D01*
X222546Y656042D01*
X222534Y655587D01*
X221034D01*
X221022Y656042D01*
X220986Y656481D01*
X220926Y656904D01*
X220841Y657310D01*
X220733Y657701D01*
X220600Y658076D01*
X220444Y658434D01*
X220263Y658777D01*
X220058Y659103D01*
X219829Y659414D01*
X223739D01*
X223510Y659103D01*
D02*
G37*
G36*
X182170D02*
X181965Y658777D01*
X181785Y658434D01*
X181628Y658076D01*
X181495Y657701D01*
X181387Y657310D01*
X181303Y656904D01*
X181242Y656481D01*
X181206Y656042D01*
X181194Y655587D01*
X179694D01*
X179682Y656042D01*
X179646Y656481D01*
X179586Y656904D01*
X179501Y657310D01*
X179393Y657701D01*
X179260Y658076D01*
X179104Y658434D01*
X178923Y658777D01*
X178718Y659103D01*
X178489Y659414D01*
X182399D01*
X182170Y659103D01*
D02*
G37*
G36*
X553265Y647352D02*
X553302Y646913D01*
X553362Y646490D01*
X553446Y646083D01*
X553554Y645693D01*
X553687Y645318D01*
X553844Y644959D01*
X554025Y644617D01*
X554229Y644290D01*
X554458Y643980D01*
X550548D01*
X550777Y644290D01*
X550982Y644617D01*
X551163Y644959D01*
X551320Y645318D01*
X551452Y645693D01*
X551561Y646083D01*
X551645Y646490D01*
X551705Y646913D01*
X551741Y647352D01*
X551753Y647807D01*
X553253D01*
X553265Y647352D01*
D02*
G37*
G36*
X511925D02*
X511962Y646913D01*
X512022Y646490D01*
X512106Y646083D01*
X512215Y645693D01*
X512347Y645318D01*
X512504Y644959D01*
X512685Y644617D01*
X512889Y644290D01*
X513118Y643980D01*
X509208D01*
X509437Y644290D01*
X509642Y644617D01*
X509823Y644959D01*
X509980Y645318D01*
X510112Y645693D01*
X510221Y646083D01*
X510305Y646490D01*
X510365Y646913D01*
X510401Y647352D01*
X510413Y647807D01*
X511913D01*
X511925Y647352D01*
D02*
G37*
G36*
X470586D02*
X470622Y646913D01*
X470682Y646490D01*
X470766Y646083D01*
X470875Y645693D01*
X471007Y645318D01*
X471164Y644959D01*
X471345Y644617D01*
X471549Y644290D01*
X471778Y643980D01*
X467868D01*
X468097Y644290D01*
X468302Y644617D01*
X468483Y644959D01*
X468640Y645318D01*
X468772Y645693D01*
X468881Y646083D01*
X468965Y646490D01*
X469025Y646913D01*
X469061Y647352D01*
X469073Y647807D01*
X470574D01*
X470586Y647352D01*
D02*
G37*
G36*
X429246D02*
X429282Y646913D01*
X429342Y646490D01*
X429426Y646083D01*
X429535Y645693D01*
X429667Y645318D01*
X429824Y644959D01*
X430005Y644617D01*
X430210Y644290D01*
X430439Y643980D01*
X426529D01*
X426758Y644290D01*
X426962Y644617D01*
X427143Y644959D01*
X427300Y645318D01*
X427432Y645693D01*
X427541Y646083D01*
X427625Y646490D01*
X427685Y646913D01*
X427721Y647352D01*
X427734Y647807D01*
X429234D01*
X429246Y647352D01*
D02*
G37*
G36*
X387906D02*
X387942Y646913D01*
X388002Y646490D01*
X388087Y646083D01*
X388195Y645693D01*
X388327Y645318D01*
X388484Y644959D01*
X388665Y644617D01*
X388870Y644290D01*
X389099Y643980D01*
X385189D01*
X385418Y644290D01*
X385622Y644617D01*
X385803Y644959D01*
X385960Y645318D01*
X386092Y645693D01*
X386201Y646083D01*
X386285Y646490D01*
X386345Y646913D01*
X386382Y647352D01*
X386394Y647807D01*
X387894D01*
X387906Y647352D01*
D02*
G37*
G36*
X346566D02*
X346602Y646913D01*
X346662Y646490D01*
X346747Y646083D01*
X346855Y645693D01*
X346988Y645318D01*
X347144Y644959D01*
X347325Y644617D01*
X347530Y644290D01*
X347759Y643980D01*
X343849D01*
X344078Y644290D01*
X344283Y644617D01*
X344463Y644959D01*
X344620Y645318D01*
X344753Y645693D01*
X344861Y646083D01*
X344945Y646490D01*
X345006Y646913D01*
X345042Y647352D01*
X345054Y647807D01*
X346554D01*
X346566Y647352D01*
D02*
G37*
G36*
X305226D02*
X305262Y646913D01*
X305322Y646490D01*
X305407Y646083D01*
X305515Y645693D01*
X305648Y645318D01*
X305804Y644959D01*
X305985Y644617D01*
X306190Y644290D01*
X306419Y643980D01*
X302509D01*
X302738Y644290D01*
X302943Y644617D01*
X303123Y644959D01*
X303280Y645318D01*
X303413Y645693D01*
X303521Y646083D01*
X303605Y646490D01*
X303666Y646913D01*
X303702Y647352D01*
X303714Y647807D01*
X305214D01*
X305226Y647352D01*
D02*
G37*
G36*
X263886D02*
X263922Y646913D01*
X263982Y646490D01*
X264067Y646083D01*
X264175Y645693D01*
X264308Y645318D01*
X264464Y644959D01*
X264645Y644617D01*
X264850Y644290D01*
X265079Y643980D01*
X261169D01*
X261398Y644290D01*
X261603Y644617D01*
X261784Y644959D01*
X261940Y645318D01*
X262073Y645693D01*
X262181Y646083D01*
X262265Y646490D01*
X262326Y646913D01*
X262362Y647352D01*
X262374Y647807D01*
X263874D01*
X263886Y647352D01*
D02*
G37*
G36*
X222546D02*
X222582Y646913D01*
X222642Y646490D01*
X222727Y646083D01*
X222835Y645693D01*
X222968Y645318D01*
X223125Y644959D01*
X223305Y644617D01*
X223510Y644290D01*
X223739Y643980D01*
X219829D01*
X220058Y644290D01*
X220263Y644617D01*
X220444Y644959D01*
X220600Y645318D01*
X220733Y645693D01*
X220841Y646083D01*
X220926Y646490D01*
X220986Y646913D01*
X221022Y647352D01*
X221034Y647807D01*
X222534D01*
X222546Y647352D01*
D02*
G37*
G36*
X181206D02*
X181242Y646913D01*
X181303Y646490D01*
X181387Y646083D01*
X181495Y645693D01*
X181628Y645318D01*
X181785Y644959D01*
X181965Y644617D01*
X182170Y644290D01*
X182399Y643980D01*
X178489D01*
X178718Y644290D01*
X178923Y644617D01*
X179104Y644959D01*
X179260Y645318D01*
X179393Y645693D01*
X179501Y646083D01*
X179586Y646490D01*
X179646Y646913D01*
X179682Y647352D01*
X179694Y647807D01*
X181194D01*
X181206Y647352D01*
D02*
G37*
G36*
X554229Y617063D02*
X554025Y616737D01*
X553844Y616394D01*
X553687Y616036D01*
X553554Y615661D01*
X553446Y615271D01*
X553362Y614864D01*
X553302Y614441D01*
X553265Y614002D01*
X553253Y613547D01*
X551753D01*
X551741Y614002D01*
X551705Y614441D01*
X551645Y614864D01*
X551561Y615271D01*
X551452Y615661D01*
X551320Y616036D01*
X551163Y616394D01*
X550982Y616737D01*
X550777Y617063D01*
X550548Y617374D01*
X554458D01*
X554229Y617063D01*
D02*
G37*
G36*
X512889D02*
X512685Y616737D01*
X512504Y616394D01*
X512347Y616036D01*
X512215Y615661D01*
X512106Y615271D01*
X512022Y614864D01*
X511962Y614441D01*
X511925Y614002D01*
X511913Y613547D01*
X510413D01*
X510401Y614002D01*
X510365Y614441D01*
X510305Y614864D01*
X510221Y615271D01*
X510112Y615661D01*
X509980Y616036D01*
X509823Y616394D01*
X509642Y616737D01*
X509437Y617063D01*
X509208Y617374D01*
X513118D01*
X512889Y617063D01*
D02*
G37*
G36*
X471549D02*
X471345Y616737D01*
X471164Y616394D01*
X471007Y616036D01*
X470875Y615661D01*
X470766Y615271D01*
X470682Y614864D01*
X470622Y614441D01*
X470586Y614002D01*
X470574Y613547D01*
X469073D01*
X469061Y614002D01*
X469025Y614441D01*
X468965Y614864D01*
X468881Y615271D01*
X468772Y615661D01*
X468640Y616036D01*
X468483Y616394D01*
X468302Y616737D01*
X468097Y617063D01*
X467868Y617374D01*
X471778D01*
X471549Y617063D01*
D02*
G37*
G36*
X430210D02*
X430005Y616737D01*
X429824Y616394D01*
X429667Y616036D01*
X429535Y615661D01*
X429426Y615271D01*
X429342Y614864D01*
X429282Y614441D01*
X429246Y614002D01*
X429234Y613547D01*
X427734D01*
X427721Y614002D01*
X427685Y614441D01*
X427625Y614864D01*
X427541Y615271D01*
X427432Y615661D01*
X427300Y616036D01*
X427143Y616394D01*
X426962Y616737D01*
X426758Y617063D01*
X426529Y617374D01*
X430439D01*
X430210Y617063D01*
D02*
G37*
G36*
X388870D02*
X388665Y616737D01*
X388484Y616394D01*
X388327Y616036D01*
X388195Y615661D01*
X388087Y615271D01*
X388002Y614864D01*
X387942Y614441D01*
X387906Y614002D01*
X387894Y613547D01*
X386394D01*
X386382Y614002D01*
X386345Y614441D01*
X386285Y614864D01*
X386201Y615271D01*
X386092Y615661D01*
X385960Y616036D01*
X385803Y616394D01*
X385622Y616737D01*
X385418Y617063D01*
X385189Y617374D01*
X389099D01*
X388870Y617063D01*
D02*
G37*
G36*
X347530D02*
X347325Y616737D01*
X347144Y616394D01*
X346988Y616036D01*
X346855Y615661D01*
X346747Y615271D01*
X346662Y614864D01*
X346602Y614441D01*
X346566Y614002D01*
X346554Y613547D01*
X345054D01*
X345042Y614002D01*
X345006Y614441D01*
X344945Y614864D01*
X344861Y615271D01*
X344753Y615661D01*
X344620Y616036D01*
X344463Y616394D01*
X344283Y616737D01*
X344078Y617063D01*
X343849Y617374D01*
X347759D01*
X347530Y617063D01*
D02*
G37*
G36*
X306190D02*
X305985Y616737D01*
X305804Y616394D01*
X305648Y616036D01*
X305515Y615661D01*
X305407Y615271D01*
X305322Y614864D01*
X305262Y614441D01*
X305226Y614002D01*
X305214Y613547D01*
X303714D01*
X303702Y614002D01*
X303666Y614441D01*
X303605Y614864D01*
X303521Y615271D01*
X303413Y615661D01*
X303280Y616036D01*
X303123Y616394D01*
X302943Y616737D01*
X302738Y617063D01*
X302509Y617374D01*
X306419D01*
X306190Y617063D01*
D02*
G37*
G36*
X264850D02*
X264645Y616737D01*
X264464Y616394D01*
X264308Y616036D01*
X264175Y615661D01*
X264067Y615271D01*
X263982Y614864D01*
X263922Y614441D01*
X263886Y614002D01*
X263874Y613547D01*
X262374D01*
X262362Y614002D01*
X262326Y614441D01*
X262265Y614864D01*
X262181Y615271D01*
X262073Y615661D01*
X261940Y616036D01*
X261784Y616394D01*
X261603Y616737D01*
X261398Y617063D01*
X261169Y617374D01*
X265079D01*
X264850Y617063D01*
D02*
G37*
G36*
X223510D02*
X223305Y616737D01*
X223125Y616394D01*
X222968Y616036D01*
X222835Y615661D01*
X222727Y615271D01*
X222642Y614864D01*
X222582Y614441D01*
X222546Y614002D01*
X222534Y613547D01*
X221034D01*
X221022Y614002D01*
X220986Y614441D01*
X220926Y614864D01*
X220841Y615271D01*
X220733Y615661D01*
X220600Y616036D01*
X220444Y616394D01*
X220263Y616737D01*
X220058Y617063D01*
X219829Y617374D01*
X223739D01*
X223510Y617063D01*
D02*
G37*
G36*
X182170D02*
X181965Y616737D01*
X181785Y616394D01*
X181628Y616036D01*
X181495Y615661D01*
X181387Y615271D01*
X181303Y614864D01*
X181242Y614441D01*
X181206Y614002D01*
X181194Y613547D01*
X179694D01*
X179682Y614002D01*
X179646Y614441D01*
X179586Y614864D01*
X179501Y615271D01*
X179393Y615661D01*
X179260Y616036D01*
X179104Y616394D01*
X178923Y616737D01*
X178718Y617063D01*
X178489Y617374D01*
X182399D01*
X182170Y617063D01*
D02*
G37*
G36*
X553265Y605312D02*
X553302Y604873D01*
X553362Y604450D01*
X553446Y604043D01*
X553554Y603653D01*
X553687Y603278D01*
X553844Y602920D01*
X554025Y602577D01*
X554229Y602251D01*
X554458Y601940D01*
X550548D01*
X550777Y602251D01*
X550982Y602577D01*
X551163Y602920D01*
X551320Y603278D01*
X551452Y603653D01*
X551561Y604043D01*
X551645Y604450D01*
X551705Y604873D01*
X551741Y605312D01*
X551753Y605767D01*
X553253D01*
X553265Y605312D01*
D02*
G37*
G36*
X511925D02*
X511962Y604873D01*
X512022Y604450D01*
X512106Y604043D01*
X512215Y603653D01*
X512347Y603278D01*
X512504Y602920D01*
X512685Y602577D01*
X512889Y602251D01*
X513118Y601940D01*
X509208D01*
X509437Y602251D01*
X509642Y602577D01*
X509823Y602920D01*
X509980Y603278D01*
X510112Y603653D01*
X510221Y604043D01*
X510305Y604450D01*
X510365Y604873D01*
X510401Y605312D01*
X510413Y605767D01*
X511913D01*
X511925Y605312D01*
D02*
G37*
G36*
X470586D02*
X470622Y604873D01*
X470682Y604450D01*
X470766Y604043D01*
X470875Y603653D01*
X471007Y603278D01*
X471164Y602920D01*
X471345Y602577D01*
X471549Y602251D01*
X471778Y601940D01*
X467868D01*
X468097Y602251D01*
X468302Y602577D01*
X468483Y602920D01*
X468640Y603278D01*
X468772Y603653D01*
X468881Y604043D01*
X468965Y604450D01*
X469025Y604873D01*
X469061Y605312D01*
X469073Y605767D01*
X470574D01*
X470586Y605312D01*
D02*
G37*
G36*
X429246D02*
X429282Y604873D01*
X429342Y604450D01*
X429426Y604043D01*
X429535Y603653D01*
X429667Y603278D01*
X429824Y602920D01*
X430005Y602577D01*
X430210Y602251D01*
X430439Y601940D01*
X426529D01*
X426758Y602251D01*
X426962Y602577D01*
X427143Y602920D01*
X427300Y603278D01*
X427432Y603653D01*
X427541Y604043D01*
X427625Y604450D01*
X427685Y604873D01*
X427721Y605312D01*
X427734Y605767D01*
X429234D01*
X429246Y605312D01*
D02*
G37*
G36*
X387906D02*
X387942Y604873D01*
X388002Y604450D01*
X388087Y604043D01*
X388195Y603653D01*
X388327Y603278D01*
X388484Y602920D01*
X388665Y602577D01*
X388870Y602251D01*
X389099Y601940D01*
X385189D01*
X385418Y602251D01*
X385622Y602577D01*
X385803Y602920D01*
X385960Y603278D01*
X386092Y603653D01*
X386201Y604043D01*
X386285Y604450D01*
X386345Y604873D01*
X386382Y605312D01*
X386394Y605767D01*
X387894D01*
X387906Y605312D01*
D02*
G37*
G36*
X346566D02*
X346602Y604873D01*
X346662Y604450D01*
X346747Y604043D01*
X346855Y603653D01*
X346988Y603278D01*
X347144Y602920D01*
X347325Y602577D01*
X347530Y602251D01*
X347759Y601940D01*
X343849D01*
X344078Y602251D01*
X344283Y602577D01*
X344463Y602920D01*
X344620Y603278D01*
X344753Y603653D01*
X344861Y604043D01*
X344945Y604450D01*
X345006Y604873D01*
X345042Y605312D01*
X345054Y605767D01*
X346554D01*
X346566Y605312D01*
D02*
G37*
G36*
X305226D02*
X305262Y604873D01*
X305322Y604450D01*
X305407Y604043D01*
X305515Y603653D01*
X305648Y603278D01*
X305804Y602920D01*
X305985Y602577D01*
X306190Y602251D01*
X306419Y601940D01*
X302509D01*
X302738Y602251D01*
X302943Y602577D01*
X303123Y602920D01*
X303280Y603278D01*
X303413Y603653D01*
X303521Y604043D01*
X303605Y604450D01*
X303666Y604873D01*
X303702Y605312D01*
X303714Y605767D01*
X305214D01*
X305226Y605312D01*
D02*
G37*
G36*
X263886D02*
X263922Y604873D01*
X263982Y604450D01*
X264067Y604043D01*
X264175Y603653D01*
X264308Y603278D01*
X264464Y602920D01*
X264645Y602577D01*
X264850Y602251D01*
X265079Y601940D01*
X261169D01*
X261398Y602251D01*
X261603Y602577D01*
X261784Y602920D01*
X261940Y603278D01*
X262073Y603653D01*
X262181Y604043D01*
X262265Y604450D01*
X262326Y604873D01*
X262362Y605312D01*
X262374Y605767D01*
X263874D01*
X263886Y605312D01*
D02*
G37*
G36*
X222546D02*
X222582Y604873D01*
X222642Y604450D01*
X222727Y604043D01*
X222835Y603653D01*
X222968Y603278D01*
X223125Y602920D01*
X223305Y602577D01*
X223510Y602251D01*
X223739Y601940D01*
X219829D01*
X220058Y602251D01*
X220263Y602577D01*
X220444Y602920D01*
X220600Y603278D01*
X220733Y603653D01*
X220841Y604043D01*
X220926Y604450D01*
X220986Y604873D01*
X221022Y605312D01*
X221034Y605767D01*
X222534D01*
X222546Y605312D01*
D02*
G37*
G36*
X181206D02*
X181242Y604873D01*
X181303Y604450D01*
X181387Y604043D01*
X181495Y603653D01*
X181628Y603278D01*
X181785Y602920D01*
X181965Y602577D01*
X182170Y602251D01*
X182399Y601940D01*
X178489D01*
X178718Y602251D01*
X178923Y602577D01*
X179104Y602920D01*
X179260Y603278D01*
X179393Y603653D01*
X179501Y604043D01*
X179586Y604450D01*
X179646Y604873D01*
X179682Y605312D01*
X179694Y605767D01*
X181194D01*
X181206Y605312D01*
D02*
G37*
G36*
X554229Y575023D02*
X554025Y574697D01*
X553844Y574354D01*
X553687Y573996D01*
X553554Y573621D01*
X553446Y573231D01*
X553362Y572824D01*
X553302Y572401D01*
X553265Y571962D01*
X553253Y571507D01*
X551753D01*
X551741Y571962D01*
X551705Y572401D01*
X551645Y572824D01*
X551561Y573231D01*
X551452Y573621D01*
X551320Y573996D01*
X551163Y574354D01*
X550982Y574697D01*
X550777Y575023D01*
X550548Y575334D01*
X554458D01*
X554229Y575023D01*
D02*
G37*
G36*
X512889D02*
X512685Y574697D01*
X512504Y574354D01*
X512347Y573996D01*
X512215Y573621D01*
X512106Y573231D01*
X512022Y572824D01*
X511962Y572401D01*
X511925Y571962D01*
X511913Y571507D01*
X510413D01*
X510401Y571962D01*
X510365Y572401D01*
X510305Y572824D01*
X510221Y573231D01*
X510112Y573621D01*
X509980Y573996D01*
X509823Y574354D01*
X509642Y574697D01*
X509437Y575023D01*
X509208Y575334D01*
X513118D01*
X512889Y575023D01*
D02*
G37*
G36*
X471549D02*
X471345Y574697D01*
X471164Y574354D01*
X471007Y573996D01*
X470875Y573621D01*
X470766Y573231D01*
X470682Y572824D01*
X470622Y572401D01*
X470586Y571962D01*
X470574Y571507D01*
X469073D01*
X469061Y571962D01*
X469025Y572401D01*
X468965Y572824D01*
X468881Y573231D01*
X468772Y573621D01*
X468640Y573996D01*
X468483Y574354D01*
X468302Y574697D01*
X468097Y575023D01*
X467868Y575334D01*
X471778D01*
X471549Y575023D01*
D02*
G37*
G36*
X430210D02*
X430005Y574697D01*
X429824Y574354D01*
X429667Y573996D01*
X429535Y573621D01*
X429426Y573231D01*
X429342Y572824D01*
X429282Y572401D01*
X429246Y571962D01*
X429234Y571507D01*
X427734D01*
X427721Y571962D01*
X427685Y572401D01*
X427625Y572824D01*
X427541Y573231D01*
X427432Y573621D01*
X427300Y573996D01*
X427143Y574354D01*
X426962Y574697D01*
X426758Y575023D01*
X426529Y575334D01*
X430439D01*
X430210Y575023D01*
D02*
G37*
G36*
X388870D02*
X388665Y574697D01*
X388484Y574354D01*
X388327Y573996D01*
X388195Y573621D01*
X388087Y573231D01*
X388002Y572824D01*
X387942Y572401D01*
X387906Y571962D01*
X387894Y571507D01*
X386394D01*
X386382Y571962D01*
X386345Y572401D01*
X386285Y572824D01*
X386201Y573231D01*
X386092Y573621D01*
X385960Y573996D01*
X385803Y574354D01*
X385622Y574697D01*
X385418Y575023D01*
X385189Y575334D01*
X389099D01*
X388870Y575023D01*
D02*
G37*
G36*
X347530D02*
X347325Y574697D01*
X347144Y574354D01*
X346988Y573996D01*
X346855Y573621D01*
X346747Y573231D01*
X346662Y572824D01*
X346602Y572401D01*
X346566Y571962D01*
X346554Y571507D01*
X345054D01*
X345042Y571962D01*
X345006Y572401D01*
X344945Y572824D01*
X344861Y573231D01*
X344753Y573621D01*
X344620Y573996D01*
X344463Y574354D01*
X344283Y574697D01*
X344078Y575023D01*
X343849Y575334D01*
X347759D01*
X347530Y575023D01*
D02*
G37*
G36*
X306190D02*
X305985Y574697D01*
X305804Y574354D01*
X305648Y573996D01*
X305515Y573621D01*
X305407Y573231D01*
X305322Y572824D01*
X305262Y572401D01*
X305226Y571962D01*
X305214Y571507D01*
X303714D01*
X303702Y571962D01*
X303666Y572401D01*
X303605Y572824D01*
X303521Y573231D01*
X303413Y573621D01*
X303280Y573996D01*
X303123Y574354D01*
X302943Y574697D01*
X302738Y575023D01*
X302509Y575334D01*
X306419D01*
X306190Y575023D01*
D02*
G37*
G36*
X264850D02*
X264645Y574697D01*
X264464Y574354D01*
X264308Y573996D01*
X264175Y573621D01*
X264067Y573231D01*
X263982Y572824D01*
X263922Y572401D01*
X263886Y571962D01*
X263874Y571507D01*
X262374D01*
X262362Y571962D01*
X262326Y572401D01*
X262265Y572824D01*
X262181Y573231D01*
X262073Y573621D01*
X261940Y573996D01*
X261784Y574354D01*
X261603Y574697D01*
X261398Y575023D01*
X261169Y575334D01*
X265079D01*
X264850Y575023D01*
D02*
G37*
G36*
X223510D02*
X223305Y574697D01*
X223125Y574354D01*
X222968Y573996D01*
X222835Y573621D01*
X222727Y573231D01*
X222642Y572824D01*
X222582Y572401D01*
X222546Y571962D01*
X222534Y571507D01*
X221034D01*
X221022Y571962D01*
X220986Y572401D01*
X220926Y572824D01*
X220841Y573231D01*
X220733Y573621D01*
X220600Y573996D01*
X220444Y574354D01*
X220263Y574697D01*
X220058Y575023D01*
X219829Y575334D01*
X223739D01*
X223510Y575023D01*
D02*
G37*
G36*
X182170D02*
X181965Y574697D01*
X181785Y574354D01*
X181628Y573996D01*
X181495Y573621D01*
X181387Y573231D01*
X181303Y572824D01*
X181242Y572401D01*
X181206Y571962D01*
X181194Y571507D01*
X179694D01*
X179682Y571962D01*
X179646Y572401D01*
X179586Y572824D01*
X179501Y573231D01*
X179393Y573621D01*
X179260Y573996D01*
X179104Y574354D01*
X178923Y574697D01*
X178718Y575023D01*
X178489Y575334D01*
X182399D01*
X182170Y575023D01*
D02*
G37*
G36*
X553265Y563272D02*
X553302Y562833D01*
X553362Y562410D01*
X553446Y562003D01*
X553554Y561613D01*
X553687Y561238D01*
X553844Y560880D01*
X554025Y560537D01*
X554229Y560210D01*
X554458Y559900D01*
X550548D01*
X550777Y560210D01*
X550982Y560537D01*
X551163Y560880D01*
X551320Y561238D01*
X551452Y561613D01*
X551561Y562003D01*
X551645Y562410D01*
X551705Y562833D01*
X551741Y563272D01*
X551753Y563727D01*
X553253D01*
X553265Y563272D01*
D02*
G37*
G36*
X511925D02*
X511962Y562833D01*
X512022Y562410D01*
X512106Y562003D01*
X512215Y561613D01*
X512347Y561238D01*
X512504Y560880D01*
X512685Y560537D01*
X512889Y560210D01*
X513118Y559900D01*
X509208D01*
X509437Y560210D01*
X509642Y560537D01*
X509823Y560880D01*
X509980Y561238D01*
X510112Y561613D01*
X510221Y562003D01*
X510305Y562410D01*
X510365Y562833D01*
X510401Y563272D01*
X510413Y563727D01*
X511913D01*
X511925Y563272D01*
D02*
G37*
G36*
X470586D02*
X470622Y562833D01*
X470682Y562410D01*
X470766Y562003D01*
X470875Y561613D01*
X471007Y561238D01*
X471164Y560880D01*
X471345Y560537D01*
X471549Y560210D01*
X471778Y559900D01*
X467868D01*
X468097Y560210D01*
X468302Y560537D01*
X468483Y560880D01*
X468640Y561238D01*
X468772Y561613D01*
X468881Y562003D01*
X468965Y562410D01*
X469025Y562833D01*
X469061Y563272D01*
X469073Y563727D01*
X470574D01*
X470586Y563272D01*
D02*
G37*
G36*
X429246D02*
X429282Y562833D01*
X429342Y562410D01*
X429426Y562003D01*
X429535Y561613D01*
X429667Y561238D01*
X429824Y560880D01*
X430005Y560537D01*
X430210Y560210D01*
X430439Y559900D01*
X426529D01*
X426758Y560210D01*
X426962Y560537D01*
X427143Y560880D01*
X427300Y561238D01*
X427432Y561613D01*
X427541Y562003D01*
X427625Y562410D01*
X427685Y562833D01*
X427721Y563272D01*
X427734Y563727D01*
X429234D01*
X429246Y563272D01*
D02*
G37*
G36*
X387906D02*
X387942Y562833D01*
X388002Y562410D01*
X388087Y562003D01*
X388195Y561613D01*
X388327Y561238D01*
X388484Y560880D01*
X388665Y560537D01*
X388870Y560210D01*
X389099Y559900D01*
X385189D01*
X385418Y560210D01*
X385622Y560537D01*
X385803Y560880D01*
X385960Y561238D01*
X386092Y561613D01*
X386201Y562003D01*
X386285Y562410D01*
X386345Y562833D01*
X386382Y563272D01*
X386394Y563727D01*
X387894D01*
X387906Y563272D01*
D02*
G37*
G36*
X346566D02*
X346602Y562833D01*
X346662Y562410D01*
X346747Y562003D01*
X346855Y561613D01*
X346988Y561238D01*
X347144Y560880D01*
X347325Y560537D01*
X347530Y560210D01*
X347759Y559900D01*
X343849D01*
X344078Y560210D01*
X344283Y560537D01*
X344463Y560880D01*
X344620Y561238D01*
X344753Y561613D01*
X344861Y562003D01*
X344945Y562410D01*
X345006Y562833D01*
X345042Y563272D01*
X345054Y563727D01*
X346554D01*
X346566Y563272D01*
D02*
G37*
G36*
X305226D02*
X305262Y562833D01*
X305322Y562410D01*
X305407Y562003D01*
X305515Y561613D01*
X305648Y561238D01*
X305804Y560880D01*
X305985Y560537D01*
X306190Y560210D01*
X306419Y559900D01*
X302509D01*
X302738Y560210D01*
X302943Y560537D01*
X303123Y560880D01*
X303280Y561238D01*
X303413Y561613D01*
X303521Y562003D01*
X303605Y562410D01*
X303666Y562833D01*
X303702Y563272D01*
X303714Y563727D01*
X305214D01*
X305226Y563272D01*
D02*
G37*
G36*
X263886D02*
X263922Y562833D01*
X263982Y562410D01*
X264067Y562003D01*
X264175Y561613D01*
X264308Y561238D01*
X264464Y560880D01*
X264645Y560537D01*
X264850Y560210D01*
X265079Y559900D01*
X261169D01*
X261398Y560210D01*
X261603Y560537D01*
X261784Y560880D01*
X261940Y561238D01*
X262073Y561613D01*
X262181Y562003D01*
X262265Y562410D01*
X262326Y562833D01*
X262362Y563272D01*
X262374Y563727D01*
X263874D01*
X263886Y563272D01*
D02*
G37*
G36*
X222546D02*
X222582Y562833D01*
X222642Y562410D01*
X222727Y562003D01*
X222835Y561613D01*
X222968Y561238D01*
X223125Y560880D01*
X223305Y560537D01*
X223510Y560210D01*
X223739Y559900D01*
X219829D01*
X220058Y560210D01*
X220263Y560537D01*
X220444Y560880D01*
X220600Y561238D01*
X220733Y561613D01*
X220841Y562003D01*
X220926Y562410D01*
X220986Y562833D01*
X221022Y563272D01*
X221034Y563727D01*
X222534D01*
X222546Y563272D01*
D02*
G37*
G36*
X181206D02*
X181242Y562833D01*
X181303Y562410D01*
X181387Y562003D01*
X181495Y561613D01*
X181628Y561238D01*
X181785Y560880D01*
X181965Y560537D01*
X182170Y560210D01*
X182399Y559900D01*
X178489D01*
X178718Y560210D01*
X178923Y560537D01*
X179104Y560880D01*
X179260Y561238D01*
X179393Y561613D01*
X179501Y562003D01*
X179586Y562410D01*
X179646Y562833D01*
X179682Y563272D01*
X179694Y563727D01*
X181194D01*
X181206Y563272D01*
D02*
G37*
G36*
X554229Y532983D02*
X554025Y532657D01*
X553844Y532314D01*
X553687Y531956D01*
X553554Y531581D01*
X553446Y531190D01*
X553362Y530784D01*
X553302Y530361D01*
X553265Y529922D01*
X553253Y529467D01*
X551753D01*
X551741Y529922D01*
X551705Y530361D01*
X551645Y530784D01*
X551561Y531190D01*
X551452Y531581D01*
X551320Y531956D01*
X551163Y532314D01*
X550982Y532657D01*
X550777Y532983D01*
X550548Y533294D01*
X554458D01*
X554229Y532983D01*
D02*
G37*
G36*
X512889D02*
X512685Y532657D01*
X512504Y532314D01*
X512347Y531956D01*
X512215Y531581D01*
X512106Y531190D01*
X512022Y530784D01*
X511962Y530361D01*
X511925Y529922D01*
X511913Y529467D01*
X510413D01*
X510401Y529922D01*
X510365Y530361D01*
X510305Y530784D01*
X510221Y531190D01*
X510112Y531581D01*
X509980Y531956D01*
X509823Y532314D01*
X509642Y532657D01*
X509437Y532983D01*
X509208Y533294D01*
X513118D01*
X512889Y532983D01*
D02*
G37*
G36*
X471549D02*
X471345Y532657D01*
X471164Y532314D01*
X471007Y531956D01*
X470875Y531581D01*
X470766Y531190D01*
X470682Y530784D01*
X470622Y530361D01*
X470586Y529922D01*
X470574Y529467D01*
X469073D01*
X469061Y529922D01*
X469025Y530361D01*
X468965Y530784D01*
X468881Y531190D01*
X468772Y531581D01*
X468640Y531956D01*
X468483Y532314D01*
X468302Y532657D01*
X468097Y532983D01*
X467868Y533294D01*
X471778D01*
X471549Y532983D01*
D02*
G37*
G36*
X430210D02*
X430005Y532657D01*
X429824Y532314D01*
X429667Y531956D01*
X429535Y531581D01*
X429426Y531190D01*
X429342Y530784D01*
X429282Y530361D01*
X429246Y529922D01*
X429234Y529467D01*
X427734D01*
X427721Y529922D01*
X427685Y530361D01*
X427625Y530784D01*
X427541Y531190D01*
X427432Y531581D01*
X427300Y531956D01*
X427143Y532314D01*
X426962Y532657D01*
X426758Y532983D01*
X426529Y533294D01*
X430439D01*
X430210Y532983D01*
D02*
G37*
G36*
X388870D02*
X388665Y532657D01*
X388484Y532314D01*
X388327Y531956D01*
X388195Y531581D01*
X388087Y531190D01*
X388002Y530784D01*
X387942Y530361D01*
X387906Y529922D01*
X387894Y529467D01*
X386394D01*
X386382Y529922D01*
X386345Y530361D01*
X386285Y530784D01*
X386201Y531190D01*
X386092Y531581D01*
X385960Y531956D01*
X385803Y532314D01*
X385622Y532657D01*
X385418Y532983D01*
X385189Y533294D01*
X389099D01*
X388870Y532983D01*
D02*
G37*
G36*
X347530D02*
X347325Y532657D01*
X347144Y532314D01*
X346988Y531956D01*
X346855Y531581D01*
X346747Y531190D01*
X346662Y530784D01*
X346602Y530361D01*
X346566Y529922D01*
X346554Y529467D01*
X345054D01*
X345042Y529922D01*
X345006Y530361D01*
X344945Y530784D01*
X344861Y531190D01*
X344753Y531581D01*
X344620Y531956D01*
X344463Y532314D01*
X344283Y532657D01*
X344078Y532983D01*
X343849Y533294D01*
X347759D01*
X347530Y532983D01*
D02*
G37*
G36*
X306190D02*
X305985Y532657D01*
X305804Y532314D01*
X305648Y531956D01*
X305515Y531581D01*
X305407Y531190D01*
X305322Y530784D01*
X305262Y530361D01*
X305226Y529922D01*
X305214Y529467D01*
X303714D01*
X303702Y529922D01*
X303666Y530361D01*
X303605Y530784D01*
X303521Y531190D01*
X303413Y531581D01*
X303280Y531956D01*
X303123Y532314D01*
X302943Y532657D01*
X302738Y532983D01*
X302509Y533294D01*
X306419D01*
X306190Y532983D01*
D02*
G37*
G36*
X264850D02*
X264645Y532657D01*
X264464Y532314D01*
X264308Y531956D01*
X264175Y531581D01*
X264067Y531190D01*
X263982Y530784D01*
X263922Y530361D01*
X263886Y529922D01*
X263874Y529467D01*
X262374D01*
X262362Y529922D01*
X262326Y530361D01*
X262265Y530784D01*
X262181Y531190D01*
X262073Y531581D01*
X261940Y531956D01*
X261784Y532314D01*
X261603Y532657D01*
X261398Y532983D01*
X261169Y533294D01*
X265079D01*
X264850Y532983D01*
D02*
G37*
G36*
X223510D02*
X223305Y532657D01*
X223125Y532314D01*
X222968Y531956D01*
X222835Y531581D01*
X222727Y531190D01*
X222642Y530784D01*
X222582Y530361D01*
X222546Y529922D01*
X222534Y529467D01*
X221034D01*
X221022Y529922D01*
X220986Y530361D01*
X220926Y530784D01*
X220841Y531190D01*
X220733Y531581D01*
X220600Y531956D01*
X220444Y532314D01*
X220263Y532657D01*
X220058Y532983D01*
X219829Y533294D01*
X223739D01*
X223510Y532983D01*
D02*
G37*
G36*
X182170D02*
X181965Y532657D01*
X181785Y532314D01*
X181628Y531956D01*
X181495Y531581D01*
X181387Y531190D01*
X181303Y530784D01*
X181242Y530361D01*
X181206Y529922D01*
X181194Y529467D01*
X179694D01*
X179682Y529922D01*
X179646Y530361D01*
X179586Y530784D01*
X179501Y531190D01*
X179393Y531581D01*
X179260Y531956D01*
X179104Y532314D01*
X178923Y532657D01*
X178718Y532983D01*
X178489Y533294D01*
X182399D01*
X182170Y532983D01*
D02*
G37*
G36*
X553265Y521232D02*
X553302Y520793D01*
X553362Y520370D01*
X553446Y519963D01*
X553554Y519573D01*
X553687Y519198D01*
X553844Y518839D01*
X554025Y518497D01*
X554229Y518171D01*
X554458Y517860D01*
X550548D01*
X550777Y518171D01*
X550982Y518497D01*
X551163Y518839D01*
X551320Y519198D01*
X551452Y519573D01*
X551561Y519963D01*
X551645Y520370D01*
X551705Y520793D01*
X551741Y521232D01*
X551753Y521687D01*
X553253D01*
X553265Y521232D01*
D02*
G37*
G36*
X511925D02*
X511962Y520793D01*
X512022Y520370D01*
X512106Y519963D01*
X512215Y519573D01*
X512347Y519198D01*
X512504Y518839D01*
X512685Y518497D01*
X512889Y518171D01*
X513118Y517860D01*
X509208D01*
X509437Y518171D01*
X509642Y518497D01*
X509823Y518839D01*
X509980Y519198D01*
X510112Y519573D01*
X510221Y519963D01*
X510305Y520370D01*
X510365Y520793D01*
X510401Y521232D01*
X510413Y521687D01*
X511913D01*
X511925Y521232D01*
D02*
G37*
G36*
X470586D02*
X470622Y520793D01*
X470682Y520370D01*
X470766Y519963D01*
X470875Y519573D01*
X471007Y519198D01*
X471164Y518839D01*
X471345Y518497D01*
X471549Y518171D01*
X471778Y517860D01*
X467868D01*
X468097Y518171D01*
X468302Y518497D01*
X468483Y518839D01*
X468640Y519198D01*
X468772Y519573D01*
X468881Y519963D01*
X468965Y520370D01*
X469025Y520793D01*
X469061Y521232D01*
X469073Y521687D01*
X470574D01*
X470586Y521232D01*
D02*
G37*
G36*
X429246D02*
X429282Y520793D01*
X429342Y520370D01*
X429426Y519963D01*
X429535Y519573D01*
X429667Y519198D01*
X429824Y518839D01*
X430005Y518497D01*
X430210Y518171D01*
X430439Y517860D01*
X426529D01*
X426758Y518171D01*
X426962Y518497D01*
X427143Y518839D01*
X427300Y519198D01*
X427432Y519573D01*
X427541Y519963D01*
X427625Y520370D01*
X427685Y520793D01*
X427721Y521232D01*
X427734Y521687D01*
X429234D01*
X429246Y521232D01*
D02*
G37*
G36*
X387906D02*
X387942Y520793D01*
X388002Y520370D01*
X388087Y519963D01*
X388195Y519573D01*
X388327Y519198D01*
X388484Y518839D01*
X388665Y518497D01*
X388870Y518171D01*
X389099Y517860D01*
X385189D01*
X385418Y518171D01*
X385622Y518497D01*
X385803Y518839D01*
X385960Y519198D01*
X386092Y519573D01*
X386201Y519963D01*
X386285Y520370D01*
X386345Y520793D01*
X386382Y521232D01*
X386394Y521687D01*
X387894D01*
X387906Y521232D01*
D02*
G37*
G36*
X346566D02*
X346602Y520793D01*
X346662Y520370D01*
X346747Y519963D01*
X346855Y519573D01*
X346988Y519198D01*
X347144Y518839D01*
X347325Y518497D01*
X347530Y518171D01*
X347759Y517860D01*
X343849D01*
X344078Y518171D01*
X344283Y518497D01*
X344463Y518839D01*
X344620Y519198D01*
X344753Y519573D01*
X344861Y519963D01*
X344945Y520370D01*
X345006Y520793D01*
X345042Y521232D01*
X345054Y521687D01*
X346554D01*
X346566Y521232D01*
D02*
G37*
G36*
X305226D02*
X305262Y520793D01*
X305322Y520370D01*
X305407Y519963D01*
X305515Y519573D01*
X305648Y519198D01*
X305804Y518839D01*
X305985Y518497D01*
X306190Y518171D01*
X306419Y517860D01*
X302509D01*
X302738Y518171D01*
X302943Y518497D01*
X303123Y518839D01*
X303280Y519198D01*
X303413Y519573D01*
X303521Y519963D01*
X303605Y520370D01*
X303666Y520793D01*
X303702Y521232D01*
X303714Y521687D01*
X305214D01*
X305226Y521232D01*
D02*
G37*
G36*
X263886D02*
X263922Y520793D01*
X263982Y520370D01*
X264067Y519963D01*
X264175Y519573D01*
X264308Y519198D01*
X264464Y518839D01*
X264645Y518497D01*
X264850Y518171D01*
X265079Y517860D01*
X261169D01*
X261398Y518171D01*
X261603Y518497D01*
X261784Y518839D01*
X261940Y519198D01*
X262073Y519573D01*
X262181Y519963D01*
X262265Y520370D01*
X262326Y520793D01*
X262362Y521232D01*
X262374Y521687D01*
X263874D01*
X263886Y521232D01*
D02*
G37*
G36*
X222546D02*
X222582Y520793D01*
X222642Y520370D01*
X222727Y519963D01*
X222835Y519573D01*
X222968Y519198D01*
X223125Y518839D01*
X223305Y518497D01*
X223510Y518171D01*
X223739Y517860D01*
X219829D01*
X220058Y518171D01*
X220263Y518497D01*
X220444Y518839D01*
X220600Y519198D01*
X220733Y519573D01*
X220841Y519963D01*
X220926Y520370D01*
X220986Y520793D01*
X221022Y521232D01*
X221034Y521687D01*
X222534D01*
X222546Y521232D01*
D02*
G37*
G36*
X181206D02*
X181242Y520793D01*
X181303Y520370D01*
X181387Y519963D01*
X181495Y519573D01*
X181628Y519198D01*
X181785Y518839D01*
X181965Y518497D01*
X182170Y518171D01*
X182399Y517860D01*
X178489D01*
X178718Y518171D01*
X178923Y518497D01*
X179104Y518839D01*
X179260Y519198D01*
X179393Y519573D01*
X179501Y519963D01*
X179586Y520370D01*
X179646Y520793D01*
X179682Y521232D01*
X179694Y521687D01*
X181194D01*
X181206Y521232D01*
D02*
G37*
G36*
X554229Y490943D02*
X554025Y490617D01*
X553844Y490274D01*
X553687Y489916D01*
X553554Y489541D01*
X553446Y489151D01*
X553362Y488744D01*
X553302Y488321D01*
X553265Y487882D01*
X553253Y487427D01*
X551753D01*
X551741Y487882D01*
X551705Y488321D01*
X551645Y488744D01*
X551561Y489151D01*
X551452Y489541D01*
X551320Y489916D01*
X551163Y490274D01*
X550982Y490617D01*
X550777Y490943D01*
X550548Y491254D01*
X554458D01*
X554229Y490943D01*
D02*
G37*
G36*
X512889D02*
X512685Y490617D01*
X512504Y490274D01*
X512347Y489916D01*
X512215Y489541D01*
X512106Y489151D01*
X512022Y488744D01*
X511962Y488321D01*
X511925Y487882D01*
X511913Y487427D01*
X510413D01*
X510401Y487882D01*
X510365Y488321D01*
X510305Y488744D01*
X510221Y489151D01*
X510112Y489541D01*
X509980Y489916D01*
X509823Y490274D01*
X509642Y490617D01*
X509437Y490943D01*
X509208Y491254D01*
X513118D01*
X512889Y490943D01*
D02*
G37*
G36*
X471549D02*
X471345Y490617D01*
X471164Y490274D01*
X471007Y489916D01*
X470875Y489541D01*
X470766Y489151D01*
X470682Y488744D01*
X470622Y488321D01*
X470586Y487882D01*
X470574Y487427D01*
X469073D01*
X469061Y487882D01*
X469025Y488321D01*
X468965Y488744D01*
X468881Y489151D01*
X468772Y489541D01*
X468640Y489916D01*
X468483Y490274D01*
X468302Y490617D01*
X468097Y490943D01*
X467868Y491254D01*
X471778D01*
X471549Y490943D01*
D02*
G37*
G36*
X430210D02*
X430005Y490617D01*
X429824Y490274D01*
X429667Y489916D01*
X429535Y489541D01*
X429426Y489151D01*
X429342Y488744D01*
X429282Y488321D01*
X429246Y487882D01*
X429234Y487427D01*
X427734D01*
X427721Y487882D01*
X427685Y488321D01*
X427625Y488744D01*
X427541Y489151D01*
X427432Y489541D01*
X427300Y489916D01*
X427143Y490274D01*
X426962Y490617D01*
X426758Y490943D01*
X426529Y491254D01*
X430439D01*
X430210Y490943D01*
D02*
G37*
G36*
X388870D02*
X388665Y490617D01*
X388484Y490274D01*
X388327Y489916D01*
X388195Y489541D01*
X388087Y489151D01*
X388002Y488744D01*
X387942Y488321D01*
X387906Y487882D01*
X387894Y487427D01*
X386394D01*
X386382Y487882D01*
X386345Y488321D01*
X386285Y488744D01*
X386201Y489151D01*
X386092Y489541D01*
X385960Y489916D01*
X385803Y490274D01*
X385622Y490617D01*
X385418Y490943D01*
X385189Y491254D01*
X389099D01*
X388870Y490943D01*
D02*
G37*
G36*
X347530D02*
X347325Y490617D01*
X347144Y490274D01*
X346988Y489916D01*
X346855Y489541D01*
X346747Y489151D01*
X346662Y488744D01*
X346602Y488321D01*
X346566Y487882D01*
X346554Y487427D01*
X345054D01*
X345042Y487882D01*
X345006Y488321D01*
X344945Y488744D01*
X344861Y489151D01*
X344753Y489541D01*
X344620Y489916D01*
X344463Y490274D01*
X344283Y490617D01*
X344078Y490943D01*
X343849Y491254D01*
X347759D01*
X347530Y490943D01*
D02*
G37*
G36*
X306190D02*
X305985Y490617D01*
X305804Y490274D01*
X305648Y489916D01*
X305515Y489541D01*
X305407Y489151D01*
X305322Y488744D01*
X305262Y488321D01*
X305226Y487882D01*
X305214Y487427D01*
X303714D01*
X303702Y487882D01*
X303666Y488321D01*
X303605Y488744D01*
X303521Y489151D01*
X303413Y489541D01*
X303280Y489916D01*
X303123Y490274D01*
X302943Y490617D01*
X302738Y490943D01*
X302509Y491254D01*
X306419D01*
X306190Y490943D01*
D02*
G37*
G36*
X264850D02*
X264645Y490617D01*
X264464Y490274D01*
X264308Y489916D01*
X264175Y489541D01*
X264067Y489151D01*
X263982Y488744D01*
X263922Y488321D01*
X263886Y487882D01*
X263874Y487427D01*
X262374D01*
X262362Y487882D01*
X262326Y488321D01*
X262265Y488744D01*
X262181Y489151D01*
X262073Y489541D01*
X261940Y489916D01*
X261784Y490274D01*
X261603Y490617D01*
X261398Y490943D01*
X261169Y491254D01*
X265079D01*
X264850Y490943D01*
D02*
G37*
G36*
X223510D02*
X223305Y490617D01*
X223125Y490274D01*
X222968Y489916D01*
X222835Y489541D01*
X222727Y489151D01*
X222642Y488744D01*
X222582Y488321D01*
X222546Y487882D01*
X222534Y487427D01*
X221034D01*
X221022Y487882D01*
X220986Y488321D01*
X220926Y488744D01*
X220841Y489151D01*
X220733Y489541D01*
X220600Y489916D01*
X220444Y490274D01*
X220263Y490617D01*
X220058Y490943D01*
X219829Y491254D01*
X223739D01*
X223510Y490943D01*
D02*
G37*
G36*
X182170D02*
X181965Y490617D01*
X181785Y490274D01*
X181628Y489916D01*
X181495Y489541D01*
X181387Y489151D01*
X181303Y488744D01*
X181242Y488321D01*
X181206Y487882D01*
X181194Y487427D01*
X179694D01*
X179682Y487882D01*
X179646Y488321D01*
X179586Y488744D01*
X179501Y489151D01*
X179393Y489541D01*
X179260Y489916D01*
X179104Y490274D01*
X178923Y490617D01*
X178718Y490943D01*
X178489Y491254D01*
X182399D01*
X182170Y490943D01*
D02*
G37*
G36*
X553265Y479192D02*
X553302Y478753D01*
X553362Y478330D01*
X553446Y477923D01*
X553554Y477533D01*
X553687Y477158D01*
X553844Y476800D01*
X554025Y476457D01*
X554229Y476130D01*
X554458Y475820D01*
X550548D01*
X550777Y476130D01*
X550982Y476457D01*
X551163Y476800D01*
X551320Y477158D01*
X551452Y477533D01*
X551561Y477923D01*
X551645Y478330D01*
X551705Y478753D01*
X551741Y479192D01*
X551753Y479647D01*
X553253D01*
X553265Y479192D01*
D02*
G37*
G36*
X511925D02*
X511962Y478753D01*
X512022Y478330D01*
X512106Y477923D01*
X512215Y477533D01*
X512347Y477158D01*
X512504Y476800D01*
X512685Y476457D01*
X512889Y476130D01*
X513118Y475820D01*
X509208D01*
X509437Y476130D01*
X509642Y476457D01*
X509823Y476800D01*
X509980Y477158D01*
X510112Y477533D01*
X510221Y477923D01*
X510305Y478330D01*
X510365Y478753D01*
X510401Y479192D01*
X510413Y479647D01*
X511913D01*
X511925Y479192D01*
D02*
G37*
G36*
X470586D02*
X470622Y478753D01*
X470682Y478330D01*
X470766Y477923D01*
X470875Y477533D01*
X471007Y477158D01*
X471164Y476800D01*
X471345Y476457D01*
X471549Y476130D01*
X471778Y475820D01*
X467868D01*
X468097Y476130D01*
X468302Y476457D01*
X468483Y476800D01*
X468640Y477158D01*
X468772Y477533D01*
X468881Y477923D01*
X468965Y478330D01*
X469025Y478753D01*
X469061Y479192D01*
X469073Y479647D01*
X470574D01*
X470586Y479192D01*
D02*
G37*
G36*
X429246D02*
X429282Y478753D01*
X429342Y478330D01*
X429426Y477923D01*
X429535Y477533D01*
X429667Y477158D01*
X429824Y476800D01*
X430005Y476457D01*
X430210Y476130D01*
X430439Y475820D01*
X426529D01*
X426758Y476130D01*
X426962Y476457D01*
X427143Y476800D01*
X427300Y477158D01*
X427432Y477533D01*
X427541Y477923D01*
X427625Y478330D01*
X427685Y478753D01*
X427721Y479192D01*
X427734Y479647D01*
X429234D01*
X429246Y479192D01*
D02*
G37*
G36*
X387906D02*
X387942Y478753D01*
X388002Y478330D01*
X388087Y477923D01*
X388195Y477533D01*
X388327Y477158D01*
X388484Y476800D01*
X388665Y476457D01*
X388870Y476130D01*
X389099Y475820D01*
X385189D01*
X385418Y476130D01*
X385622Y476457D01*
X385803Y476800D01*
X385960Y477158D01*
X386092Y477533D01*
X386201Y477923D01*
X386285Y478330D01*
X386345Y478753D01*
X386382Y479192D01*
X386394Y479647D01*
X387894D01*
X387906Y479192D01*
D02*
G37*
G36*
X346566D02*
X346602Y478753D01*
X346662Y478330D01*
X346747Y477923D01*
X346855Y477533D01*
X346988Y477158D01*
X347144Y476800D01*
X347325Y476457D01*
X347530Y476130D01*
X347759Y475820D01*
X343849D01*
X344078Y476130D01*
X344283Y476457D01*
X344463Y476800D01*
X344620Y477158D01*
X344753Y477533D01*
X344861Y477923D01*
X344945Y478330D01*
X345006Y478753D01*
X345042Y479192D01*
X345054Y479647D01*
X346554D01*
X346566Y479192D01*
D02*
G37*
G36*
X305226D02*
X305262Y478753D01*
X305322Y478330D01*
X305407Y477923D01*
X305515Y477533D01*
X305648Y477158D01*
X305804Y476800D01*
X305985Y476457D01*
X306190Y476130D01*
X306419Y475820D01*
X302509D01*
X302738Y476130D01*
X302943Y476457D01*
X303123Y476800D01*
X303280Y477158D01*
X303413Y477533D01*
X303521Y477923D01*
X303605Y478330D01*
X303666Y478753D01*
X303702Y479192D01*
X303714Y479647D01*
X305214D01*
X305226Y479192D01*
D02*
G37*
G36*
X263886D02*
X263922Y478753D01*
X263982Y478330D01*
X264067Y477923D01*
X264175Y477533D01*
X264308Y477158D01*
X264464Y476800D01*
X264645Y476457D01*
X264850Y476130D01*
X265079Y475820D01*
X261169D01*
X261398Y476130D01*
X261603Y476457D01*
X261784Y476800D01*
X261940Y477158D01*
X262073Y477533D01*
X262181Y477923D01*
X262265Y478330D01*
X262326Y478753D01*
X262362Y479192D01*
X262374Y479647D01*
X263874D01*
X263886Y479192D01*
D02*
G37*
G36*
X222546D02*
X222582Y478753D01*
X222642Y478330D01*
X222727Y477923D01*
X222835Y477533D01*
X222968Y477158D01*
X223125Y476800D01*
X223305Y476457D01*
X223510Y476130D01*
X223739Y475820D01*
X219829D01*
X220058Y476130D01*
X220263Y476457D01*
X220444Y476800D01*
X220600Y477158D01*
X220733Y477533D01*
X220841Y477923D01*
X220926Y478330D01*
X220986Y478753D01*
X221022Y479192D01*
X221034Y479647D01*
X222534D01*
X222546Y479192D01*
D02*
G37*
G36*
X181206D02*
X181242Y478753D01*
X181303Y478330D01*
X181387Y477923D01*
X181495Y477533D01*
X181628Y477158D01*
X181785Y476800D01*
X181965Y476457D01*
X182170Y476130D01*
X182399Y475820D01*
X178489D01*
X178718Y476130D01*
X178923Y476457D01*
X179104Y476800D01*
X179260Y477158D01*
X179393Y477533D01*
X179501Y477923D01*
X179586Y478330D01*
X179646Y478753D01*
X179682Y479192D01*
X179694Y479647D01*
X181194D01*
X181206Y479192D01*
D02*
G37*
G36*
X554229Y448903D02*
X554025Y448577D01*
X553844Y448234D01*
X553687Y447876D01*
X553554Y447501D01*
X553446Y447110D01*
X553362Y446704D01*
X553302Y446281D01*
X553265Y445842D01*
X553253Y445387D01*
X551753D01*
X551741Y445842D01*
X551705Y446281D01*
X551645Y446704D01*
X551561Y447110D01*
X551452Y447501D01*
X551320Y447876D01*
X551163Y448234D01*
X550982Y448577D01*
X550777Y448903D01*
X550548Y449214D01*
X554458D01*
X554229Y448903D01*
D02*
G37*
G36*
X512889D02*
X512685Y448577D01*
X512504Y448234D01*
X512347Y447876D01*
X512215Y447501D01*
X512106Y447110D01*
X512022Y446704D01*
X511962Y446281D01*
X511925Y445842D01*
X511913Y445387D01*
X510413D01*
X510401Y445842D01*
X510365Y446281D01*
X510305Y446704D01*
X510221Y447110D01*
X510112Y447501D01*
X509980Y447876D01*
X509823Y448234D01*
X509642Y448577D01*
X509437Y448903D01*
X509208Y449214D01*
X513118D01*
X512889Y448903D01*
D02*
G37*
G36*
X471549D02*
X471345Y448577D01*
X471164Y448234D01*
X471007Y447876D01*
X470875Y447501D01*
X470766Y447110D01*
X470682Y446704D01*
X470622Y446281D01*
X470586Y445842D01*
X470574Y445387D01*
X469073D01*
X469061Y445842D01*
X469025Y446281D01*
X468965Y446704D01*
X468881Y447110D01*
X468772Y447501D01*
X468640Y447876D01*
X468483Y448234D01*
X468302Y448577D01*
X468097Y448903D01*
X467868Y449214D01*
X471778D01*
X471549Y448903D01*
D02*
G37*
G36*
X430210D02*
X430005Y448577D01*
X429824Y448234D01*
X429667Y447876D01*
X429535Y447501D01*
X429426Y447110D01*
X429342Y446704D01*
X429282Y446281D01*
X429246Y445842D01*
X429234Y445387D01*
X427734D01*
X427721Y445842D01*
X427685Y446281D01*
X427625Y446704D01*
X427541Y447110D01*
X427432Y447501D01*
X427300Y447876D01*
X427143Y448234D01*
X426962Y448577D01*
X426758Y448903D01*
X426529Y449214D01*
X430439D01*
X430210Y448903D01*
D02*
G37*
G36*
X388870D02*
X388665Y448577D01*
X388484Y448234D01*
X388327Y447876D01*
X388195Y447501D01*
X388087Y447110D01*
X388002Y446704D01*
X387942Y446281D01*
X387906Y445842D01*
X387894Y445387D01*
X386394D01*
X386382Y445842D01*
X386345Y446281D01*
X386285Y446704D01*
X386201Y447110D01*
X386092Y447501D01*
X385960Y447876D01*
X385803Y448234D01*
X385622Y448577D01*
X385418Y448903D01*
X385189Y449214D01*
X389099D01*
X388870Y448903D01*
D02*
G37*
G36*
X347530D02*
X347325Y448577D01*
X347144Y448234D01*
X346988Y447876D01*
X346855Y447501D01*
X346747Y447110D01*
X346662Y446704D01*
X346602Y446281D01*
X346566Y445842D01*
X346554Y445387D01*
X345054D01*
X345042Y445842D01*
X345006Y446281D01*
X344945Y446704D01*
X344861Y447110D01*
X344753Y447501D01*
X344620Y447876D01*
X344463Y448234D01*
X344283Y448577D01*
X344078Y448903D01*
X343849Y449214D01*
X347759D01*
X347530Y448903D01*
D02*
G37*
G36*
X306190D02*
X305985Y448577D01*
X305804Y448234D01*
X305648Y447876D01*
X305515Y447501D01*
X305407Y447110D01*
X305322Y446704D01*
X305262Y446281D01*
X305226Y445842D01*
X305214Y445387D01*
X303714D01*
X303702Y445842D01*
X303666Y446281D01*
X303605Y446704D01*
X303521Y447110D01*
X303413Y447501D01*
X303280Y447876D01*
X303123Y448234D01*
X302943Y448577D01*
X302738Y448903D01*
X302509Y449214D01*
X306419D01*
X306190Y448903D01*
D02*
G37*
G36*
X264850D02*
X264645Y448577D01*
X264464Y448234D01*
X264308Y447876D01*
X264175Y447501D01*
X264067Y447110D01*
X263982Y446704D01*
X263922Y446281D01*
X263886Y445842D01*
X263874Y445387D01*
X262374D01*
X262362Y445842D01*
X262326Y446281D01*
X262265Y446704D01*
X262181Y447110D01*
X262073Y447501D01*
X261940Y447876D01*
X261784Y448234D01*
X261603Y448577D01*
X261398Y448903D01*
X261169Y449214D01*
X265079D01*
X264850Y448903D01*
D02*
G37*
G36*
X223510D02*
X223305Y448577D01*
X223125Y448234D01*
X222968Y447876D01*
X222835Y447501D01*
X222727Y447110D01*
X222642Y446704D01*
X222582Y446281D01*
X222546Y445842D01*
X222534Y445387D01*
X221034D01*
X221022Y445842D01*
X220986Y446281D01*
X220926Y446704D01*
X220841Y447110D01*
X220733Y447501D01*
X220600Y447876D01*
X220444Y448234D01*
X220263Y448577D01*
X220058Y448903D01*
X219829Y449214D01*
X223739D01*
X223510Y448903D01*
D02*
G37*
G36*
X182170D02*
X181965Y448577D01*
X181785Y448234D01*
X181628Y447876D01*
X181495Y447501D01*
X181387Y447110D01*
X181303Y446704D01*
X181242Y446281D01*
X181206Y445842D01*
X181194Y445387D01*
X179694D01*
X179682Y445842D01*
X179646Y446281D01*
X179586Y446704D01*
X179501Y447110D01*
X179393Y447501D01*
X179260Y447876D01*
X179104Y448234D01*
X178923Y448577D01*
X178718Y448903D01*
X178489Y449214D01*
X182399D01*
X182170Y448903D01*
D02*
G37*
G36*
X553265Y437152D02*
X553302Y436713D01*
X553362Y436290D01*
X553446Y435883D01*
X553554Y435493D01*
X553687Y435118D01*
X553844Y434759D01*
X554025Y434417D01*
X554229Y434090D01*
X554458Y433780D01*
X550548D01*
X550777Y434090D01*
X550982Y434417D01*
X551163Y434759D01*
X551320Y435118D01*
X551452Y435493D01*
X551561Y435883D01*
X551645Y436290D01*
X551705Y436713D01*
X551741Y437152D01*
X551753Y437607D01*
X553253D01*
X553265Y437152D01*
D02*
G37*
G36*
X511925D02*
X511962Y436713D01*
X512022Y436290D01*
X512106Y435883D01*
X512215Y435493D01*
X512347Y435118D01*
X512504Y434759D01*
X512685Y434417D01*
X512889Y434090D01*
X513118Y433780D01*
X509208D01*
X509437Y434090D01*
X509642Y434417D01*
X509823Y434759D01*
X509980Y435118D01*
X510112Y435493D01*
X510221Y435883D01*
X510305Y436290D01*
X510365Y436713D01*
X510401Y437152D01*
X510413Y437607D01*
X511913D01*
X511925Y437152D01*
D02*
G37*
G36*
X470586D02*
X470622Y436713D01*
X470682Y436290D01*
X470766Y435883D01*
X470875Y435493D01*
X471007Y435118D01*
X471164Y434759D01*
X471345Y434417D01*
X471549Y434090D01*
X471778Y433780D01*
X467868D01*
X468097Y434090D01*
X468302Y434417D01*
X468483Y434759D01*
X468640Y435118D01*
X468772Y435493D01*
X468881Y435883D01*
X468965Y436290D01*
X469025Y436713D01*
X469061Y437152D01*
X469073Y437607D01*
X470574D01*
X470586Y437152D01*
D02*
G37*
G36*
X429246D02*
X429282Y436713D01*
X429342Y436290D01*
X429426Y435883D01*
X429535Y435493D01*
X429667Y435118D01*
X429824Y434759D01*
X430005Y434417D01*
X430210Y434090D01*
X430439Y433780D01*
X426529D01*
X426758Y434090D01*
X426962Y434417D01*
X427143Y434759D01*
X427300Y435118D01*
X427432Y435493D01*
X427541Y435883D01*
X427625Y436290D01*
X427685Y436713D01*
X427721Y437152D01*
X427734Y437607D01*
X429234D01*
X429246Y437152D01*
D02*
G37*
G36*
X387906D02*
X387942Y436713D01*
X388002Y436290D01*
X388087Y435883D01*
X388195Y435493D01*
X388327Y435118D01*
X388484Y434759D01*
X388665Y434417D01*
X388870Y434090D01*
X389099Y433780D01*
X385189D01*
X385418Y434090D01*
X385622Y434417D01*
X385803Y434759D01*
X385960Y435118D01*
X386092Y435493D01*
X386201Y435883D01*
X386285Y436290D01*
X386345Y436713D01*
X386382Y437152D01*
X386394Y437607D01*
X387894D01*
X387906Y437152D01*
D02*
G37*
G36*
X346566D02*
X346602Y436713D01*
X346662Y436290D01*
X346747Y435883D01*
X346855Y435493D01*
X346988Y435118D01*
X347144Y434759D01*
X347325Y434417D01*
X347530Y434090D01*
X347759Y433780D01*
X343849D01*
X344078Y434090D01*
X344283Y434417D01*
X344463Y434759D01*
X344620Y435118D01*
X344753Y435493D01*
X344861Y435883D01*
X344945Y436290D01*
X345006Y436713D01*
X345042Y437152D01*
X345054Y437607D01*
X346554D01*
X346566Y437152D01*
D02*
G37*
G36*
X305226D02*
X305262Y436713D01*
X305322Y436290D01*
X305407Y435883D01*
X305515Y435493D01*
X305648Y435118D01*
X305804Y434759D01*
X305985Y434417D01*
X306190Y434090D01*
X306419Y433780D01*
X302509D01*
X302738Y434090D01*
X302943Y434417D01*
X303123Y434759D01*
X303280Y435118D01*
X303413Y435493D01*
X303521Y435883D01*
X303605Y436290D01*
X303666Y436713D01*
X303702Y437152D01*
X303714Y437607D01*
X305214D01*
X305226Y437152D01*
D02*
G37*
G36*
X263886D02*
X263922Y436713D01*
X263982Y436290D01*
X264067Y435883D01*
X264175Y435493D01*
X264308Y435118D01*
X264464Y434759D01*
X264645Y434417D01*
X264850Y434090D01*
X265079Y433780D01*
X261169D01*
X261398Y434090D01*
X261603Y434417D01*
X261784Y434759D01*
X261940Y435118D01*
X262073Y435493D01*
X262181Y435883D01*
X262265Y436290D01*
X262326Y436713D01*
X262362Y437152D01*
X262374Y437607D01*
X263874D01*
X263886Y437152D01*
D02*
G37*
G36*
X222546D02*
X222582Y436713D01*
X222642Y436290D01*
X222727Y435883D01*
X222835Y435493D01*
X222968Y435118D01*
X223125Y434759D01*
X223305Y434417D01*
X223510Y434090D01*
X223739Y433780D01*
X219829D01*
X220058Y434090D01*
X220263Y434417D01*
X220444Y434759D01*
X220600Y435118D01*
X220733Y435493D01*
X220841Y435883D01*
X220926Y436290D01*
X220986Y436713D01*
X221022Y437152D01*
X221034Y437607D01*
X222534D01*
X222546Y437152D01*
D02*
G37*
G36*
X181206D02*
X181242Y436713D01*
X181303Y436290D01*
X181387Y435883D01*
X181495Y435493D01*
X181628Y435118D01*
X181785Y434759D01*
X181965Y434417D01*
X182170Y434090D01*
X182399Y433780D01*
X178489D01*
X178718Y434090D01*
X178923Y434417D01*
X179104Y434759D01*
X179260Y435118D01*
X179393Y435493D01*
X179501Y435883D01*
X179586Y436290D01*
X179646Y436713D01*
X179682Y437152D01*
X179694Y437607D01*
X181194D01*
X181206Y437152D01*
D02*
G37*
G36*
X554229Y406863D02*
X554025Y406537D01*
X553844Y406194D01*
X553687Y405836D01*
X553554Y405461D01*
X553446Y405070D01*
X553362Y404664D01*
X553302Y404241D01*
X553265Y403802D01*
X553253Y403347D01*
X551753D01*
X551741Y403802D01*
X551705Y404241D01*
X551645Y404664D01*
X551561Y405070D01*
X551452Y405461D01*
X551320Y405836D01*
X551163Y406194D01*
X550982Y406537D01*
X550777Y406863D01*
X550548Y407174D01*
X554458D01*
X554229Y406863D01*
D02*
G37*
G36*
X512889D02*
X512685Y406537D01*
X512504Y406194D01*
X512347Y405836D01*
X512215Y405461D01*
X512106Y405070D01*
X512022Y404664D01*
X511962Y404241D01*
X511925Y403802D01*
X511913Y403347D01*
X510413D01*
X510401Y403802D01*
X510365Y404241D01*
X510305Y404664D01*
X510221Y405070D01*
X510112Y405461D01*
X509980Y405836D01*
X509823Y406194D01*
X509642Y406537D01*
X509437Y406863D01*
X509208Y407174D01*
X513118D01*
X512889Y406863D01*
D02*
G37*
G36*
X471549D02*
X471345Y406537D01*
X471164Y406194D01*
X471007Y405836D01*
X470875Y405461D01*
X470766Y405070D01*
X470682Y404664D01*
X470622Y404241D01*
X470586Y403802D01*
X470574Y403347D01*
X469073D01*
X469061Y403802D01*
X469025Y404241D01*
X468965Y404664D01*
X468881Y405070D01*
X468772Y405461D01*
X468640Y405836D01*
X468483Y406194D01*
X468302Y406537D01*
X468097Y406863D01*
X467868Y407174D01*
X471778D01*
X471549Y406863D01*
D02*
G37*
G36*
X430210D02*
X430005Y406537D01*
X429824Y406194D01*
X429667Y405836D01*
X429535Y405461D01*
X429426Y405070D01*
X429342Y404664D01*
X429282Y404241D01*
X429246Y403802D01*
X429234Y403347D01*
X427734D01*
X427721Y403802D01*
X427685Y404241D01*
X427625Y404664D01*
X427541Y405070D01*
X427432Y405461D01*
X427300Y405836D01*
X427143Y406194D01*
X426962Y406537D01*
X426758Y406863D01*
X426529Y407174D01*
X430439D01*
X430210Y406863D01*
D02*
G37*
G36*
X388870D02*
X388665Y406537D01*
X388484Y406194D01*
X388327Y405836D01*
X388195Y405461D01*
X388087Y405070D01*
X388002Y404664D01*
X387942Y404241D01*
X387906Y403802D01*
X387894Y403347D01*
X386394D01*
X386382Y403802D01*
X386345Y404241D01*
X386285Y404664D01*
X386201Y405070D01*
X386092Y405461D01*
X385960Y405836D01*
X385803Y406194D01*
X385622Y406537D01*
X385418Y406863D01*
X385189Y407174D01*
X389099D01*
X388870Y406863D01*
D02*
G37*
G36*
X347530D02*
X347325Y406537D01*
X347144Y406194D01*
X346988Y405836D01*
X346855Y405461D01*
X346747Y405070D01*
X346662Y404664D01*
X346602Y404241D01*
X346566Y403802D01*
X346554Y403347D01*
X345054D01*
X345042Y403802D01*
X345006Y404241D01*
X344945Y404664D01*
X344861Y405070D01*
X344753Y405461D01*
X344620Y405836D01*
X344463Y406194D01*
X344283Y406537D01*
X344078Y406863D01*
X343849Y407174D01*
X347759D01*
X347530Y406863D01*
D02*
G37*
G36*
X306190D02*
X305985Y406537D01*
X305804Y406194D01*
X305648Y405836D01*
X305515Y405461D01*
X305407Y405070D01*
X305322Y404664D01*
X305262Y404241D01*
X305226Y403802D01*
X305214Y403347D01*
X303714D01*
X303702Y403802D01*
X303666Y404241D01*
X303605Y404664D01*
X303521Y405070D01*
X303413Y405461D01*
X303280Y405836D01*
X303123Y406194D01*
X302943Y406537D01*
X302738Y406863D01*
X302509Y407174D01*
X306419D01*
X306190Y406863D01*
D02*
G37*
G36*
X264850D02*
X264645Y406537D01*
X264464Y406194D01*
X264308Y405836D01*
X264175Y405461D01*
X264067Y405070D01*
X263982Y404664D01*
X263922Y404241D01*
X263886Y403802D01*
X263874Y403347D01*
X262374D01*
X262362Y403802D01*
X262326Y404241D01*
X262265Y404664D01*
X262181Y405070D01*
X262073Y405461D01*
X261940Y405836D01*
X261784Y406194D01*
X261603Y406537D01*
X261398Y406863D01*
X261169Y407174D01*
X265079D01*
X264850Y406863D01*
D02*
G37*
G36*
X223510D02*
X223305Y406537D01*
X223125Y406194D01*
X222968Y405836D01*
X222835Y405461D01*
X222727Y405070D01*
X222642Y404664D01*
X222582Y404241D01*
X222546Y403802D01*
X222534Y403347D01*
X221034D01*
X221022Y403802D01*
X220986Y404241D01*
X220926Y404664D01*
X220841Y405070D01*
X220733Y405461D01*
X220600Y405836D01*
X220444Y406194D01*
X220263Y406537D01*
X220058Y406863D01*
X219829Y407174D01*
X223739D01*
X223510Y406863D01*
D02*
G37*
G36*
X182170D02*
X181965Y406537D01*
X181785Y406194D01*
X181628Y405836D01*
X181495Y405461D01*
X181387Y405070D01*
X181303Y404664D01*
X181242Y404241D01*
X181206Y403802D01*
X181194Y403347D01*
X179694D01*
X179682Y403802D01*
X179646Y404241D01*
X179586Y404664D01*
X179501Y405070D01*
X179393Y405461D01*
X179260Y405836D01*
X179104Y406194D01*
X178923Y406537D01*
X178718Y406863D01*
X178489Y407174D01*
X182399D01*
X182170Y406863D01*
D02*
G37*
G36*
X553265Y395112D02*
X553302Y394673D01*
X553362Y394250D01*
X553446Y393843D01*
X553554Y393453D01*
X553687Y393078D01*
X553844Y392719D01*
X554025Y392377D01*
X554229Y392051D01*
X554458Y391740D01*
X550548D01*
X550777Y392051D01*
X550982Y392377D01*
X551163Y392719D01*
X551320Y393078D01*
X551452Y393453D01*
X551561Y393843D01*
X551645Y394250D01*
X551705Y394673D01*
X551741Y395112D01*
X551753Y395567D01*
X553253D01*
X553265Y395112D01*
D02*
G37*
G36*
X511925D02*
X511962Y394673D01*
X512022Y394250D01*
X512106Y393843D01*
X512215Y393453D01*
X512347Y393078D01*
X512504Y392719D01*
X512685Y392377D01*
X512889Y392051D01*
X513118Y391740D01*
X509208D01*
X509437Y392051D01*
X509642Y392377D01*
X509823Y392719D01*
X509980Y393078D01*
X510112Y393453D01*
X510221Y393843D01*
X510305Y394250D01*
X510365Y394673D01*
X510401Y395112D01*
X510413Y395567D01*
X511913D01*
X511925Y395112D01*
D02*
G37*
G36*
X470586D02*
X470622Y394673D01*
X470682Y394250D01*
X470766Y393843D01*
X470875Y393453D01*
X471007Y393078D01*
X471164Y392719D01*
X471345Y392377D01*
X471549Y392051D01*
X471778Y391740D01*
X467868D01*
X468097Y392051D01*
X468302Y392377D01*
X468483Y392719D01*
X468640Y393078D01*
X468772Y393453D01*
X468881Y393843D01*
X468965Y394250D01*
X469025Y394673D01*
X469061Y395112D01*
X469073Y395567D01*
X470574D01*
X470586Y395112D01*
D02*
G37*
G36*
X429246D02*
X429282Y394673D01*
X429342Y394250D01*
X429426Y393843D01*
X429535Y393453D01*
X429667Y393078D01*
X429824Y392719D01*
X430005Y392377D01*
X430210Y392051D01*
X430439Y391740D01*
X426529D01*
X426758Y392051D01*
X426962Y392377D01*
X427143Y392719D01*
X427300Y393078D01*
X427432Y393453D01*
X427541Y393843D01*
X427625Y394250D01*
X427685Y394673D01*
X427721Y395112D01*
X427734Y395567D01*
X429234D01*
X429246Y395112D01*
D02*
G37*
G36*
X387906D02*
X387942Y394673D01*
X388002Y394250D01*
X388087Y393843D01*
X388195Y393453D01*
X388327Y393078D01*
X388484Y392719D01*
X388665Y392377D01*
X388870Y392051D01*
X389099Y391740D01*
X385189D01*
X385418Y392051D01*
X385622Y392377D01*
X385803Y392719D01*
X385960Y393078D01*
X386092Y393453D01*
X386201Y393843D01*
X386285Y394250D01*
X386345Y394673D01*
X386382Y395112D01*
X386394Y395567D01*
X387894D01*
X387906Y395112D01*
D02*
G37*
G36*
X346566D02*
X346602Y394673D01*
X346662Y394250D01*
X346747Y393843D01*
X346855Y393453D01*
X346988Y393078D01*
X347144Y392719D01*
X347325Y392377D01*
X347530Y392051D01*
X347759Y391740D01*
X343849D01*
X344078Y392051D01*
X344283Y392377D01*
X344463Y392719D01*
X344620Y393078D01*
X344753Y393453D01*
X344861Y393843D01*
X344945Y394250D01*
X345006Y394673D01*
X345042Y395112D01*
X345054Y395567D01*
X346554D01*
X346566Y395112D01*
D02*
G37*
G36*
X305226D02*
X305262Y394673D01*
X305322Y394250D01*
X305407Y393843D01*
X305515Y393453D01*
X305648Y393078D01*
X305804Y392719D01*
X305985Y392377D01*
X306190Y392051D01*
X306419Y391740D01*
X302509D01*
X302738Y392051D01*
X302943Y392377D01*
X303123Y392719D01*
X303280Y393078D01*
X303413Y393453D01*
X303521Y393843D01*
X303605Y394250D01*
X303666Y394673D01*
X303702Y395112D01*
X303714Y395567D01*
X305214D01*
X305226Y395112D01*
D02*
G37*
G36*
X263886D02*
X263922Y394673D01*
X263982Y394250D01*
X264067Y393843D01*
X264175Y393453D01*
X264308Y393078D01*
X264464Y392719D01*
X264645Y392377D01*
X264850Y392051D01*
X265079Y391740D01*
X261169D01*
X261398Y392051D01*
X261603Y392377D01*
X261784Y392719D01*
X261940Y393078D01*
X262073Y393453D01*
X262181Y393843D01*
X262265Y394250D01*
X262326Y394673D01*
X262362Y395112D01*
X262374Y395567D01*
X263874D01*
X263886Y395112D01*
D02*
G37*
G36*
X222546D02*
X222582Y394673D01*
X222642Y394250D01*
X222727Y393843D01*
X222835Y393453D01*
X222968Y393078D01*
X223125Y392719D01*
X223305Y392377D01*
X223510Y392051D01*
X223739Y391740D01*
X219829D01*
X220058Y392051D01*
X220263Y392377D01*
X220444Y392719D01*
X220600Y393078D01*
X220733Y393453D01*
X220841Y393843D01*
X220926Y394250D01*
X220986Y394673D01*
X221022Y395112D01*
X221034Y395567D01*
X222534D01*
X222546Y395112D01*
D02*
G37*
G36*
X181206D02*
X181242Y394673D01*
X181303Y394250D01*
X181387Y393843D01*
X181495Y393453D01*
X181628Y393078D01*
X181785Y392719D01*
X181965Y392377D01*
X182170Y392051D01*
X182399Y391740D01*
X178489D01*
X178718Y392051D01*
X178923Y392377D01*
X179104Y392719D01*
X179260Y393078D01*
X179393Y393453D01*
X179501Y393843D01*
X179586Y394250D01*
X179646Y394673D01*
X179682Y395112D01*
X179694Y395567D01*
X181194D01*
X181206Y395112D01*
D02*
G37*
G36*
X554229Y364823D02*
X554025Y364497D01*
X553844Y364154D01*
X553687Y363796D01*
X553554Y363421D01*
X553446Y363031D01*
X553362Y362624D01*
X553302Y362201D01*
X553265Y361762D01*
X553253Y361307D01*
X551753D01*
X551741Y361762D01*
X551705Y362201D01*
X551645Y362624D01*
X551561Y363031D01*
X551452Y363421D01*
X551320Y363796D01*
X551163Y364154D01*
X550982Y364497D01*
X550777Y364823D01*
X550548Y365134D01*
X554458D01*
X554229Y364823D01*
D02*
G37*
G36*
X512889D02*
X512685Y364497D01*
X512504Y364154D01*
X512347Y363796D01*
X512215Y363421D01*
X512106Y363031D01*
X512022Y362624D01*
X511962Y362201D01*
X511925Y361762D01*
X511913Y361307D01*
X510413D01*
X510401Y361762D01*
X510365Y362201D01*
X510305Y362624D01*
X510221Y363031D01*
X510112Y363421D01*
X509980Y363796D01*
X509823Y364154D01*
X509642Y364497D01*
X509437Y364823D01*
X509208Y365134D01*
X513118D01*
X512889Y364823D01*
D02*
G37*
G36*
X471549D02*
X471345Y364497D01*
X471164Y364154D01*
X471007Y363796D01*
X470875Y363421D01*
X470766Y363031D01*
X470682Y362624D01*
X470622Y362201D01*
X470586Y361762D01*
X470574Y361307D01*
X469073D01*
X469061Y361762D01*
X469025Y362201D01*
X468965Y362624D01*
X468881Y363031D01*
X468772Y363421D01*
X468640Y363796D01*
X468483Y364154D01*
X468302Y364497D01*
X468097Y364823D01*
X467868Y365134D01*
X471778D01*
X471549Y364823D01*
D02*
G37*
G36*
X430210D02*
X430005Y364497D01*
X429824Y364154D01*
X429667Y363796D01*
X429535Y363421D01*
X429426Y363031D01*
X429342Y362624D01*
X429282Y362201D01*
X429246Y361762D01*
X429234Y361307D01*
X427734D01*
X427721Y361762D01*
X427685Y362201D01*
X427625Y362624D01*
X427541Y363031D01*
X427432Y363421D01*
X427300Y363796D01*
X427143Y364154D01*
X426962Y364497D01*
X426758Y364823D01*
X426529Y365134D01*
X430439D01*
X430210Y364823D01*
D02*
G37*
G36*
X388870D02*
X388665Y364497D01*
X388484Y364154D01*
X388327Y363796D01*
X388195Y363421D01*
X388087Y363031D01*
X388002Y362624D01*
X387942Y362201D01*
X387906Y361762D01*
X387894Y361307D01*
X386394D01*
X386382Y361762D01*
X386345Y362201D01*
X386285Y362624D01*
X386201Y363031D01*
X386092Y363421D01*
X385960Y363796D01*
X385803Y364154D01*
X385622Y364497D01*
X385418Y364823D01*
X385189Y365134D01*
X389099D01*
X388870Y364823D01*
D02*
G37*
G36*
X347530D02*
X347325Y364497D01*
X347144Y364154D01*
X346988Y363796D01*
X346855Y363421D01*
X346747Y363031D01*
X346662Y362624D01*
X346602Y362201D01*
X346566Y361762D01*
X346554Y361307D01*
X345054D01*
X345042Y361762D01*
X345006Y362201D01*
X344945Y362624D01*
X344861Y363031D01*
X344753Y363421D01*
X344620Y363796D01*
X344463Y364154D01*
X344283Y364497D01*
X344078Y364823D01*
X343849Y365134D01*
X347759D01*
X347530Y364823D01*
D02*
G37*
G36*
X306190D02*
X305985Y364497D01*
X305804Y364154D01*
X305648Y363796D01*
X305515Y363421D01*
X305407Y363031D01*
X305322Y362624D01*
X305262Y362201D01*
X305226Y361762D01*
X305214Y361307D01*
X303714D01*
X303702Y361762D01*
X303666Y362201D01*
X303605Y362624D01*
X303521Y363031D01*
X303413Y363421D01*
X303280Y363796D01*
X303123Y364154D01*
X302943Y364497D01*
X302738Y364823D01*
X302509Y365134D01*
X306419D01*
X306190Y364823D01*
D02*
G37*
G36*
X264850D02*
X264645Y364497D01*
X264464Y364154D01*
X264308Y363796D01*
X264175Y363421D01*
X264067Y363031D01*
X263982Y362624D01*
X263922Y362201D01*
X263886Y361762D01*
X263874Y361307D01*
X262374D01*
X262362Y361762D01*
X262326Y362201D01*
X262265Y362624D01*
X262181Y363031D01*
X262073Y363421D01*
X261940Y363796D01*
X261784Y364154D01*
X261603Y364497D01*
X261398Y364823D01*
X261169Y365134D01*
X265079D01*
X264850Y364823D01*
D02*
G37*
G36*
X223510D02*
X223305Y364497D01*
X223125Y364154D01*
X222968Y363796D01*
X222835Y363421D01*
X222727Y363031D01*
X222642Y362624D01*
X222582Y362201D01*
X222546Y361762D01*
X222534Y361307D01*
X221034D01*
X221022Y361762D01*
X220986Y362201D01*
X220926Y362624D01*
X220841Y363031D01*
X220733Y363421D01*
X220600Y363796D01*
X220444Y364154D01*
X220263Y364497D01*
X220058Y364823D01*
X219829Y365134D01*
X223739D01*
X223510Y364823D01*
D02*
G37*
G36*
X182170D02*
X181965Y364497D01*
X181785Y364154D01*
X181628Y363796D01*
X181495Y363421D01*
X181387Y363031D01*
X181303Y362624D01*
X181242Y362201D01*
X181206Y361762D01*
X181194Y361307D01*
X179694D01*
X179682Y361762D01*
X179646Y362201D01*
X179586Y362624D01*
X179501Y363031D01*
X179393Y363421D01*
X179260Y363796D01*
X179104Y364154D01*
X178923Y364497D01*
X178718Y364823D01*
X178489Y365134D01*
X182399D01*
X182170Y364823D01*
D02*
G37*
G36*
X553265Y353072D02*
X553302Y352633D01*
X553362Y352210D01*
X553446Y351803D01*
X553554Y351413D01*
X553687Y351038D01*
X553844Y350680D01*
X554025Y350337D01*
X554229Y350010D01*
X554458Y349700D01*
X550548D01*
X550777Y350010D01*
X550982Y350337D01*
X551163Y350680D01*
X551320Y351038D01*
X551452Y351413D01*
X551561Y351803D01*
X551645Y352210D01*
X551705Y352633D01*
X551741Y353072D01*
X551753Y353527D01*
X553253D01*
X553265Y353072D01*
D02*
G37*
G36*
X511925D02*
X511962Y352633D01*
X512022Y352210D01*
X512106Y351803D01*
X512215Y351413D01*
X512347Y351038D01*
X512504Y350680D01*
X512685Y350337D01*
X512889Y350010D01*
X513118Y349700D01*
X509208D01*
X509437Y350010D01*
X509642Y350337D01*
X509823Y350680D01*
X509980Y351038D01*
X510112Y351413D01*
X510221Y351803D01*
X510305Y352210D01*
X510365Y352633D01*
X510401Y353072D01*
X510413Y353527D01*
X511913D01*
X511925Y353072D01*
D02*
G37*
G36*
X470586D02*
X470622Y352633D01*
X470682Y352210D01*
X470766Y351803D01*
X470875Y351413D01*
X471007Y351038D01*
X471164Y350680D01*
X471345Y350337D01*
X471549Y350010D01*
X471778Y349700D01*
X467868D01*
X468097Y350010D01*
X468302Y350337D01*
X468483Y350680D01*
X468640Y351038D01*
X468772Y351413D01*
X468881Y351803D01*
X468965Y352210D01*
X469025Y352633D01*
X469061Y353072D01*
X469073Y353527D01*
X470574D01*
X470586Y353072D01*
D02*
G37*
G36*
X429246D02*
X429282Y352633D01*
X429342Y352210D01*
X429426Y351803D01*
X429535Y351413D01*
X429667Y351038D01*
X429824Y350680D01*
X430005Y350337D01*
X430210Y350010D01*
X430439Y349700D01*
X426529D01*
X426758Y350010D01*
X426962Y350337D01*
X427143Y350680D01*
X427300Y351038D01*
X427432Y351413D01*
X427541Y351803D01*
X427625Y352210D01*
X427685Y352633D01*
X427721Y353072D01*
X427734Y353527D01*
X429234D01*
X429246Y353072D01*
D02*
G37*
G36*
X387906D02*
X387942Y352633D01*
X388002Y352210D01*
X388087Y351803D01*
X388195Y351413D01*
X388327Y351038D01*
X388484Y350680D01*
X388665Y350337D01*
X388870Y350010D01*
X389099Y349700D01*
X385189D01*
X385418Y350010D01*
X385622Y350337D01*
X385803Y350680D01*
X385960Y351038D01*
X386092Y351413D01*
X386201Y351803D01*
X386285Y352210D01*
X386345Y352633D01*
X386382Y353072D01*
X386394Y353527D01*
X387894D01*
X387906Y353072D01*
D02*
G37*
G36*
X346566D02*
X346602Y352633D01*
X346662Y352210D01*
X346747Y351803D01*
X346855Y351413D01*
X346988Y351038D01*
X347144Y350680D01*
X347325Y350337D01*
X347530Y350010D01*
X347759Y349700D01*
X343849D01*
X344078Y350010D01*
X344283Y350337D01*
X344463Y350680D01*
X344620Y351038D01*
X344753Y351413D01*
X344861Y351803D01*
X344945Y352210D01*
X345006Y352633D01*
X345042Y353072D01*
X345054Y353527D01*
X346554D01*
X346566Y353072D01*
D02*
G37*
G36*
X305226D02*
X305262Y352633D01*
X305322Y352210D01*
X305407Y351803D01*
X305515Y351413D01*
X305648Y351038D01*
X305804Y350680D01*
X305985Y350337D01*
X306190Y350010D01*
X306419Y349700D01*
X302509D01*
X302738Y350010D01*
X302943Y350337D01*
X303123Y350680D01*
X303280Y351038D01*
X303413Y351413D01*
X303521Y351803D01*
X303605Y352210D01*
X303666Y352633D01*
X303702Y353072D01*
X303714Y353527D01*
X305214D01*
X305226Y353072D01*
D02*
G37*
G36*
X263886D02*
X263922Y352633D01*
X263982Y352210D01*
X264067Y351803D01*
X264175Y351413D01*
X264308Y351038D01*
X264464Y350680D01*
X264645Y350337D01*
X264850Y350010D01*
X265079Y349700D01*
X261169D01*
X261398Y350010D01*
X261603Y350337D01*
X261784Y350680D01*
X261940Y351038D01*
X262073Y351413D01*
X262181Y351803D01*
X262265Y352210D01*
X262326Y352633D01*
X262362Y353072D01*
X262374Y353527D01*
X263874D01*
X263886Y353072D01*
D02*
G37*
G36*
X222546D02*
X222582Y352633D01*
X222642Y352210D01*
X222727Y351803D01*
X222835Y351413D01*
X222968Y351038D01*
X223125Y350680D01*
X223305Y350337D01*
X223510Y350010D01*
X223739Y349700D01*
X219829D01*
X220058Y350010D01*
X220263Y350337D01*
X220444Y350680D01*
X220600Y351038D01*
X220733Y351413D01*
X220841Y351803D01*
X220926Y352210D01*
X220986Y352633D01*
X221022Y353072D01*
X221034Y353527D01*
X222534D01*
X222546Y353072D01*
D02*
G37*
G36*
X181206D02*
X181242Y352633D01*
X181303Y352210D01*
X181387Y351803D01*
X181495Y351413D01*
X181628Y351038D01*
X181785Y350680D01*
X181965Y350337D01*
X182170Y350010D01*
X182399Y349700D01*
X178489D01*
X178718Y350010D01*
X178923Y350337D01*
X179104Y350680D01*
X179260Y351038D01*
X179393Y351413D01*
X179501Y351803D01*
X179586Y352210D01*
X179646Y352633D01*
X179682Y353072D01*
X179694Y353527D01*
X181194D01*
X181206Y353072D01*
D02*
G37*
G36*
X554229Y322783D02*
X554025Y322457D01*
X553844Y322114D01*
X553687Y321756D01*
X553554Y321381D01*
X553446Y320990D01*
X553362Y320584D01*
X553302Y320161D01*
X553265Y319722D01*
X553253Y319267D01*
X551753D01*
X551741Y319722D01*
X551705Y320161D01*
X551645Y320584D01*
X551561Y320990D01*
X551452Y321381D01*
X551320Y321756D01*
X551163Y322114D01*
X550982Y322457D01*
X550777Y322783D01*
X550548Y323094D01*
X554458D01*
X554229Y322783D01*
D02*
G37*
G36*
X512889D02*
X512685Y322457D01*
X512504Y322114D01*
X512347Y321756D01*
X512215Y321381D01*
X512106Y320990D01*
X512022Y320584D01*
X511962Y320161D01*
X511925Y319722D01*
X511913Y319267D01*
X510413D01*
X510401Y319722D01*
X510365Y320161D01*
X510305Y320584D01*
X510221Y320990D01*
X510112Y321381D01*
X509980Y321756D01*
X509823Y322114D01*
X509642Y322457D01*
X509437Y322783D01*
X509208Y323094D01*
X513118D01*
X512889Y322783D01*
D02*
G37*
G36*
X471549D02*
X471345Y322457D01*
X471164Y322114D01*
X471007Y321756D01*
X470875Y321381D01*
X470766Y320990D01*
X470682Y320584D01*
X470622Y320161D01*
X470586Y319722D01*
X470574Y319267D01*
X469073D01*
X469061Y319722D01*
X469025Y320161D01*
X468965Y320584D01*
X468881Y320990D01*
X468772Y321381D01*
X468640Y321756D01*
X468483Y322114D01*
X468302Y322457D01*
X468097Y322783D01*
X467868Y323094D01*
X471778D01*
X471549Y322783D01*
D02*
G37*
G36*
X430210D02*
X430005Y322457D01*
X429824Y322114D01*
X429667Y321756D01*
X429535Y321381D01*
X429426Y320990D01*
X429342Y320584D01*
X429282Y320161D01*
X429246Y319722D01*
X429234Y319267D01*
X427734D01*
X427721Y319722D01*
X427685Y320161D01*
X427625Y320584D01*
X427541Y320990D01*
X427432Y321381D01*
X427300Y321756D01*
X427143Y322114D01*
X426962Y322457D01*
X426758Y322783D01*
X426529Y323094D01*
X430439D01*
X430210Y322783D01*
D02*
G37*
G36*
X388870D02*
X388665Y322457D01*
X388484Y322114D01*
X388327Y321756D01*
X388195Y321381D01*
X388087Y320990D01*
X388002Y320584D01*
X387942Y320161D01*
X387906Y319722D01*
X387894Y319267D01*
X386394D01*
X386382Y319722D01*
X386345Y320161D01*
X386285Y320584D01*
X386201Y320990D01*
X386092Y321381D01*
X385960Y321756D01*
X385803Y322114D01*
X385622Y322457D01*
X385418Y322783D01*
X385189Y323094D01*
X389099D01*
X388870Y322783D01*
D02*
G37*
G36*
X347530D02*
X347325Y322457D01*
X347144Y322114D01*
X346988Y321756D01*
X346855Y321381D01*
X346747Y320990D01*
X346662Y320584D01*
X346602Y320161D01*
X346566Y319722D01*
X346554Y319267D01*
X345054D01*
X345042Y319722D01*
X345006Y320161D01*
X344945Y320584D01*
X344861Y320990D01*
X344753Y321381D01*
X344620Y321756D01*
X344463Y322114D01*
X344283Y322457D01*
X344078Y322783D01*
X343849Y323094D01*
X347759D01*
X347530Y322783D01*
D02*
G37*
G36*
X306190D02*
X305985Y322457D01*
X305804Y322114D01*
X305648Y321756D01*
X305515Y321381D01*
X305407Y320990D01*
X305322Y320584D01*
X305262Y320161D01*
X305226Y319722D01*
X305214Y319267D01*
X303714D01*
X303702Y319722D01*
X303666Y320161D01*
X303605Y320584D01*
X303521Y320990D01*
X303413Y321381D01*
X303280Y321756D01*
X303123Y322114D01*
X302943Y322457D01*
X302738Y322783D01*
X302509Y323094D01*
X306419D01*
X306190Y322783D01*
D02*
G37*
G36*
X264850D02*
X264645Y322457D01*
X264464Y322114D01*
X264308Y321756D01*
X264175Y321381D01*
X264067Y320990D01*
X263982Y320584D01*
X263922Y320161D01*
X263886Y319722D01*
X263874Y319267D01*
X262374D01*
X262362Y319722D01*
X262326Y320161D01*
X262265Y320584D01*
X262181Y320990D01*
X262073Y321381D01*
X261940Y321756D01*
X261784Y322114D01*
X261603Y322457D01*
X261398Y322783D01*
X261169Y323094D01*
X265079D01*
X264850Y322783D01*
D02*
G37*
G36*
X223510D02*
X223305Y322457D01*
X223125Y322114D01*
X222968Y321756D01*
X222835Y321381D01*
X222727Y320990D01*
X222642Y320584D01*
X222582Y320161D01*
X222546Y319722D01*
X222534Y319267D01*
X221034D01*
X221022Y319722D01*
X220986Y320161D01*
X220926Y320584D01*
X220841Y320990D01*
X220733Y321381D01*
X220600Y321756D01*
X220444Y322114D01*
X220263Y322457D01*
X220058Y322783D01*
X219829Y323094D01*
X223739D01*
X223510Y322783D01*
D02*
G37*
G36*
X182170D02*
X181965Y322457D01*
X181785Y322114D01*
X181628Y321756D01*
X181495Y321381D01*
X181387Y320990D01*
X181303Y320584D01*
X181242Y320161D01*
X181206Y319722D01*
X181194Y319267D01*
X179694D01*
X179682Y319722D01*
X179646Y320161D01*
X179586Y320584D01*
X179501Y320990D01*
X179393Y321381D01*
X179260Y321756D01*
X179104Y322114D01*
X178923Y322457D01*
X178718Y322783D01*
X178489Y323094D01*
X182399D01*
X182170Y322783D01*
D02*
G37*
G36*
X553265Y311032D02*
X553302Y310593D01*
X553362Y310170D01*
X553446Y309763D01*
X553554Y309373D01*
X553687Y308998D01*
X553844Y308640D01*
X554025Y308297D01*
X554229Y307971D01*
X554458Y307660D01*
X550548D01*
X550777Y307971D01*
X550982Y308297D01*
X551163Y308640D01*
X551320Y308998D01*
X551452Y309373D01*
X551561Y309763D01*
X551645Y310170D01*
X551705Y310593D01*
X551741Y311032D01*
X551753Y311487D01*
X553253D01*
X553265Y311032D01*
D02*
G37*
G36*
X511925D02*
X511962Y310593D01*
X512022Y310170D01*
X512106Y309763D01*
X512215Y309373D01*
X512347Y308998D01*
X512504Y308640D01*
X512685Y308297D01*
X512889Y307971D01*
X513118Y307660D01*
X509208D01*
X509437Y307971D01*
X509642Y308297D01*
X509823Y308640D01*
X509980Y308998D01*
X510112Y309373D01*
X510221Y309763D01*
X510305Y310170D01*
X510365Y310593D01*
X510401Y311032D01*
X510413Y311487D01*
X511913D01*
X511925Y311032D01*
D02*
G37*
G36*
X470586D02*
X470622Y310593D01*
X470682Y310170D01*
X470766Y309763D01*
X470875Y309373D01*
X471007Y308998D01*
X471164Y308640D01*
X471345Y308297D01*
X471549Y307971D01*
X471778Y307660D01*
X467868D01*
X468097Y307971D01*
X468302Y308297D01*
X468483Y308640D01*
X468640Y308998D01*
X468772Y309373D01*
X468881Y309763D01*
X468965Y310170D01*
X469025Y310593D01*
X469061Y311032D01*
X469073Y311487D01*
X470574D01*
X470586Y311032D01*
D02*
G37*
G36*
X429246D02*
X429282Y310593D01*
X429342Y310170D01*
X429426Y309763D01*
X429535Y309373D01*
X429667Y308998D01*
X429824Y308640D01*
X430005Y308297D01*
X430210Y307971D01*
X430439Y307660D01*
X426529D01*
X426758Y307971D01*
X426962Y308297D01*
X427143Y308640D01*
X427300Y308998D01*
X427432Y309373D01*
X427541Y309763D01*
X427625Y310170D01*
X427685Y310593D01*
X427721Y311032D01*
X427734Y311487D01*
X429234D01*
X429246Y311032D01*
D02*
G37*
G36*
X387906D02*
X387942Y310593D01*
X388002Y310170D01*
X388087Y309763D01*
X388195Y309373D01*
X388327Y308998D01*
X388484Y308640D01*
X388665Y308297D01*
X388870Y307971D01*
X389099Y307660D01*
X385189D01*
X385418Y307971D01*
X385622Y308297D01*
X385803Y308640D01*
X385960Y308998D01*
X386092Y309373D01*
X386201Y309763D01*
X386285Y310170D01*
X386345Y310593D01*
X386382Y311032D01*
X386394Y311487D01*
X387894D01*
X387906Y311032D01*
D02*
G37*
G36*
X346566D02*
X346602Y310593D01*
X346662Y310170D01*
X346747Y309763D01*
X346855Y309373D01*
X346988Y308998D01*
X347144Y308640D01*
X347325Y308297D01*
X347530Y307971D01*
X347759Y307660D01*
X343849D01*
X344078Y307971D01*
X344283Y308297D01*
X344463Y308640D01*
X344620Y308998D01*
X344753Y309373D01*
X344861Y309763D01*
X344945Y310170D01*
X345006Y310593D01*
X345042Y311032D01*
X345054Y311487D01*
X346554D01*
X346566Y311032D01*
D02*
G37*
G36*
X305226D02*
X305262Y310593D01*
X305322Y310170D01*
X305407Y309763D01*
X305515Y309373D01*
X305648Y308998D01*
X305804Y308640D01*
X305985Y308297D01*
X306190Y307971D01*
X306419Y307660D01*
X302509D01*
X302738Y307971D01*
X302943Y308297D01*
X303123Y308640D01*
X303280Y308998D01*
X303413Y309373D01*
X303521Y309763D01*
X303605Y310170D01*
X303666Y310593D01*
X303702Y311032D01*
X303714Y311487D01*
X305214D01*
X305226Y311032D01*
D02*
G37*
G36*
X263886D02*
X263922Y310593D01*
X263982Y310170D01*
X264067Y309763D01*
X264175Y309373D01*
X264308Y308998D01*
X264464Y308640D01*
X264645Y308297D01*
X264850Y307971D01*
X265079Y307660D01*
X261169D01*
X261398Y307971D01*
X261603Y308297D01*
X261784Y308640D01*
X261940Y308998D01*
X262073Y309373D01*
X262181Y309763D01*
X262265Y310170D01*
X262326Y310593D01*
X262362Y311032D01*
X262374Y311487D01*
X263874D01*
X263886Y311032D01*
D02*
G37*
G36*
X222546D02*
X222582Y310593D01*
X222642Y310170D01*
X222727Y309763D01*
X222835Y309373D01*
X222968Y308998D01*
X223125Y308640D01*
X223305Y308297D01*
X223510Y307971D01*
X223739Y307660D01*
X219829D01*
X220058Y307971D01*
X220263Y308297D01*
X220444Y308640D01*
X220600Y308998D01*
X220733Y309373D01*
X220841Y309763D01*
X220926Y310170D01*
X220986Y310593D01*
X221022Y311032D01*
X221034Y311487D01*
X222534D01*
X222546Y311032D01*
D02*
G37*
G36*
X181206D02*
X181242Y310593D01*
X181303Y310170D01*
X181387Y309763D01*
X181495Y309373D01*
X181628Y308998D01*
X181785Y308640D01*
X181965Y308297D01*
X182170Y307971D01*
X182399Y307660D01*
X178489D01*
X178718Y307971D01*
X178923Y308297D01*
X179104Y308640D01*
X179260Y308998D01*
X179393Y309373D01*
X179501Y309763D01*
X179586Y310170D01*
X179646Y310593D01*
X179682Y311032D01*
X179694Y311487D01*
X181194D01*
X181206Y311032D01*
D02*
G37*
G36*
X554229Y304233D02*
X554025Y303907D01*
X553844Y303564D01*
X553687Y303206D01*
X553554Y302831D01*
X553446Y302440D01*
X553362Y302034D01*
X553302Y301611D01*
X553265Y301172D01*
X553253Y300717D01*
X551753D01*
X551741Y301172D01*
X551705Y301611D01*
X551645Y302034D01*
X551561Y302440D01*
X551452Y302831D01*
X551320Y303206D01*
X551163Y303564D01*
X550982Y303907D01*
X550777Y304233D01*
X550548Y304544D01*
X554458D01*
X554229Y304233D01*
D02*
G37*
G36*
X512889D02*
X512685Y303907D01*
X512504Y303564D01*
X512347Y303206D01*
X512215Y302831D01*
X512106Y302440D01*
X512022Y302034D01*
X511962Y301611D01*
X511925Y301172D01*
X511913Y300717D01*
X510413D01*
X510401Y301172D01*
X510365Y301611D01*
X510305Y302034D01*
X510221Y302440D01*
X510112Y302831D01*
X509980Y303206D01*
X509823Y303564D01*
X509642Y303907D01*
X509437Y304233D01*
X509208Y304544D01*
X513118D01*
X512889Y304233D01*
D02*
G37*
G36*
X471549D02*
X471345Y303907D01*
X471164Y303564D01*
X471007Y303206D01*
X470875Y302831D01*
X470766Y302440D01*
X470682Y302034D01*
X470622Y301611D01*
X470586Y301172D01*
X470574Y300717D01*
X469073D01*
X469061Y301172D01*
X469025Y301611D01*
X468965Y302034D01*
X468881Y302440D01*
X468772Y302831D01*
X468640Y303206D01*
X468483Y303564D01*
X468302Y303907D01*
X468097Y304233D01*
X467868Y304544D01*
X471778D01*
X471549Y304233D01*
D02*
G37*
G36*
X430210D02*
X430005Y303907D01*
X429824Y303564D01*
X429667Y303206D01*
X429535Y302831D01*
X429426Y302440D01*
X429342Y302034D01*
X429282Y301611D01*
X429246Y301172D01*
X429234Y300717D01*
X427734D01*
X427721Y301172D01*
X427685Y301611D01*
X427625Y302034D01*
X427541Y302440D01*
X427432Y302831D01*
X427300Y303206D01*
X427143Y303564D01*
X426962Y303907D01*
X426758Y304233D01*
X426529Y304544D01*
X430439D01*
X430210Y304233D01*
D02*
G37*
G36*
X388870D02*
X388665Y303907D01*
X388484Y303564D01*
X388327Y303206D01*
X388195Y302831D01*
X388087Y302440D01*
X388002Y302034D01*
X387942Y301611D01*
X387906Y301172D01*
X387894Y300717D01*
X386394D01*
X386382Y301172D01*
X386345Y301611D01*
X386285Y302034D01*
X386201Y302440D01*
X386092Y302831D01*
X385960Y303206D01*
X385803Y303564D01*
X385622Y303907D01*
X385418Y304233D01*
X385189Y304544D01*
X389099D01*
X388870Y304233D01*
D02*
G37*
G36*
X347530D02*
X347325Y303907D01*
X347144Y303564D01*
X346988Y303206D01*
X346855Y302831D01*
X346747Y302440D01*
X346662Y302034D01*
X346602Y301611D01*
X346566Y301172D01*
X346554Y300717D01*
X345054D01*
X345042Y301172D01*
X345006Y301611D01*
X344945Y302034D01*
X344861Y302440D01*
X344753Y302831D01*
X344620Y303206D01*
X344463Y303564D01*
X344283Y303907D01*
X344078Y304233D01*
X343849Y304544D01*
X347759D01*
X347530Y304233D01*
D02*
G37*
G36*
X306190D02*
X305985Y303907D01*
X305804Y303564D01*
X305648Y303206D01*
X305515Y302831D01*
X305407Y302440D01*
X305322Y302034D01*
X305262Y301611D01*
X305226Y301172D01*
X305214Y300717D01*
X303714D01*
X303702Y301172D01*
X303666Y301611D01*
X303605Y302034D01*
X303521Y302440D01*
X303413Y302831D01*
X303280Y303206D01*
X303123Y303564D01*
X302943Y303907D01*
X302738Y304233D01*
X302509Y304544D01*
X306419D01*
X306190Y304233D01*
D02*
G37*
G36*
X264850D02*
X264645Y303907D01*
X264464Y303564D01*
X264308Y303206D01*
X264175Y302831D01*
X264067Y302440D01*
X263982Y302034D01*
X263922Y301611D01*
X263886Y301172D01*
X263874Y300717D01*
X262374D01*
X262362Y301172D01*
X262326Y301611D01*
X262265Y302034D01*
X262181Y302440D01*
X262073Y302831D01*
X261940Y303206D01*
X261784Y303564D01*
X261603Y303907D01*
X261398Y304233D01*
X261169Y304544D01*
X265079D01*
X264850Y304233D01*
D02*
G37*
G36*
X223510D02*
X223305Y303907D01*
X223125Y303564D01*
X222968Y303206D01*
X222835Y302831D01*
X222727Y302440D01*
X222642Y302034D01*
X222582Y301611D01*
X222546Y301172D01*
X222534Y300717D01*
X221034D01*
X221022Y301172D01*
X220986Y301611D01*
X220926Y302034D01*
X220841Y302440D01*
X220733Y302831D01*
X220600Y303206D01*
X220444Y303564D01*
X220263Y303907D01*
X220058Y304233D01*
X219829Y304544D01*
X223739D01*
X223510Y304233D01*
D02*
G37*
G36*
X182170D02*
X181965Y303907D01*
X181785Y303564D01*
X181628Y303206D01*
X181495Y302831D01*
X181387Y302440D01*
X181303Y302034D01*
X181242Y301611D01*
X181206Y301172D01*
X181194Y300717D01*
X179694D01*
X179682Y301172D01*
X179646Y301611D01*
X179586Y302034D01*
X179501Y302440D01*
X179393Y302831D01*
X179260Y303206D01*
X179104Y303564D01*
X178923Y303907D01*
X178718Y304233D01*
X178489Y304544D01*
X182399D01*
X182170Y304233D01*
D02*
G37*
G36*
X311208Y249785D02*
X310895Y249455D01*
X310611Y249119D01*
X310354Y248778D01*
X310126Y248430D01*
X309927Y248077D01*
X309755Y247719D01*
X309613Y247354D01*
X309498Y246984D01*
X309412Y246609D01*
X309355Y246227D01*
X306590Y248992D01*
X306971Y249050D01*
X307347Y249136D01*
X307717Y249250D01*
X308081Y249393D01*
X308440Y249564D01*
X308793Y249764D01*
X309140Y249992D01*
X309482Y250248D01*
X309818Y250533D01*
X310148Y250846D01*
X311208Y249785D01*
D02*
G37*
G36*
X300262Y244530D02*
X300298Y244092D01*
X300359Y243669D01*
X300443Y243262D01*
X300551Y242871D01*
X300684Y242497D01*
X300841Y242138D01*
X301021Y241796D01*
X301226Y241469D01*
X301455Y241159D01*
X297545D01*
X297774Y241469D01*
X297979Y241796D01*
X298160Y242138D01*
X298316Y242497D01*
X298449Y242871D01*
X298557Y243262D01*
X298642Y243669D01*
X298702Y244092D01*
X298738Y244530D01*
X298750Y244985D01*
X300250D01*
X300262Y244530D01*
D02*
G37*
G36*
X289449Y236213D02*
X289776Y235948D01*
X290116Y235711D01*
X290468Y235504D01*
X290833Y235325D01*
X291210Y235175D01*
X291600Y235054D01*
X292003Y234961D01*
X292418Y234898D01*
X292845Y234863D01*
X290268Y231920D01*
X290195Y232246D01*
X290093Y232575D01*
X289962Y232906D01*
X289802Y233239D01*
X289613Y233574D01*
X289396Y233911D01*
X289149Y234251D01*
X288570Y234937D01*
X288237Y235283D01*
X289134Y236507D01*
X289449Y236213D01*
D02*
G37*
G36*
X420254Y231604D02*
X420590Y231319D01*
X420932Y231063D01*
X421279Y230835D01*
X421632Y230635D01*
X421991Y230464D01*
X422355Y230321D01*
X422725Y230207D01*
X423101Y230121D01*
X423482Y230063D01*
X420717Y227299D01*
X420660Y227680D01*
X420574Y228056D01*
X420459Y228426D01*
X420317Y228790D01*
X420145Y229149D01*
X419946Y229501D01*
X419718Y229849D01*
X419462Y230190D01*
X419177Y230526D01*
X418864Y230856D01*
X419924Y231917D01*
X420254Y231604D01*
D02*
G37*
G36*
X282710Y229320D02*
X283046Y229035D01*
X283388Y228778D01*
X283735Y228550D01*
X284088Y228351D01*
X284447Y228180D01*
X284811Y228037D01*
X285181Y227922D01*
X285557Y227836D01*
X285938Y227779D01*
X283173Y225014D01*
X283116Y225396D01*
X283029Y225771D01*
X282915Y226141D01*
X282772Y226506D01*
X282601Y226864D01*
X282402Y227217D01*
X282174Y227564D01*
X281917Y227906D01*
X281632Y228242D01*
X281319Y228572D01*
X282380Y229633D01*
X282710Y229320D01*
D02*
G37*
G36*
X429823Y225270D02*
X430159Y224986D01*
X430500Y224729D01*
X430848Y224501D01*
X431201Y224302D01*
X431559Y224130D01*
X431924Y223988D01*
X432294Y223873D01*
X432669Y223787D01*
X433051Y223730D01*
X430286Y220965D01*
X430228Y221346D01*
X430142Y221722D01*
X430028Y222092D01*
X429885Y222456D01*
X429714Y222815D01*
X429515Y223168D01*
X429286Y223515D01*
X429030Y223857D01*
X428745Y224193D01*
X428432Y224523D01*
X429493Y225583D01*
X429823Y225270D01*
D02*
G37*
G36*
X277028Y216425D02*
X276718Y216654D01*
X276391Y216859D01*
X276049Y217040D01*
X275690Y217196D01*
X275315Y217329D01*
X274925Y217437D01*
X274518Y217522D01*
X274095Y217582D01*
X273656Y217618D01*
X273201Y217630D01*
Y219130D01*
X273656Y219142D01*
X274095Y219178D01*
X274518Y219239D01*
X274925Y219323D01*
X275315Y219431D01*
X275690Y219564D01*
X276049Y219721D01*
X276391Y219901D01*
X276718Y220106D01*
X277028Y220335D01*
Y216425D01*
D02*
G37*
G36*
X444179Y217819D02*
X443866Y217488D01*
X443581Y217152D01*
X443325Y216811D01*
X443097Y216464D01*
X442897Y216111D01*
X442726Y215752D01*
X442584Y215388D01*
X442469Y215018D01*
X442383Y214642D01*
X442326Y214261D01*
X439561Y217025D01*
X439942Y217083D01*
X440318Y217169D01*
X440688Y217283D01*
X441052Y217426D01*
X441411Y217597D01*
X441764Y217797D01*
X442111Y218025D01*
X442453Y218281D01*
X442788Y218566D01*
X443119Y218879D01*
X444179Y217819D01*
D02*
G37*
G36*
X451250Y210381D02*
X450937Y210051D01*
X450652Y209715D01*
X450396Y209373D01*
X450168Y209026D01*
X449968Y208673D01*
X449797Y208314D01*
X449655Y207950D01*
X449540Y207580D01*
X449454Y207204D01*
X449397Y206823D01*
X446632Y209588D01*
X447013Y209645D01*
X447389Y209731D01*
X447759Y209846D01*
X448123Y209988D01*
X448482Y210159D01*
X448835Y210359D01*
X449182Y210587D01*
X449524Y210843D01*
X449860Y211128D01*
X450190Y211441D01*
X451250Y210381D01*
D02*
G37*
G36*
X458321Y203310D02*
X458008Y202979D01*
X457724Y202644D01*
X457467Y202302D01*
X457239Y201955D01*
X457040Y201602D01*
X456868Y201243D01*
X456726Y200879D01*
X456611Y200509D01*
X456525Y200133D01*
X456468Y199752D01*
X453703Y202516D01*
X454084Y202574D01*
X454460Y202660D01*
X454830Y202775D01*
X455194Y202917D01*
X455553Y203088D01*
X455906Y203288D01*
X456253Y203516D01*
X456595Y203772D01*
X456931Y204057D01*
X457261Y204370D01*
X458321Y203310D01*
D02*
G37*
G36*
X307215Y130204D02*
X309300Y128085D01*
Y126000D01*
X359100Y76200D01*
X381900D01*
X401100Y95400D01*
X408600Y87900D01*
X387000Y66300D01*
X359858Y66300D01*
X299951Y126207D01*
X303668Y129923D01*
X304001Y130256D01*
X307215Y130204D01*
D02*
G37*
G36*
X415551Y141962D02*
X438420D01*
X453685Y157227D01*
X552060D01*
X567325Y141962D01*
X571920Y137367D01*
Y12963D01*
X365884D01*
X354200Y24647D01*
X354852Y66723D01*
X356029Y67200D01*
X358393Y64835D01*
X359066Y64386D01*
X359858Y64228D01*
X359859Y64228D01*
X387000Y64228D01*
X387793Y64386D01*
X388465Y64835D01*
X388465Y64835D01*
X410065Y86435D01*
X410514Y87107D01*
X410672Y87900D01*
X410514Y88693D01*
X410065Y89365D01*
X402565Y96865D01*
X401893Y97314D01*
X401100Y97472D01*
X400307Y97314D01*
X399635Y96865D01*
X399635Y96865D01*
X381042Y78272D01*
X359958D01*
X355106Y83124D01*
X355143Y85499D01*
X309510Y130826D01*
X308691Y131658D01*
X308632Y131698D01*
X298937Y141328D01*
X298935Y142598D01*
X356925Y200588D01*
X415551Y141962D01*
D02*
G37*
%LPC*%
G36*
X521231Y133859D02*
X518893D01*
X516634Y133254D01*
X514608Y132084D01*
X512955Y130430D01*
X511786Y128405D01*
X511180Y126146D01*
Y123808D01*
X511786Y121549D01*
X512955Y119523D01*
X514608Y117870D01*
X516634Y116700D01*
X518893Y116095D01*
X521231D01*
X523490Y116700D01*
X525516Y117870D01*
X527170Y119523D01*
X528339Y121549D01*
X528944Y123808D01*
Y126146D01*
X528339Y128405D01*
X527170Y130430D01*
X525516Y132084D01*
X523490Y133254D01*
X521231Y133859D01*
D02*
G37*
G36*
Y108459D02*
X518893D01*
X516634Y107854D01*
X514608Y106684D01*
X512955Y105030D01*
X511786Y103005D01*
X511180Y100746D01*
Y98408D01*
X511786Y96149D01*
X512955Y94123D01*
X514608Y92470D01*
X516634Y91300D01*
X518893Y90695D01*
X521231D01*
X523490Y91300D01*
X525516Y92470D01*
X527170Y94123D01*
X528339Y96149D01*
X528944Y98408D01*
Y100746D01*
X528339Y103005D01*
X527170Y105030D01*
X525516Y106684D01*
X523490Y107854D01*
X521231Y108459D01*
D02*
G37*
G36*
Y83059D02*
X518893D01*
X516634Y82454D01*
X514608Y81284D01*
X512955Y79630D01*
X511786Y77605D01*
X511180Y75346D01*
Y73008D01*
X511786Y70749D01*
X512955Y68723D01*
X514608Y67070D01*
X516634Y65900D01*
X518893Y65295D01*
X521231D01*
X523490Y65900D01*
X525516Y67070D01*
X527170Y68723D01*
X528339Y70749D01*
X528944Y73008D01*
Y75346D01*
X528339Y77605D01*
X527170Y79630D01*
X525516Y81284D01*
X523490Y82454D01*
X521231Y83059D01*
D02*
G37*
%LPD*%
D32*
X566130Y135567D02*
X566767Y134930D01*
X580131D01*
X5080Y914031D02*
Y932581D01*
Y895481D02*
Y914031D01*
Y876931D02*
Y895481D01*
Y858381D02*
Y876931D01*
Y839831D02*
Y858381D01*
Y821281D02*
Y839831D01*
Y802731D02*
Y821281D01*
Y784181D02*
Y802731D01*
Y765631D02*
Y784181D01*
Y747081D02*
Y765631D01*
Y728531D02*
Y747081D01*
Y709981D02*
Y728531D01*
Y691431D02*
Y709981D01*
Y672881D02*
Y691431D01*
Y654331D02*
Y672881D01*
Y635781D02*
Y654331D01*
Y617231D02*
Y635781D01*
Y598681D02*
Y617231D01*
Y580131D02*
Y598681D01*
Y561581D02*
Y580131D01*
Y543031D02*
Y561581D01*
Y524481D02*
Y543031D01*
Y505931D02*
Y524481D01*
Y487381D02*
Y505931D01*
Y468831D02*
Y487381D01*
Y450281D02*
Y468831D01*
Y431731D02*
Y450281D01*
Y413181D02*
Y431731D01*
Y394631D02*
Y413181D01*
Y376081D02*
Y394631D01*
Y357531D02*
Y376081D01*
Y338980D02*
Y357531D01*
Y320430D02*
Y338980D01*
Y301880D02*
Y320430D01*
Y283330D02*
Y301880D01*
Y264780D02*
Y283330D01*
Y246230D02*
Y264780D01*
Y227680D02*
Y246230D01*
Y209130D02*
Y227680D01*
Y190580D02*
Y209130D01*
Y172030D02*
Y190580D01*
Y153480D02*
Y172030D01*
Y134930D02*
Y153480D01*
Y116380D02*
Y134930D01*
Y97830D02*
Y116380D01*
Y79280D02*
Y97830D01*
Y60730D02*
Y79280D01*
Y42180D02*
Y60730D01*
Y23630D02*
Y42180D01*
Y5080D02*
Y23630D01*
X561581Y5080D02*
X580131D01*
X543031D02*
X561581D01*
X524481D02*
X543031D01*
X505931D02*
X524481D01*
X487381D02*
X505931D01*
X468831D02*
X487381D01*
X450281D02*
X468831D01*
X431731D02*
X450281D01*
X413181D02*
X431731D01*
X394631D02*
X413181D01*
X376081D02*
X394631D01*
X357531D02*
X376081D01*
X338980D02*
X357531D01*
X320430D02*
X338980D01*
X301880D02*
X320430D01*
X283330D02*
X301880D01*
X264780D02*
X283330D01*
X246230D02*
X264780D01*
X227680D02*
X246230D01*
X209130D02*
X227680D01*
X190580D02*
X209130D01*
X172030D02*
X190580D01*
X153480D02*
X172030D01*
X134930D02*
X153480D01*
X116380D02*
X134930D01*
X97830D02*
X116380D01*
X79280D02*
X97830D01*
X60730D02*
X79280D01*
X42180D02*
X60730D01*
X23630D02*
X42180D01*
X5080D02*
X23630D01*
X580131Y914031D02*
Y932581D01*
Y895481D02*
Y914031D01*
Y876931D02*
Y895481D01*
Y858381D02*
Y876931D01*
Y839831D02*
Y858381D01*
Y821281D02*
Y839831D01*
Y802731D02*
Y821281D01*
Y784181D02*
Y802731D01*
Y765631D02*
Y784181D01*
Y747081D02*
Y765631D01*
Y728531D02*
Y747081D01*
Y709981D02*
Y728531D01*
Y691431D02*
Y709981D01*
Y672881D02*
Y691431D01*
Y654331D02*
Y672881D01*
Y635781D02*
Y654331D01*
Y617231D02*
Y635781D01*
Y598681D02*
Y617231D01*
Y580131D02*
Y598681D01*
Y561581D02*
Y580131D01*
Y543031D02*
Y561581D01*
Y524481D02*
Y543031D01*
Y505931D02*
Y524481D01*
Y487381D02*
Y505931D01*
Y468831D02*
Y487381D01*
Y450281D02*
Y468831D01*
Y431731D02*
Y450281D01*
Y413181D02*
Y431731D01*
Y394631D02*
Y413181D01*
Y376081D02*
Y394631D01*
Y357531D02*
Y376081D01*
Y338980D02*
Y357531D01*
Y320430D02*
Y338980D01*
Y301880D02*
Y320430D01*
Y283330D02*
Y301880D01*
Y264780D02*
Y283330D01*
Y246230D02*
Y264780D01*
Y227680D02*
Y246230D01*
Y209130D02*
Y227680D01*
Y190580D02*
Y209130D01*
Y172030D02*
Y190580D01*
Y153480D02*
Y172030D01*
Y134930D02*
Y153480D01*
Y116380D02*
Y134930D01*
Y97830D02*
Y116380D01*
Y79280D02*
Y97830D01*
Y60730D02*
Y79280D01*
Y42180D02*
Y60730D01*
Y23630D02*
Y42180D01*
Y5080D02*
Y23630D01*
X561581Y932581D02*
X580131D01*
X543031D02*
X561581D01*
X524481D02*
X543031D01*
X505931D02*
X524481D01*
X487381D02*
X505931D01*
X468831D02*
X487381D01*
X450281D02*
X468831D01*
X431731D02*
X450281D01*
X413181D02*
X431731D01*
X394631D02*
X413181D01*
X376081D02*
X394631D01*
X357531D02*
X376081D01*
X338980D02*
X357531D01*
X320430D02*
X338980D01*
X301880D02*
X320430D01*
X283330D02*
X301880D01*
X264780D02*
X283330D01*
X246230D02*
X264780D01*
X227680D02*
X246230D01*
X209130D02*
X227680D01*
X190580D02*
X209130D01*
X172030D02*
X190580D01*
X153480D02*
X172030D01*
X134930D02*
X153480D01*
X116380D02*
X134930D01*
X97830D02*
X116380D01*
X79280D02*
X97830D01*
X60730D02*
X79280D01*
X42180D02*
X60730D01*
X23630D02*
X42180D01*
X5080D02*
X23630D01*
D33*
X469823Y244523D02*
Y306102D01*
X439841Y214541D02*
X469823Y244523D01*
X454083Y200132D02*
X552503Y298552D01*
Y306102D01*
X446912Y207103D02*
X511163Y271354D01*
Y306102D01*
X387144Y263637D02*
Y306102D01*
Y263637D02*
X423202Y227579D01*
X387144Y306102D02*
Y324652D01*
X428484Y225532D02*
X432770Y221245D01*
X428484Y225532D02*
Y324652D01*
X552503Y306102D02*
Y324652D01*
X511163Y306102D02*
Y324652D01*
X469823Y306102D02*
Y324652D01*
X345804Y285441D02*
Y305995D01*
X306871Y246508D02*
X345804Y285441D01*
X221784Y289168D02*
Y306102D01*
Y289168D02*
X285657Y225295D01*
X254302Y218380D02*
X278586D01*
X180444Y292238D02*
X254302Y218380D01*
X292215Y232366D02*
X292728D01*
X304464Y275333D02*
Y324652D01*
X299500Y270369D02*
X304464Y275333D01*
X263124Y261457D02*
X292215Y232366D01*
X299500Y239601D02*
Y270369D01*
X263124Y306102D02*
Y324652D01*
Y261457D02*
Y306102D01*
X221784D02*
Y324652D01*
X345750Y306048D02*
X345804Y305995D01*
X180444Y292238D02*
Y306102D01*
X345804D02*
Y324652D01*
X180444Y306102D02*
Y324652D01*
X552503Y642422D02*
Y660972D01*
X511163Y642422D02*
Y660972D01*
X552503Y600382D02*
Y618932D01*
X511163Y600382D02*
Y618932D01*
Y558342D02*
Y576892D01*
X552503Y558342D02*
Y576892D01*
Y516302D02*
Y534852D01*
X511163Y516302D02*
Y534852D01*
Y474262D02*
Y492812D01*
X552503Y474262D02*
Y492812D01*
Y432222D02*
Y450772D01*
X511163Y432222D02*
Y450772D01*
X552503Y390182D02*
Y408732D01*
X511163Y390182D02*
Y408732D01*
Y348142D02*
Y366692D01*
X552503Y348142D02*
Y366692D01*
X345804Y894662D02*
Y913212D01*
X387144Y894662D02*
Y913212D01*
X428631Y894810D02*
Y913289D01*
X428484Y894662D02*
X428631Y894810D01*
Y913289D02*
X428779Y913437D01*
X469823Y894662D02*
Y913212D01*
X511163Y894662D02*
Y913212D01*
X552503Y894662D02*
Y913212D01*
Y852622D02*
Y871172D01*
X511163Y852622D02*
Y871172D01*
X469823Y871172D02*
X469823Y871172D01*
X469823Y854742D02*
X469823Y854742D01*
Y871172D01*
X428484Y852622D02*
Y871172D01*
X387144Y852622D02*
Y871172D01*
X345804Y852622D02*
Y871172D01*
Y810582D02*
Y829132D01*
X387144Y810582D02*
Y829132D01*
X428484Y810582D02*
Y829132D01*
X469823Y810582D02*
Y829132D01*
X511163Y810582D02*
Y829132D01*
X552503Y810582D02*
Y829132D01*
X345804Y768542D02*
Y787092D01*
X387144Y768542D02*
Y787092D01*
X428484Y768542D02*
Y787092D01*
X469823Y768542D02*
Y787092D01*
X511163Y768542D02*
Y787092D01*
X552503Y768542D02*
Y787092D01*
Y726502D02*
Y745052D01*
Y684462D02*
Y703012D01*
X511163Y684462D02*
Y703012D01*
Y726502D02*
Y745052D01*
X469823Y726502D02*
Y745052D01*
X428484Y726502D02*
Y745052D01*
X387144Y726502D02*
Y745052D01*
X345920Y745154D02*
X346037Y745270D01*
X345804Y726502D02*
X345920Y726618D01*
Y745154D01*
X345804Y684462D02*
Y703012D01*
X387144Y684462D02*
Y703012D01*
X428484Y684462D02*
Y703012D01*
X469823Y684462D02*
Y703012D01*
Y642422D02*
Y660972D01*
X428484Y642422D02*
Y660972D01*
X387144Y642422D02*
Y660972D01*
X345804Y642422D02*
Y660972D01*
Y600382D02*
Y618932D01*
X387144Y600382D02*
Y618932D01*
X428484Y600382D02*
Y618932D01*
X469823Y600382D02*
Y618932D01*
Y558342D02*
Y576892D01*
X428484Y558342D02*
Y576892D01*
X387144Y558342D02*
Y576892D01*
X345804Y558342D02*
Y576892D01*
Y516302D02*
Y534852D01*
X387144Y516302D02*
Y534852D01*
X428484Y516302D02*
Y534852D01*
X469823Y516302D02*
Y534852D01*
Y474262D02*
Y492812D01*
X428484Y474262D02*
Y492812D01*
X387144Y474262D02*
Y492812D01*
X345804Y474262D02*
Y492812D01*
Y432222D02*
Y450772D01*
X387144Y432222D02*
Y450772D01*
X428484Y432222D02*
Y450772D01*
X469823Y432222D02*
Y450772D01*
Y390182D02*
Y408732D01*
X428484Y390182D02*
Y408732D01*
X387144Y390182D02*
Y408732D01*
X345804Y390182D02*
Y408732D01*
Y348142D02*
Y366692D01*
X387144Y348142D02*
Y366692D01*
X428484Y348142D02*
Y366692D01*
X469823Y348142D02*
Y366692D01*
X304464Y348142D02*
Y366692D01*
Y390182D02*
Y408732D01*
Y432222D02*
Y450772D01*
Y516302D02*
Y534852D01*
Y474262D02*
Y492812D01*
Y558342D02*
Y576892D01*
Y600382D02*
Y618932D01*
Y642422D02*
Y660972D01*
Y684462D02*
Y703012D01*
Y726502D02*
Y745052D01*
Y768542D02*
Y787092D01*
Y810582D02*
Y829132D01*
X221784Y852622D02*
Y871172D01*
X263124Y852622D02*
Y871172D01*
X304464Y852622D02*
Y871172D01*
Y894662D02*
Y913212D01*
X263124Y894662D02*
Y913212D01*
X221784Y894662D02*
Y913212D01*
X180444Y894662D02*
Y913212D01*
Y852622D02*
Y871172D01*
Y810582D02*
Y829132D01*
X221784Y810582D02*
Y829132D01*
X263124Y810582D02*
Y829132D01*
Y768542D02*
Y787092D01*
X221784Y768542D02*
Y787092D01*
X180364Y787011D02*
X180444Y787092D01*
X180283Y767756D02*
X180364Y767836D01*
Y787011D01*
X180444Y726502D02*
Y745052D01*
X221784Y726502D02*
Y745052D01*
X263124Y726502D02*
Y745052D01*
Y684462D02*
Y703012D01*
X221784Y684462D02*
Y703012D01*
X180444Y684462D02*
Y703012D01*
Y642422D02*
Y660972D01*
X221784Y642422D02*
Y660972D01*
X263124Y642422D02*
Y660972D01*
Y600382D02*
Y618932D01*
X221784Y600382D02*
Y618932D01*
X180444Y600382D02*
Y618932D01*
Y558342D02*
Y576892D01*
X221784Y558342D02*
Y576892D01*
X263124Y559959D02*
X263970Y559113D01*
X263895D02*
X263970D01*
X264101D01*
X263124Y559959D02*
Y576892D01*
Y558342D02*
X263895Y559113D01*
X263124Y516302D02*
Y534852D01*
X221784Y516302D02*
Y534852D01*
X180444Y516302D02*
Y534852D01*
Y474262D02*
Y492812D01*
X221784Y474262D02*
Y492812D01*
X263124Y474262D02*
Y492812D01*
Y432222D02*
Y450772D01*
X221784Y432222D02*
Y450772D01*
X180444Y432222D02*
Y450772D01*
X263124Y348142D02*
Y366692D01*
X221784Y348142D02*
Y366692D01*
X263124Y390182D02*
Y408732D01*
X221784Y390182D02*
Y408732D01*
X180444Y390182D02*
Y408732D01*
Y348142D02*
Y366692D01*
D44*
X520062Y201177D02*
D03*
D45*
Y175777D02*
D03*
Y150377D02*
D03*
Y124977D02*
D03*
Y99577D02*
D03*
Y74177D02*
D03*
Y48777D02*
D03*
Y23377D02*
D03*
D46*
X357278Y112553D02*
D03*
X305907Y127048D02*
D03*
X401455Y89164D02*
D03*
X423202Y227579D02*
D03*
X453983Y200032D02*
D03*
X446912Y207103D02*
D03*
X439841Y214541D02*
D03*
X432770Y221245D02*
D03*
X285657Y225295D02*
D03*
X278586Y218380D02*
D03*
X292728Y232366D02*
D03*
X306871Y246508D02*
D03*
X299500Y239601D02*
D03*
X357278Y172553D02*
D03*
X387278Y142553D02*
D03*
X327278D02*
D03*
X342278Y127553D02*
D03*
Y157553D02*
D03*
X372278D02*
D03*
Y127553D02*
D03*
X357278Y142553D02*
D03*
X468831Y932581D02*
D03*
X487381D02*
D03*
X524481D02*
D03*
X505931D02*
D03*
X543031D02*
D03*
X561581D02*
D03*
X394631D02*
D03*
X413181D02*
D03*
X450281D02*
D03*
X431731D02*
D03*
X357531D02*
D03*
X376081D02*
D03*
X338980D02*
D03*
X320430D02*
D03*
X60730D02*
D03*
X79280D02*
D03*
X42180D02*
D03*
X5080D02*
D03*
X172030D02*
D03*
X190580D02*
D03*
X227680D02*
D03*
X209130D02*
D03*
X283330D02*
D03*
X301880D02*
D03*
X264780D02*
D03*
X246230D02*
D03*
X97830D02*
D03*
X116380D02*
D03*
X153480D02*
D03*
X134930D02*
D03*
X23630D02*
D03*
X5080Y598681D02*
D03*
Y561581D02*
D03*
Y543031D02*
D03*
Y5080D02*
D03*
Y190580D02*
D03*
Y227680D02*
D03*
Y209130D02*
D03*
Y97830D02*
D03*
Y116380D02*
D03*
Y153480D02*
D03*
Y134930D02*
D03*
Y60730D02*
D03*
Y79280D02*
D03*
Y42180D02*
D03*
Y23630D02*
D03*
Y172030D02*
D03*
Y301880D02*
D03*
Y264780D02*
D03*
Y246230D02*
D03*
Y283330D02*
D03*
Y487381D02*
D03*
Y524481D02*
D03*
Y505931D02*
D03*
Y394631D02*
D03*
Y413181D02*
D03*
Y450281D02*
D03*
Y431731D02*
D03*
Y357531D02*
D03*
Y376081D02*
D03*
Y338980D02*
D03*
Y320430D02*
D03*
Y784181D02*
D03*
Y821281D02*
D03*
Y802731D02*
D03*
Y691431D02*
D03*
Y709981D02*
D03*
Y747081D02*
D03*
Y728531D02*
D03*
Y654331D02*
D03*
Y672881D02*
D03*
Y635781D02*
D03*
Y617231D02*
D03*
Y895481D02*
D03*
Y858381D02*
D03*
Y839831D02*
D03*
Y468831D02*
D03*
Y580131D02*
D03*
Y765631D02*
D03*
Y876931D02*
D03*
Y914031D02*
D03*
X580131Y153480D02*
D03*
Y172030D02*
D03*
Y190580D02*
D03*
Y209130D02*
D03*
Y227680D02*
D03*
Y246230D02*
D03*
Y264780D02*
D03*
Y283330D02*
D03*
Y301880D02*
D03*
Y320430D02*
D03*
Y338980D02*
D03*
Y357531D02*
D03*
Y376081D02*
D03*
Y394631D02*
D03*
Y413181D02*
D03*
Y431731D02*
D03*
Y450281D02*
D03*
Y468831D02*
D03*
Y487381D02*
D03*
Y505931D02*
D03*
Y524481D02*
D03*
Y543031D02*
D03*
Y561581D02*
D03*
Y580131D02*
D03*
Y598681D02*
D03*
Y617231D02*
D03*
Y635781D02*
D03*
Y654331D02*
D03*
Y672881D02*
D03*
Y691431D02*
D03*
Y709981D02*
D03*
Y728531D02*
D03*
Y747081D02*
D03*
Y765631D02*
D03*
Y784181D02*
D03*
Y802731D02*
D03*
Y821281D02*
D03*
Y839831D02*
D03*
Y858381D02*
D03*
Y876931D02*
D03*
Y895481D02*
D03*
Y914031D02*
D03*
Y932581D02*
D03*
X487381Y5080D02*
D03*
X468831D02*
D03*
X524481D02*
D03*
X505931D02*
D03*
X543031D02*
D03*
X561581D02*
D03*
X413181D02*
D03*
X394631D02*
D03*
X357531D02*
D03*
X376081D02*
D03*
X431731D02*
D03*
X450281D02*
D03*
X227680D02*
D03*
X60730D02*
D03*
X116380D02*
D03*
X97830D02*
D03*
X79280D02*
D03*
X153480D02*
D03*
X23630D02*
D03*
X42180D02*
D03*
X190580D02*
D03*
X172030D02*
D03*
X134930D02*
D03*
X338980D02*
D03*
X320430D02*
D03*
X301880D02*
D03*
X209130D02*
D03*
X246230D02*
D03*
X264780D02*
D03*
X283330D02*
D03*
X580131Y23630D02*
D03*
Y42180D02*
D03*
Y60730D02*
D03*
Y79280D02*
D03*
Y97830D02*
D03*
Y116380D02*
D03*
Y5080D02*
D03*
Y134930D02*
D03*
X476700Y16527D02*
D03*
X493557Y152727D02*
D03*
X360300Y84927D02*
D03*
X455550Y152727D02*
D03*
X566130Y135567D02*
D03*
X367950Y16947D02*
D03*
X303360Y142167D02*
D03*
X565170Y18237D02*
D03*
X221784Y306102D02*
D03*
X263124D02*
D03*
X552503Y432222D02*
D03*
X428484Y450772D02*
D03*
X221784Y474262D02*
D03*
X552503Y306102D02*
D03*
X511163D02*
D03*
X469823D02*
D03*
X345804D02*
D03*
X304464D02*
D03*
X552503Y810582D02*
D03*
Y745052D02*
D03*
Y787092D02*
D03*
Y768542D02*
D03*
Y576892D02*
D03*
Y660972D02*
D03*
Y684462D02*
D03*
Y703012D02*
D03*
Y618932D02*
D03*
Y642422D02*
D03*
Y600382D02*
D03*
Y894662D02*
D03*
Y871172D02*
D03*
Y913212D02*
D03*
Y829132D02*
D03*
Y852622D02*
D03*
Y450772D02*
D03*
Y516302D02*
D03*
Y390182D02*
D03*
Y492812D02*
D03*
Y474262D02*
D03*
Y348142D02*
D03*
Y366692D02*
D03*
Y408732D02*
D03*
Y558342D02*
D03*
Y324652D02*
D03*
Y726502D02*
D03*
Y534852D02*
D03*
X180283Y767756D02*
D03*
X180444Y913212D02*
D03*
Y306102D02*
D03*
Y408732D02*
D03*
Y390182D02*
D03*
Y348142D02*
D03*
Y366692D02*
D03*
Y324652D02*
D03*
Y660972D02*
D03*
Y745052D02*
D03*
Y684462D02*
D03*
Y703012D02*
D03*
Y618932D02*
D03*
Y642422D02*
D03*
Y600382D02*
D03*
Y726502D02*
D03*
Y534852D02*
D03*
Y558342D02*
D03*
Y576892D02*
D03*
Y516302D02*
D03*
Y492812D02*
D03*
Y450772D02*
D03*
Y474262D02*
D03*
Y432222D02*
D03*
Y810582D02*
D03*
Y787092D02*
D03*
Y829132D02*
D03*
Y894662D02*
D03*
Y852622D02*
D03*
Y871172D02*
D03*
X263124Y324652D02*
D03*
Y348142D02*
D03*
Y366692D02*
D03*
X345804Y324652D02*
D03*
Y348142D02*
D03*
Y366692D02*
D03*
Y390182D02*
D03*
Y408732D02*
D03*
Y432222D02*
D03*
Y450772D02*
D03*
Y474262D02*
D03*
Y492812D02*
D03*
Y516302D02*
D03*
Y534852D02*
D03*
X428484D02*
D03*
Y516302D02*
D03*
Y432222D02*
D03*
Y474262D02*
D03*
Y492812D02*
D03*
X263124Y474262D02*
D03*
Y492812D02*
D03*
Y516302D02*
D03*
Y534852D02*
D03*
X304464D02*
D03*
Y516302D02*
D03*
Y492812D02*
D03*
Y474262D02*
D03*
Y450772D02*
D03*
Y432222D02*
D03*
Y408732D02*
D03*
Y390182D02*
D03*
Y366692D02*
D03*
Y348142D02*
D03*
Y324652D02*
D03*
X263124Y390182D02*
D03*
Y408732D02*
D03*
Y432222D02*
D03*
Y450772D02*
D03*
X511163Y534852D02*
D03*
Y516302D02*
D03*
Y432222D02*
D03*
Y450772D02*
D03*
Y474262D02*
D03*
Y492812D02*
D03*
X469823Y324652D02*
D03*
Y534852D02*
D03*
Y516302D02*
D03*
Y492812D02*
D03*
Y474262D02*
D03*
Y450772D02*
D03*
Y432222D02*
D03*
Y408732D02*
D03*
Y390182D02*
D03*
Y366692D02*
D03*
Y348142D02*
D03*
X387144Y408732D02*
D03*
Y390182D02*
D03*
Y366692D02*
D03*
Y348142D02*
D03*
Y324652D02*
D03*
Y306102D02*
D03*
X428484D02*
D03*
Y324652D02*
D03*
Y348142D02*
D03*
Y366692D02*
D03*
Y390182D02*
D03*
Y408732D02*
D03*
X511163Y324652D02*
D03*
Y348142D02*
D03*
Y366692D02*
D03*
Y390182D02*
D03*
Y408732D02*
D03*
Y913212D02*
D03*
X469823D02*
D03*
X387144D02*
D03*
X428779Y913437D02*
D03*
X469823Y894662D02*
D03*
X345804Y871172D02*
D03*
Y894662D02*
D03*
Y913212D02*
D03*
X387144Y871172D02*
D03*
Y852622D02*
D03*
Y829132D02*
D03*
X221784Y324652D02*
D03*
X263124Y558342D02*
D03*
Y576892D02*
D03*
Y600382D02*
D03*
Y618932D02*
D03*
Y642422D02*
D03*
Y660972D02*
D03*
Y684462D02*
D03*
Y703012D02*
D03*
Y726502D02*
D03*
Y829132D02*
D03*
Y852622D02*
D03*
Y871172D02*
D03*
Y745052D02*
D03*
Y768542D02*
D03*
Y787092D02*
D03*
X221784Y348142D02*
D03*
Y366692D02*
D03*
Y390182D02*
D03*
Y408732D02*
D03*
X345804Y618932D02*
D03*
Y642422D02*
D03*
Y660972D02*
D03*
Y684462D02*
D03*
Y703012D02*
D03*
Y726502D02*
D03*
X346037Y745270D02*
D03*
X345804Y768542D02*
D03*
Y810582D02*
D03*
Y829132D02*
D03*
Y852622D02*
D03*
X221784Y432222D02*
D03*
Y450772D02*
D03*
Y492812D02*
D03*
X387144Y745052D02*
D03*
Y810582D02*
D03*
Y787092D02*
D03*
Y768542D02*
D03*
Y660972D02*
D03*
Y726502D02*
D03*
Y703012D02*
D03*
Y684462D02*
D03*
Y576892D02*
D03*
Y642422D02*
D03*
Y618932D02*
D03*
Y600382D02*
D03*
Y558342D02*
D03*
Y534852D02*
D03*
Y516302D02*
D03*
Y492812D02*
D03*
Y474262D02*
D03*
Y450772D02*
D03*
Y432222D02*
D03*
X221784Y516302D02*
D03*
Y534852D02*
D03*
Y558342D02*
D03*
Y576892D02*
D03*
X428484Y642422D02*
D03*
Y660972D02*
D03*
Y684462D02*
D03*
Y703012D02*
D03*
Y726502D02*
D03*
Y745052D02*
D03*
Y768542D02*
D03*
Y787092D02*
D03*
Y829132D02*
D03*
Y852622D02*
D03*
Y871172D02*
D03*
X304464Y558342D02*
D03*
X345804D02*
D03*
Y576892D02*
D03*
Y600382D02*
D03*
X221784D02*
D03*
Y618932D02*
D03*
Y642422D02*
D03*
Y660972D02*
D03*
X304464Y576892D02*
D03*
Y642422D02*
D03*
Y618932D02*
D03*
Y600382D02*
D03*
X428484Y558342D02*
D03*
Y576892D02*
D03*
Y600382D02*
D03*
Y618932D02*
D03*
X221784Y703012D02*
D03*
Y726502D02*
D03*
Y745052D02*
D03*
X263124Y913212D02*
D03*
X304464D02*
D03*
Y894662D02*
D03*
Y852622D02*
D03*
Y871172D02*
D03*
Y829132D02*
D03*
Y810582D02*
D03*
Y787092D02*
D03*
Y768542D02*
D03*
Y745052D02*
D03*
X221784Y852622D02*
D03*
Y684462D02*
D03*
Y768542D02*
D03*
Y810582D02*
D03*
Y829132D02*
D03*
Y871172D02*
D03*
Y894662D02*
D03*
Y913212D02*
D03*
X304464Y660972D02*
D03*
Y726502D02*
D03*
Y703012D02*
D03*
Y684462D02*
D03*
X428484Y894662D02*
D03*
Y810582D02*
D03*
X469823Y660972D02*
D03*
Y642422D02*
D03*
Y871172D02*
D03*
X469823Y854742D02*
D03*
X469823Y829132D02*
D03*
Y810582D02*
D03*
Y745052D02*
D03*
Y726502D02*
D03*
Y703012D02*
D03*
X263124Y894662D02*
D03*
X511163Y787092D02*
D03*
Y810582D02*
D03*
Y829132D02*
D03*
Y852622D02*
D03*
Y871172D02*
D03*
Y894662D02*
D03*
Y558342D02*
D03*
X469823Y600382D02*
D03*
Y576892D02*
D03*
X511163D02*
D03*
Y600382D02*
D03*
Y618932D02*
D03*
Y642422D02*
D03*
Y660972D02*
D03*
Y684462D02*
D03*
Y703012D02*
D03*
Y726502D02*
D03*
Y745052D02*
D03*
Y768542D02*
D03*
X387144Y894662D02*
D03*
X469823Y558342D02*
D03*
Y618932D02*
D03*
Y787092D02*
D03*
X221784D02*
D03*
X263124Y810582D02*
D03*
X345804Y787092D02*
D03*
X469823Y768542D02*
D03*
Y684462D02*
D03*
M02*
