G04*
G04 #@! TF.GenerationSoftware,Altium Limited,Altium Designer,23.8.1 (32)*
G04*
G04 Layer_Color=8388736*
%FSLAX44Y44*%
%MOMM*%
G71*
G04*
G04 #@! TF.SameCoordinates,2FF213BD-71F3-435E-98A3-311B6935AF75*
G04*
G04*
G04 #@! TF.FilePolarity,Negative*
G04*
G01*
G75*
%ADD12C,0.2540*%
G04:AMPARAMS|DCode=23|XSize=0.4732mm|YSize=1.0632mm|CornerRadius=0.1354mm|HoleSize=0mm|Usage=FLASHONLY|Rotation=135.000|XOffset=0mm|YOffset=0mm|HoleType=Round|Shape=RoundedRectangle|*
%AMROUNDEDRECTD23*
21,1,0.4732,0.7925,0,0,135.0*
21,1,0.2025,1.0632,0,0,135.0*
1,1,0.2707,0.2086,0.3518*
1,1,0.2707,0.3518,0.2086*
1,1,0.2707,-0.2086,-0.3518*
1,1,0.2707,-0.3518,-0.2086*
%
%ADD23ROUNDEDRECTD23*%
G04:AMPARAMS|DCode=24|XSize=1.0632mm|YSize=0.4732mm|CornerRadius=0.1354mm|HoleSize=0mm|Usage=FLASHONLY|Rotation=135.000|XOffset=0mm|YOffset=0mm|HoleType=Round|Shape=RoundedRectangle|*
%AMROUNDEDRECTD24*
21,1,1.0632,0.2025,0,0,135.0*
21,1,0.7925,0.4732,0,0,135.0*
1,1,0.2707,-0.2086,0.3518*
1,1,0.2707,0.3518,-0.2086*
1,1,0.2707,0.2086,-0.3518*
1,1,0.2707,-0.3518,0.2086*
%
%ADD24ROUNDEDRECTD24*%
G04:AMPARAMS|DCode=25|XSize=5.8032mm|YSize=5.7032mm|CornerRadius=0mm|HoleSize=0mm|Usage=FLASHONLY|Rotation=135.000|XOffset=0mm|YOffset=0mm|HoleType=Round|Shape=Rectangle|*
%AMROTATEDRECTD25*
4,1,4,4.0681,-0.0354,0.0354,-4.0681,-4.0681,0.0354,-0.0354,4.0681,4.0681,-0.0354,0.0*
%
%ADD25ROTATEDRECTD25*%

G04:AMPARAMS|DCode=26|XSize=1.8032mm|YSize=0.9032mm|CornerRadius=0.2766mm|HoleSize=0mm|Usage=FLASHONLY|Rotation=90.000|XOffset=0mm|YOffset=0mm|HoleType=Round|Shape=RoundedRectangle|*
%AMROUNDEDRECTD26*
21,1,1.8032,0.3500,0,0,90.0*
21,1,1.2500,0.9032,0,0,90.0*
1,1,0.5532,0.1750,0.6250*
1,1,0.5532,0.1750,-0.6250*
1,1,0.5532,-0.1750,-0.6250*
1,1,0.5532,-0.1750,0.6250*
%
%ADD26ROUNDEDRECTD26*%
G04:AMPARAMS|DCode=27|XSize=0.7032mm|YSize=0.7032mm|CornerRadius=0.2266mm|HoleSize=0mm|Usage=FLASHONLY|Rotation=270.000|XOffset=0mm|YOffset=0mm|HoleType=Round|Shape=RoundedRectangle|*
%AMROUNDEDRECTD27*
21,1,0.7032,0.2500,0,0,270.0*
21,1,0.2500,0.7032,0,0,270.0*
1,1,0.4532,-0.1250,-0.1250*
1,1,0.4532,-0.1250,0.1250*
1,1,0.4532,0.1250,0.1250*
1,1,0.4532,0.1250,-0.1250*
%
%ADD27ROUNDEDRECTD27*%
G04:AMPARAMS|DCode=28|XSize=0.7032mm|YSize=0.7032mm|CornerRadius=0.2266mm|HoleSize=0mm|Usage=FLASHONLY|Rotation=45.000|XOffset=0mm|YOffset=0mm|HoleType=Round|Shape=RoundedRectangle|*
%AMROUNDEDRECTD28*
21,1,0.7032,0.2500,0,0,45.0*
21,1,0.2500,0.7032,0,0,45.0*
1,1,0.4532,0.1768,0.0000*
1,1,0.4532,0.0000,-0.1768*
1,1,0.4532,-0.1768,0.0000*
1,1,0.4532,0.0000,0.1768*
%
%ADD28ROUNDEDRECTD28*%
G04:AMPARAMS|DCode=29|XSize=0.7032mm|YSize=0.7032mm|CornerRadius=0.2266mm|HoleSize=0mm|Usage=FLASHONLY|Rotation=135.000|XOffset=0mm|YOffset=0mm|HoleType=Round|Shape=RoundedRectangle|*
%AMROUNDEDRECTD29*
21,1,0.7032,0.2500,0,0,135.0*
21,1,0.2500,0.7032,0,0,135.0*
1,1,0.4532,0.0000,0.1768*
1,1,0.4532,0.1768,0.0000*
1,1,0.4532,0.0000,-0.1768*
1,1,0.4532,-0.1768,0.0000*
%
%ADD29ROUNDEDRECTD29*%
G04:AMPARAMS|DCode=30|XSize=0.7032mm|YSize=0.7032mm|CornerRadius=0.2266mm|HoleSize=0mm|Usage=FLASHONLY|Rotation=180.000|XOffset=0mm|YOffset=0mm|HoleType=Round|Shape=RoundedRectangle|*
%AMROUNDEDRECTD30*
21,1,0.7032,0.2500,0,0,180.0*
21,1,0.2500,0.7032,0,0,180.0*
1,1,0.4532,-0.1250,0.1250*
1,1,0.4532,0.1250,0.1250*
1,1,0.4532,0.1250,-0.1250*
1,1,0.4532,-0.1250,-0.1250*
%
%ADD30ROUNDEDRECTD30*%
%ADD31R,0.8890X1.7780*%
%ADD32C,0.5000*%
%ADD33C,0.1500*%
%ADD34R,1.5732X1.5732*%
%ADD35C,1.5732*%
D12*
X164849Y861878D02*
G03*
X164849Y861878I-949J0D01*
G01*
X163849Y819857D02*
G03*
X163849Y819857I-949J0D01*
G01*
X165349Y777835D02*
G03*
X165349Y777835I-949J0D01*
G01*
Y735814D02*
G03*
X165349Y735814I-949J0D01*
G01*
Y693793D02*
G03*
X165349Y693793I-949J0D01*
G01*
X164349Y651771D02*
G03*
X164349Y651771I-949J0D01*
G01*
Y609750D02*
G03*
X164349Y609750I-949J0D01*
G01*
Y567728D02*
G03*
X164349Y567728I-949J0D01*
G01*
Y525707D02*
G03*
X164349Y525707I-949J0D01*
G01*
X164849Y483686D02*
G03*
X164849Y483686I-949J0D01*
G01*
X164349Y441664D02*
G03*
X164349Y441664I-949J0D01*
G01*
Y399643D02*
G03*
X164349Y399643I-949J0D01*
G01*
Y357621D02*
G03*
X164349Y357621I-949J0D01*
G01*
X163849Y315600D02*
G03*
X163849Y315600I-949J0D01*
G01*
X181393Y298200D02*
G03*
X181393Y298200I-949J0D01*
G01*
X222777D02*
G03*
X222777Y298200I-949J0D01*
G01*
X264161D02*
G03*
X264161Y298200I-949J0D01*
G01*
X305545D02*
G03*
X305545Y298200I-949J0D01*
G01*
X346929D02*
G03*
X346929Y298200I-949J0D01*
G01*
X388313D02*
G03*
X388313Y298200I-949J0D01*
G01*
X429697D02*
G03*
X429697Y298200I-949J0D01*
G01*
X471081D02*
G03*
X471081Y298200I-949J0D01*
G01*
X512465D02*
G03*
X512465Y298200I-949J0D01*
G01*
X553849D02*
G03*
X553849Y298200I-949J0D01*
G01*
X570349Y319681D02*
G03*
X570349Y319681I-949J0D01*
G01*
Y445128D02*
G03*
X570349Y445128I-949J0D01*
G01*
Y403312D02*
G03*
X570349Y403312I-949J0D01*
G01*
Y361497D02*
G03*
X570349Y361497I-949J0D01*
G01*
Y570575D02*
G03*
X570349Y570575I-949J0D01*
G01*
Y528759D02*
G03*
X570349Y528759I-949J0D01*
G01*
Y486944D02*
G03*
X570349Y486944I-949J0D01*
G01*
Y696022D02*
G03*
X570349Y696022I-949J0D01*
G01*
Y654206D02*
G03*
X570349Y654206I-949J0D01*
G01*
Y612390D02*
G03*
X570349Y612390I-949J0D01*
G01*
Y737837D02*
G03*
X570349Y737837I-949J0D01*
G01*
X181549Y921000D02*
G03*
X181549Y921000I-949J0D01*
G01*
X570349Y779653D02*
G03*
X570349Y779653I-949J0D01*
G01*
Y821469D02*
G03*
X570349Y821469I-949J0D01*
G01*
Y863284D02*
G03*
X570349Y863284I-949J0D01*
G01*
Y905100D02*
G03*
X570349Y905100I-949J0D01*
G01*
X471582Y921000D02*
G03*
X471582Y921000I-949J0D01*
G01*
X430149D02*
G03*
X430149Y921000I-949J0D01*
G01*
X388715D02*
G03*
X388715Y921000I-949J0D01*
G01*
X347282D02*
G03*
X347282Y921000I-949J0D01*
G01*
X264415D02*
G03*
X264415Y921000I-949J0D01*
G01*
X305849D02*
G03*
X305849Y921000I-949J0D01*
G01*
X554449D02*
G03*
X554449Y921000I-949J0D01*
G01*
X222982D02*
G03*
X222982Y921000I-949J0D01*
G01*
X513015D02*
G03*
X513015Y921000I-949J0D01*
G01*
X163849Y903900D02*
G03*
X163849Y903900I-949J0D01*
G01*
D23*
X402005Y146505D02*
D03*
X398469Y150041D02*
D03*
X394934Y153576D02*
D03*
X391398Y157112D02*
D03*
X387863Y160648D02*
D03*
X384327Y164183D02*
D03*
X380792Y167719D02*
D03*
X377256Y171254D02*
D03*
X373721Y174790D02*
D03*
X370185Y178325D02*
D03*
X366649Y181861D02*
D03*
X363114Y185396D02*
D03*
X314536Y136818D02*
D03*
X318071Y133282D02*
D03*
X321607Y129747D02*
D03*
X325142Y126211D02*
D03*
X328678Y122676D02*
D03*
X332213Y119140D02*
D03*
X335749Y115605D02*
D03*
X339284Y112069D02*
D03*
X342820Y108534D02*
D03*
X346356Y104998D02*
D03*
X349891Y101463D02*
D03*
X353427Y97927D02*
D03*
D24*
X363114D02*
D03*
X366649Y101463D02*
D03*
X370185Y104998D02*
D03*
X373721Y108534D02*
D03*
X377256Y112069D02*
D03*
X380792Y115605D02*
D03*
X384327Y119140D02*
D03*
X387863Y122676D02*
D03*
X391398Y126211D02*
D03*
X394934Y129747D02*
D03*
X398469Y133282D02*
D03*
X402005Y136818D02*
D03*
X353427Y185396D02*
D03*
X349891Y181861D02*
D03*
X346356Y178325D02*
D03*
X342820Y174790D02*
D03*
X339284Y171254D02*
D03*
X335749Y167719D02*
D03*
X332213Y164183D02*
D03*
X328678Y160648D02*
D03*
X325142Y157112D02*
D03*
X321607Y153576D02*
D03*
X318071Y150041D02*
D03*
X314536Y146505D02*
D03*
D25*
X358270Y141662D02*
D03*
D26*
X384830Y26831D02*
D03*
X431058D02*
D03*
D27*
X490080Y93987D02*
D03*
Y83987D02*
D03*
X541161D02*
D03*
Y93987D02*
D03*
D28*
X430297Y176681D02*
D03*
X437368Y183752D02*
D03*
X423226Y183752D02*
D03*
X430297Y190823D02*
D03*
X416155Y191190D02*
D03*
X423226Y198261D02*
D03*
X409084Y197894D02*
D03*
X416155Y204965D02*
D03*
X402013Y204965D02*
D03*
X409084Y212036D02*
D03*
X398533Y99907D02*
D03*
X405604Y106978D02*
D03*
X390959Y107307D02*
D03*
X398030Y114378D02*
D03*
D29*
X330222Y222643D02*
D03*
X323151Y229714D02*
D03*
X323151Y215572D02*
D03*
X316080Y222643D02*
D03*
X316080Y208501D02*
D03*
X309009Y215572D02*
D03*
Y201430D02*
D03*
X301937Y208501D02*
D03*
Y194359D02*
D03*
X294866Y201430D02*
D03*
X407435Y120173D02*
D03*
X414506Y113101D02*
D03*
X415200Y127671D02*
D03*
X422271Y120600D02*
D03*
X422948Y135129D02*
D03*
X430020Y128058D02*
D03*
X299636Y131165D02*
D03*
X292564Y138236D02*
D03*
D30*
X402944Y50119D02*
D03*
X412944D02*
D03*
D31*
X368239Y66983D02*
D03*
X470370Y195478D02*
D03*
D32*
X5080Y821281D02*
Y839831D01*
X134930Y932581D02*
X153480D01*
X246230D02*
X264780D01*
X5080Y543031D02*
Y561581D01*
Y431731D02*
Y450281D01*
Y338980D02*
Y357531D01*
Y301880D02*
Y320430D01*
X580131Y839831D02*
Y858381D01*
Y728531D02*
Y747081D01*
Y617231D02*
Y635781D01*
X23630Y5080D02*
X42180D01*
X580131Y505931D02*
Y524481D01*
X209130Y5080D02*
X227680D01*
X580131Y283330D02*
Y301880D01*
X5080Y914031D02*
Y932581D01*
X23630D02*
X42180D01*
X97830D02*
X116380D01*
X5080Y709981D02*
Y728531D01*
X227680Y932581D02*
X246230D01*
X5080Y598681D02*
Y617231D01*
X338980Y932581D02*
X357531D01*
X5080Y468831D02*
Y487381D01*
X450281Y932581D02*
X468831D01*
X5080Y283330D02*
Y301880D01*
Y246230D02*
Y264780D01*
X580131Y821281D02*
Y839831D01*
X5080Y153480D02*
Y172030D01*
X580131Y709981D02*
Y728531D01*
X190580Y5080D02*
X209130D01*
X580131Y357531D02*
Y376081D01*
X301880Y5080D02*
X320430D01*
X580131Y264780D02*
Y283330D01*
X394631Y5080D02*
X413181D01*
X580131Y190580D02*
Y209130D01*
Y134930D02*
Y153480D01*
Y116380D02*
Y134930D01*
X543031Y5080D02*
X561581D01*
X580131Y23630D02*
Y42180D01*
X42180Y932581D02*
X60730D01*
X5080Y802731D02*
Y821281D01*
Y691431D02*
Y709981D01*
X209130Y932581D02*
X227680D01*
X5080Y580131D02*
Y598681D01*
X320430Y932581D02*
X338980D01*
X431731D02*
X450281D01*
X5080Y376081D02*
Y394631D01*
X580131Y914031D02*
Y932581D01*
Y802731D02*
Y821281D01*
X5080Y134930D02*
Y153480D01*
X580131Y598681D02*
Y617231D01*
Y487381D02*
Y505931D01*
X134930Y5080D02*
X153480D01*
X580131Y376081D02*
Y394631D01*
X283330Y5080D02*
X301880D01*
X580131Y153480D02*
Y172030D01*
X524481Y5080D02*
X543031D01*
X580131D02*
Y23630D01*
X5080Y895481D02*
Y914031D01*
X79280Y932581D02*
X97830D01*
X5080Y784181D02*
Y802731D01*
Y672881D02*
Y691431D01*
X413181Y932581D02*
X431731D01*
X561581D02*
X580131D01*
X5080Y320430D02*
Y338980D01*
X580131Y691431D02*
Y709981D01*
X5080Y42180D02*
Y60730D01*
X580131Y580131D02*
Y598681D01*
X42180Y5080D02*
X60730D01*
X116380D02*
X134930D01*
X580131Y468831D02*
Y487381D01*
Y394631D02*
Y413181D01*
Y338980D02*
Y357531D01*
X376081Y5080D02*
X394631D01*
X431731D02*
X450281D01*
X566831Y134930D02*
X580131D01*
X487381Y5080D02*
X505931D01*
X5080Y876931D02*
Y895481D01*
X116380Y932581D02*
X134930D01*
X5080Y765631D02*
Y784181D01*
X190580Y932581D02*
X209130D01*
X301880D02*
X320430D01*
X5080Y561581D02*
Y580131D01*
Y487381D02*
Y505931D01*
Y413181D02*
Y431731D01*
Y357531D02*
Y376081D01*
X543031Y932581D02*
X561581D01*
X580131Y895481D02*
Y914031D01*
X5080Y264780D02*
Y283330D01*
X580131Y784181D02*
Y802731D01*
Y672881D02*
Y691431D01*
X5080Y60730D02*
Y79280D01*
Y5080D02*
Y23630D01*
Y5080D02*
X23630D01*
X580131Y561581D02*
Y580131D01*
X153480Y5080D02*
X172030D01*
X264780D02*
X283330D01*
X580131Y320430D02*
Y338980D01*
X468831Y5080D02*
X487381D01*
X566195Y135567D02*
X566831Y134930D01*
X580131Y42180D02*
Y60730D01*
X5080Y932581D02*
X23630D01*
X60730D02*
X79280D01*
X172030D02*
X190580D01*
X5080Y654331D02*
Y672881D01*
X283330Y932581D02*
X301880D01*
X5080Y524481D02*
Y543031D01*
X394631Y932581D02*
X413181D01*
X5080Y450281D02*
Y468831D01*
Y394631D02*
Y413181D01*
X524481Y932581D02*
X543031D01*
X580131Y876931D02*
Y895481D01*
Y765631D02*
Y784181D01*
X5080Y79280D02*
Y97830D01*
X580131Y654331D02*
Y672881D01*
X5080Y23630D02*
Y42180D01*
X580131Y450281D02*
Y468831D01*
X172030Y5080D02*
X190580D01*
X246230D02*
X264780D01*
X357531D02*
X376081D01*
X580131Y209130D02*
Y227680D01*
Y172030D02*
Y190580D01*
X450281Y5080D02*
X468831D01*
X566130Y135567D02*
X566195D01*
X580131Y79280D02*
Y97830D01*
X5080Y858381D02*
Y876931D01*
Y747081D02*
Y765631D01*
Y635781D02*
Y654331D01*
X264780Y932581D02*
X283330D01*
X376081D02*
X394631D01*
X487381D02*
X505931D01*
X580131Y858381D02*
Y876931D01*
X5080Y209130D02*
Y227680D01*
Y172030D02*
Y190580D01*
Y97830D02*
Y116380D01*
X580131Y543031D02*
Y561581D01*
X79280Y5080D02*
X97830D01*
X116380D01*
X580131Y431731D02*
Y450281D01*
X227680Y5080D02*
X246230D01*
X338980D02*
X357531D01*
X580131Y246230D02*
Y264780D01*
Y97830D02*
Y116380D01*
X561581Y5080D02*
X580131D01*
X5080Y839831D02*
Y858381D01*
X153480Y932581D02*
X172030D01*
X5080Y728531D02*
Y747081D01*
Y617231D02*
Y635781D01*
X357531Y932581D02*
X376081D01*
X5080Y505931D02*
Y524481D01*
X468831Y932581D02*
X487381D01*
X505931D02*
X524481D01*
X5080Y227680D02*
Y246230D01*
Y190580D02*
Y209130D01*
X580131Y747081D02*
Y765631D01*
X5080Y116380D02*
Y134930D01*
X580131Y635781D02*
Y654331D01*
X60730Y5080D02*
X79280D01*
X580131Y524481D02*
Y543031D01*
Y413181D02*
Y431731D01*
Y301880D02*
Y320430D01*
X320430Y5080D02*
X338980D01*
X580131Y227680D02*
Y246230D01*
X413181Y5080D02*
X431731D01*
X505931D02*
X524481D01*
X580131Y60730D02*
Y79280D01*
D33*
X520062Y23377D02*
X523363D01*
X516761D02*
X520062D01*
D34*
Y201177D02*
D03*
D35*
Y175777D02*
D03*
Y150377D02*
D03*
Y124977D02*
D03*
Y99577D02*
D03*
Y74177D02*
D03*
Y48777D02*
D03*
Y23377D02*
D03*
M02*
